<svg xmlns="http://www.w3.org/2000/svg" width="428" height="88" fill="none"><path fill="#fff" d="M349.488 26.02C353.209 8.672 367.99 0 393.832 0c2.044 0 3.925.04 5.642.123 1.759.082 3.599.225 5.52.43 1.963.163 3.742.408 5.336.736 1.595.327 3.21.757 4.846 1.288 1.635.491 3.066 1.105 4.293 1.841a24.227 24.227 0 0 1 3.557 2.516 11.435 11.435 0 0 1 2.699 3.376c.736 1.268 1.309 2.68 1.717 4.234.409 1.555.593 3.314.552 5.277-.04 1.923-.306 4.03-.797 6.321h-13.555c.573-2.536.512-4.704-.184-6.505-.695-1.8-1.696-3.15-3.005-4.05-1.267-.94-3.128-1.657-5.581-2.148-2.413-.531-4.58-.838-6.502-.92-1.921-.123-4.354-.184-7.298-.184-1.922 0-3.558.02-4.907.061-1.308.041-2.944.164-4.907.368-1.921.164-3.577.43-4.968.798-1.39.327-2.882.818-4.477 1.473-1.554.654-2.862 1.432-3.925 2.332-1.063.9-2.024 2.045-2.883 3.436s-1.472 2.966-1.84 4.726c-.736 3.313-.225 5.973 1.533 7.977 1.8 1.964 4.805 3.13 9.016 3.498l29.011 2.639c7.156.614 12.328 2.782 15.517 6.505 3.231 3.682 4.171 8.837 2.822 15.464-.695 3.314-1.779 6.3-3.251 8.96-1.472 2.618-3.128 4.848-4.968 6.689-1.84 1.8-4.027 3.375-6.563 4.725-2.494 1.31-4.968 2.352-7.421 3.13-2.412.736-5.152 1.33-8.219 1.78-3.025.45-5.826.756-8.402.92-2.535.123-5.336.184-8.403.184-1.963 0-3.823-.04-5.581-.123a89.33 89.33 0 0 1-5.398-.43 47.379 47.379 0 0 1-5.274-.858 57.562 57.562 0 0 1-4.846-1.35c-1.594-.532-3.025-1.166-4.293-1.903a28.226 28.226 0 0 1-3.557-2.577 13.68 13.68 0 0 1-2.76-3.376 19.148 19.148 0 0 1-1.779-4.172c-.409-1.555-.593-3.273-.552-5.155.041-1.923.286-3.99.736-6.198h13.555c-.532 2.414-.45 4.5.245 6.26.695 1.758 1.717 3.108 3.067 4.05 1.349.94 3.189 1.697 5.52 2.27 2.33.532 4.498.88 6.501 1.043 2.045.123 4.437.184 7.176.184 2.167 0 3.966-.02 5.397-.061 1.472-.041 3.292-.143 5.459-.307 2.208-.164 4.069-.409 5.581-.736 1.513-.328 3.149-.819 4.907-1.473 1.799-.655 3.271-1.412 4.416-2.27 1.186-.9 2.249-2.026 3.189-3.376.941-1.39 1.595-2.966 1.963-4.725.736-3.478.205-5.932-1.595-7.364-1.758-1.473-4.743-2.455-8.954-2.946l-29.134-2.761c-7.196-.778-12.409-3.191-15.64-7.242-3.23-4.09-4.129-9.552-2.698-16.385ZM309.674 88l18.768-88h13.922l-18.706 88h-13.984Zm-6.449-88h13.861L298.38 88h-28.152L246.246 0h14.046l24.226 88 18.707-88Zm-75.747 88h-13.8l18.707-88h13.861l-18.768 88ZM129.52.245 110.875 88H97.198l18.706-88h27.048l8.28 88 43.731-88h26.741l-18.706 88h-13.616L208.027.798h-.184L164.542 88H137.8L129.643.245h-.123ZM95.778 44c-2.985 14.196-9.363 25.079-19.136 32.647C66.87 84.216 54.4 88 39.23 88 23.937 88 13.061 84.236 6.6 76.709.14 69.138-1.577 58.236 1.449 44c3.025-14.36 9.404-25.283 19.136-32.77C30.356 3.743 42.848 0 58.058 0c15.293 0 26.19 3.682 32.69 11.046 6.502 7.323 8.179 18.308 5.03 32.954Zm-14.106-.245c2.085-9.737.879-17.265-3.619-22.584-4.457-5.318-12-7.977-22.632-7.977-10.754 0-19.565 2.68-26.435 8.039C22.158 26.593 17.701 34.18 15.616 44c-2.127 9.982-.9 17.612 3.68 22.89 4.58 5.277 12.266 7.916 23.061 7.916 10.876 0 19.627-2.72 26.25-8.162 6.625-5.44 10.98-13.07 13.065-22.89Z"/></svg>