<svg xmlns="http://www.w3.org/2000/svg" width="542" height="472" fill="none"><g clip-path="url(#a)"><path fill="#F1F3F4" d="m3.023 344.558-1.316.605v-1.246l-1.742-.819 1.742-.819V0l119.516 56.85v-9.718c0-.213.036-.427.107-.676l.071-.071h-.071l.071-.748c0-.498.036-.64.071-.783l.107-.392c.142-.605.32-1.103.498-1.566l.142-.107h-.071l.142-.427c.107-.32.213-.64.356-.925.32-.712.746-1.424 1.173-2.136l.427-.641c.604-.89 1.315-1.744 2.098-2.599 9.281-10.074 31.257-18.724 61.838-24.35l.925-.142c2.453-.427 4.942-.89 7.503-1.281 2.133-.32 4.302-.64 6.471-.961l3.094-.427c20.162-2.67 41.676-4.059 63.936-4.059 56.291 0 107.284 8.615 133.385 22.499l5.298 2.954h-.178c.178.143.391.285.569.392l1.245.89c.889.64 1.493 1.032 1.991 1.46.32.249.605.498.889.747l.782.676c.356.32.747.641 1.067.926.32.32.605.64.889.925l.534.606c.32.32.569.605.817.89.285.391.569.747.818 1.139v.142l.071-.036.249.356c.214.32.427.641.64.926.178.32.356.676.534.997l.178.427c.213.463.391.819.533 1.175.142.391.249.783.356 1.174l.142.499.213.961c.071.392.107.819.142 1.21.036.392.072.534.072.677v9.54L539.938.605v341.532l2.062.997L271 472 3.023 344.558ZM271 469.117l41.641-19.793L271 429.531l-41.64 19.793L271 469.117Zm44.663-21.253 41.641-19.792-41.641-19.793-41.64 19.793 41.64 19.792Zm-89.326 0 41.641-19.792-41.641-19.793-41.64 19.793 41.64 19.792Zm133.989-21.216 41.641-19.793-41.641-19.793-41.64 19.793 41.64 19.793Zm-178.651 0 41.64-19.793-41.64-19.793-41.641 19.793 41.641 19.793Zm89.325 0 41.641-19.793L271 387.062l-41.64 19.793L271 426.648Zm44.663-21.253 41.641-19.792-27.452-13.065c-11.059 1.317-22.616 2.243-34.351 2.777l-21.478 10.288 41.64 19.792Zm-178.651 0 41.64-19.792-41.64-19.793-41.64 19.793 41.64 19.792Zm267.977 0 41.64-19.792-41.64-19.793-41.64 19.793 41.64 19.792Zm-178.652 0 41.641-19.792-21.905-10.431a462.633 462.633 0 0 1-33.746-2.705l-27.63 13.136 41.64 19.792Zm223.315-21.216 41.64-19.793-41.64-19.793-41.64 19.793 41.64 19.793Zm-357.303 0 41.64-19.793-41.64-19.793-41.64 19.793 41.64 19.793Zm89.326 0 25.887-12.317c-22.154-2.92-41.605-7.369-56.291-12.852l-11.237 5.34 41.641 19.793v.036Zm178.651-.036 41.641-19.793-11.059-5.268c-9.744 3.809-22.012 7.119-36.556 9.825l-1.529.249c-2.382.427-4.765.854-7.218 1.246-2.276.356-4.445.676-6.615.997l-3.164.427c-.285 0-.712.071-1.138.142l25.603 12.175h.035Zm-89.326 0 18.029-8.579c-6.294.213-11.912.32-17.104.32-6.187 0-12.588-.107-19.024-.356L271 384.143Zm-9.458-10.964c3.484.071 7.005.106 10.525.106 9.566 0 19.131-.249 28.412-.783 2.347-.142 4.73-.284 7.041-.427l.996-.071a333.44 333.44 0 0 0 5.974-.463l1.956-.178c1.671-.142 3.307-.285 4.942-.463l7.006-.747 3.982-.499c-.284-.178-.569-.391-.711-.462-.675-.463-1.316-.962-1.991-1.46l-1.28-.961c-.64-.534-1.316-1.068-1.956-1.638l-1.28-1.103a73.217 73.217 0 0 1-2.383-2.278l-.782-.748c-2.098-2.136-4.161-4.485-6.187-6.977l-.818-1.068c-.712-.926-1.458-1.851-2.134-2.813l-1.031-1.459c-.64-.89-1.245-1.78-1.885-2.706l-1.102-1.673a51.37 51.37 0 0 1-1.743-2.741l-1.102-1.815c-.569-.926-1.102-1.851-1.671-2.813l-1.885-3.346c-9.885 1.282-20.34 1.923-31.15 1.923-1.6 0-3.2-.001-4.801-.036-1.529 17.194-3.271 30.223-5.049 37.734l.107-.035Zm-64.399-5.447c1.92.321 3.876.605 5.867.89 17.496 2.492 36.2 4.023 55.58 4.521l.071-37.912c-9.921-.463-19.629-1.531-28.092-3.062-11.45 16.269-24.5 28.301-37.764 34.887 1.209.213 4.338.712 4.338.712v-.036Zm140.354 1.282c2.596-.356 5.192-.748 7.681-1.14h.106l.427-.071c17.104-2.776 32.395-6.585 44.308-11.106-18.456-4.165-36.094-12.745-52.451-25.453l-.071 37.805v-.035Zm-31.293-34.104a130.271 130.271 0 0 0 2.596 4.379l1.103 1.709c.604.996 1.138 1.78 1.635 2.563l1.245 1.851c.64.925 1.102 1.566 1.529 2.207.356.498 1.316 1.78 1.316 1.78.533.712 1.031 1.388 1.529 2.029.462.57.924 1.139 1.351 1.709a38.612 38.612 0 0 0 1.565 1.851l1.387 1.602c.533.569 1.031 1.139 1.564 1.709.462.498.925.996 1.423 1.459.533.534 1.102 1.032 1.635 1.566.605.57.996.962 1.387 1.318.533.462 1.031.889 1.565 1.317 0 0 1.173.996 1.493 1.246.64.498 1.28.961 1.92 1.424 0 0 .961.712 1.174.854.427.285.818.534 1.245.783l.071-39.016c-.996-.819-1.992-1.637-2.952-2.492-6.792 2.741-16.002 4.984-26.741 6.55l.925 1.709.035-.107Zm-147.323 24.029c1.138.356 2.098.641 3.022.926l1.814.569c1.067.321 2.169.606 3.307.926l1.778.498c1.173.321 5.298 1.317 5.298 1.317 1.316.321 2.632.606 3.983.926l1.494.356c1.422.32 2.88.605 4.338.926l3.307.64.071-30.401c-1.742.961-3.449 1.923-5.192 2.813l-1.671.818a216.613 216.613 0 0 1-4.303 2.065l-3.236 1.388c-1.138.499-1.991.855-2.844 1.211-.498.213-.996.391-1.494.569l-1.991.748c-.889.356-1.814.676-2.738.997-.64.213-1.245.427-1.885.605l-1.458.463c-1.031.32-1.991.64-2.951.925-.605.178-3.556.961-3.556.961-.96.249-1.885.499-2.845.748-.711.178-1.423.32-2.134.463l-1.671.356c-.925.213-1.814.391-2.703.569-.746.143-1.493.249-2.24.392l-1.102.178.711.356s3.343 1.566 3.805 1.744l4.089 1.709 4.374 1.637.107.107v-.071l4.516 1.531v.035Zm30.937 6.622c13.263-6.052 26.385-17.764 37.977-33.961-9.672-1.923-17.602-4.486-23.078-7.44-.995.747-1.778 1.317-2.56 1.886 0 0-2.454 1.78-2.952 2.136-.924.641-1.884 1.246-2.809 1.851 0 0-2.311 1.531-2.773 1.816-1.245.783-2.49 1.495-3.734 2.243l-.071 31.504v-.035Zm304.497-2.635 41.64-19.792-41.64-19.793-41.64 19.793 41.64 19.792Zm-446.63 0 41.641-19.792-41.64-19.793-41.64 19.793 41.64 19.792Zm357.304 0 41.64-19.792-25.887-12.317v3.239l-.142 1.709h-.071l-.071.391h-.036v.143a6.98 6.98 0 0 1-.249.925c-.107.392-.249.748-.391 1.104-.178.463-.249.676-.356.89-.177.391-.355.747-.569 1.139-.142.249-.32.534-.497.783l-.143.071h.071l-.497.783c-.356.499-.676.962-1.067 1.424l-.356.428h-.071v.035l-.604.677c-.605.64-1.174 1.245-1.778 1.815l-.32.285c-4.445 4.022-10.917 7.76-19.203 11.142l10.597 5.055v.071Zm-267.977 0 10.916-5.197c-3.591-1.46-6.863-2.955-9.707-4.485l-.96-.499-3.948-2.243h.178s-.32-.213-.462-.32l-1.529-1.068c-.605-.427-1.102-.783-1.6-1.139l-1.529-1.282c-.391-.32-.783-.64-1.138-.996-.249-.25-1.387-1.424-1.387-1.424a9.714 9.714 0 0 1-.818-.89c-.284-.321-.533-.677-.782-.997l-.285-.392-.711-.996c-.249-.392-.462-.784-.676-1.175-.32-.57-.497-.926-.64-1.282a18.78 18.78 0 0 1-.462-1.281l-.32-.961a12.05 12.05 0 0 1-.213-1.175l-.071-.249-.072-.392-.142-1.851h.071v-1.637l-25.354 12.067 41.641 19.793v.071Zm124.21-2.67c.96-6.728 1.884-15.058 2.773-24.847-.924 0-1.813-.036-2.738-.072v24.919h-.035Zm76.346-32.323c17.104 13.67 36.342 22.925 55.758 26.841v-19.65c-17.069-3.24-33.355-9.291-48.433-17.942-1.173 2.457-3.627 4.735-7.325 6.835v3.916Zm58.353 26.343c7.183-3.133 12.695-6.515 16.429-10.003l.249-.249a28.343 28.343 0 0 0 2.027-2.172l.498-.641c.462-.605.817-1.174 1.173-1.78l.213-.391h.036l.178-.392c.178-.356.284-.641.391-.89a157.272 157.272 0 0 1-21.194-2.171v18.689Zm-257.38-4.557c1.742-.249 3.485-.534 5.227-.854a93.152 93.152 0 0 0 1.956-.427c1.529-.321 3.058-.641 4.587-.997.533-.142 2.56-.676 2.56-.676 1.494-.392 2.703-.712 3.912-1.068.604-.178 2.738-.855 2.738-.855l.533-.178c1.067-.32 2.063-.64 3.058-.996.676-.25 1.316-.499 1.992-.748l1.351-.498c.96-.356 1.956-.712 2.916-1.104.711-.285 2.809-1.175 2.809-1.175 1.316-.569 2.347-.996 3.343-1.459.747-.321 2.773-1.317 2.773-1.317a264.74 264.74 0 0 0 3.236-1.602 83.843 83.843 0 0 0 2.454-1.317c1.351-.748 2.382-1.318 3.449-1.923l-.106-11.925a175.378 175.378 0 0 0-2.952 1.388c-2.027.89-4.089 1.78-6.152 2.563l-.355.143a163.37 163.37 0 0 1-5.832 2.135l-2.027.677c-1.422.463-2.88.925-4.338 1.353l-2.454.676a73.341 73.341 0 0 1-4.018 1.068c-.747.178-2.667.641-2.667.641-1.316.284-2.631.605-3.947.854-.925.178-1.849.356-2.738.534-1.316.249-2.632.463-3.947.676-.925.143-1.85.285-2.81.428-1.351.178-2.702.356-4.053.498h-.427v15.485h-.071Zm-4.587-2.064c.32.213 1.493.961 1.493.961l.462.285v-14.347c-1.458.143-2.738.214-4.018.321l-2.596.178c-1.671.071-3.342.107-5.014.142h-.675s0 .143.035.178l.143.427c.071.285.142.392.177.499l.214.605c.142.356.249.712.426 1.032.178.356.285.534.427.712l.462.748c.178.32.392.676.605.996.178.25.391.463.569.712l.604.712c.285.321.534.677.854.997.213.249.462.463.711.677l.747.676c.32.32.675.641 1.031.925.427.356.747.606 1.067.819l.426.321c.712.534 1.067.818 1.494 1.103v.071h.036l.355.25h-.035Zm-41.605-5.981 28.376-13.492V315.58l-28.376-13.527-41.64 19.793 41.64 19.792v.036Zm357.303 0 41.64-19.793-41.64-19.792-28.874 13.741v12.103l28.874 13.741Zm87.69-1.21v-53.647l-41.96-13.278v46.99l41.96 19.899v.036Zm-532.683 0 41.96-19.9v-46.99L4.66 286.852v53.647-.035Zm391.298-9.292c1.422.214 2.738.428 4.054.606l.604.071c.889.107 1.743.249 2.632.32 1.635.178 3.307.321 4.942.463l1.067.071c.64.071 1.28.107 1.92.143 1.992.106 3.983.178 5.975.213h.604v-2.314l-.178-.534-.355-.925-.178-.427a12.037 12.037 0 0 0-.462-.962c-.107-.213-.676-1.103-.676-1.103-.391-.57-.605-.89-.853-1.21-.249-.321-.534-.641-.783-.926l-.284-.32c-.498-.534-.711-.819-.996-1.068-.32-.321-.711-.677-1.102-.997l-.676-.605c-.284-.249-.533-.463-.818-.712-.498-.392-1.031-.783-1.6-1.211 0 0-1.209-.89-1.493-1.068-.854-.569-1.814-1.139-2.774-1.708l-.605-.392c-2.453.321-4.907.534-7.325.748h-.604v13.812l-.036.035Zm-129.153 1.709c1.529 0 3.058.036 4.588.036 10.347 0 20.411-.605 29.834-1.78l-.604-1.139c-.498-.997-1.032-1.994-1.529-3.026l-1.032-2.136c-.498-1.032-.995-2.1-1.493-3.168l-.996-2.207c-.498-1.104-.96-2.208-1.458-3.311l-.96-2.207c-.498-1.175-.96-2.35-1.422-3.524l-.889-2.208c-.463-1.174-.889-2.385-1.352-3.559l-.853-2.314c-.249-.712-.747-2.172-.96-2.777l-6.436-.249c-.747 0-1.636-.071-2.632-.071-2.596-.072-5.547-.072-8.641-.072h-.818c-.711 12.318-1.493 23.673-2.382 33.748l.035-.036Zm-2.595-.071c.889-10.074 1.671-21.395 2.382-33.676-1.814 0-3.592 0-5.263.071l-.071 33.534c.889 0 2.276.071 2.952.071Zm-140.817-.142c1.956 0 3.912-.107 5.868-.178l1.955-.143c1.601-.107 3.165-.213 4.765-.356v-.996c-3.769.249-6.969.355-10.027.355h-2.418c-.036.428-.143 1.246-.143 1.353v-.035Zm108.813-2.884c8.143 1.424 17.068 2.35 26.456 2.812l.071-33.32c-1.138.036-3.271.143-3.271.143-2.312.106-4.41.213-6.614.32-4.979 11-10.597 21.11-16.642 30.045Zm-93.629 1.922h.143c1.493-.178 2.951-.356 4.444-.569a62.882 62.882 0 0 0 2.561-.392c1.493-.249 2.951-.498 4.445-.783 0 0 1.778-.32 2.311-.427 1.743-.356 3.485-.748 5.192-1.175l1.422-.356a182.223 182.223 0 0 0 6.294-1.744 155.162 155.162 0 0 1-26.812 4.557v.889Zm51.313-.676.213-.142c1.031-.641 2.063-1.246 3.058-1.923.889-.569 1.743-1.139 2.596-1.708.996-.677 2.027-1.353 2.987-2.065.854-.605 1.707-1.21 2.525-1.816l.96-.747c-3.2-2.1-5.227-4.343-6.045-6.693l-.178.107c-1.244.677-2.525 1.353-3.805 2.029l-2.382 1.211v11.676l.071.071Zm103.123-24.42 1.031 2.634 1.209 2.954 1.067 2.564c.427.961.818 1.922 1.244 2.883l1.103 2.456c.391.855 2.418 5.127 2.418 5.127.462.961 2.525 4.948 2.525 4.948l.32.605c10.205-1.424 19.095-3.524 25.816-6.052-7.93-7.048-15.362-15.022-22.083-23.78-1.635-.071-3.484-.249-5.369-.427l-1.494-.142-8.249-.605c-.676-.036-1.352-.072-2.134-.107l.427 1.21s1.742 4.735 2.133 5.767l.036-.035Zm55.971 8.721a167.472 167.472 0 0 0 6.685 3.382l1.387.605c1.849.855 3.662 1.673 5.547 2.421.498.213 2.56.997 2.56.997 1.636.64 3.094 1.21 4.552 1.708.747.25 1.458.499 2.205.748l.746.249c1.458.463 2.881.961 4.374 1.388 1.031.321 2.098.606 3.13.89 1.457.392 2.88.784 4.338 1.14 1.067.249 2.133.498 3.236.747 1.458.321 2.951.605 4.445.89l1.209.214v-13.136c-1.529.071-3.094.107-4.659.142h-3.982c-2.383-.071-4.41-.178-6.437-.32l-3.947-.392c-1.458-.142-2.916-.356-4.374-.569l-2.595-.392c-.498-.071-1.885-.32-1.885-.32a140.118 140.118 0 0 1-5.405-1.139l-4.161-1.104c-1.031-.285-2.062-.57-3.093-.89l-1.103-.32s-3.271-1.104-3.947-1.353l-3.52-1.353c.818 1.282 1.28 2.599 1.387 3.916.711.392 2.951 1.673 3.307 1.851Zm-141.99 7.049c5.405 2.741 13.157 5.09 22.438 6.87 6.01-8.721 11.593-18.618 16.535-29.369-1.955.107-3.876.25-5.582.392-2.027.178-4.374.392-7.397.712-1.529.178-2.845.32-4.018.463-.427.712-1.138 1.531-1.885 2.314 0 0-1.884 2.029-2.418 2.598a61.699 61.699 0 0 1-2.169 2.172l-2.596 2.599c-.711.676-1.422 1.352-2.169 2.029 0 0-2.24 2.1-2.809 2.563-.64.569-1.28 1.103-1.92 1.673l-1.565 1.317a29.65 29.65 0 0 1-1.636 1.353c-.818.676-1.635 1.317-2.453 1.958l-.427.356h.071Zm-81.04 6.372c3.058 0 6.258-.107 10.063-.356v-11.214c-2.774 1.709-5.085 3.382-6.899 5.091l-.248.249a28.144 28.144 0 0 0-2.027 2.172l-.498.605c-.462.605-.854 1.21-1.209 1.815-.285.499-.427.712-.534.926-.106.249-.213.463-.284.712h1.636Zm12.623-.57c17.104-1.388 33.497-5.589 48.717-12.459v-4.592c-6.97 1.459-13.904 2.207-20.66 2.207-6.401 0-12.944-.606-19.487-1.78a107.464 107.464 0 0 0-8.57 4.094v12.53Zm196.396-2.385v-.427s-.213.107-.32.142l.32.285Zm74.213-8.935c.925.641 1.636 1.175 2.312 1.673l.782.605a29.437 29.437 0 0 1 2.418 2.136l.32.32a30.7 30.7 0 0 1 1.707 1.923c.213.285.427.534.64.819.142.178.284.356.391.534l.498-268.626-.071.106-.249.107.107.071-.249.356c-2.525 3.382-6.508 6.657-11.806 9.754l-.462 247.944 2.702 1.53h-.213s.213.178.32.25l.071.142.071-.107.676.463h.035Zm-285.437 7.547.32-.427c2.667-3.56 6.579-6.835 11.948-9.932l.462-247.944-2.667-1.495h.178c-.498-.356-.96-.676-.96-.676l-.356-.25c-.533-.39-1.066-.747-1.6-1.139l-.889-.676c-.604-.498-1.173-.961-1.742-1.46l-.676-.569a26.02 26.02 0 0 1-3.556-4.023l-.498 268.626.036-.035Zm187.648-22.926c6.436 8.152 13.513 15.593 21.051 22.143.889-.392 1.743-.784 2.525-1.211v-11.427c-3.414-2.314-6.863-4.912-10.277-7.654-3.52-.533-7.076-1.067-10.845-1.566l-2.489-.32.035.035Zm-112.937 13.279c.498 1.958 2.667 4.236 6.009 6.301.818-.641 1.529-1.175 2.205-1.709.96-.783 1.92-1.567 2.845-2.35.889-.747 1.636-1.352 2.347-1.993.96-.819 1.884-1.673 2.809-2.492.924-.854 1.6-1.46 2.24-2.065.889-.854 1.743-1.709 2.632-2.563.106-.107 1.671-1.637 2.24-2.243.818-.818 1.6-1.673 2.418-2.527l1.031-1.139a289.99 289.99 0 0 0-7.076 1.032c-.96.143-1.956.32-2.987.498l-.142.214-2.241 1.673c-1.28.926-2.382 1.745-3.52 2.528l-2.027 1.388-3.414 2.243c-.711.427-1.387.89-2.098 1.317a60.789 60.789 0 0 1-3.271 1.922v-.035Zm139.109 6.229c2.596-1.637 4.303-3.382 5.05-5.126a237.508 237.508 0 0 1-5.05-3.133v8.259Zm155.218-1.637v-46.599l-41.961-13.278v39.977l41.961 19.9Zm-443.571 0 41.96-19.9v-39.977l-41.96 13.278v46.599Zm290.024-14.845c.676.321 1.352.605 2.063.89l.924.392c1.672.712 3.343 1.424 5.05 2.065 1.031.391 2.062.747 3.094 1.067 1.884.641 3.555 1.175 5.227 1.674 1.138.32 2.276.64 3.449.925 1.707.427 3.414.819 5.156 1.175 1.387.285 2.418.498 3.45.676 1.813.321 3.662.57 5.511.783l.854.107c.782.107 1.564.214 2.347.285 2.204.214 4.302.32 6.365.392l1.067.071c.462 0 .924.071 1.386.071h2.027c2.063 0 4.161-.036 6.223-.142v-3.418l-1.707-.712-4.16-1.566-4.338-1.46-4.552-1.424-4.729-1.352-2.063-.57-2.845-.712-5.156-1.21-5.44-1.175-2.205-.463-2.276-.427h-.036l-.817-.142c-4.801 1.958-9.637 3.203-14.509 3.702h.178l.356.213v.178l.177.143-.071-.036Zm56.754 10.288c1.351-.107 2.631-.213 3.84-.32-.107-.071-2.24-1.068-2.24-1.068l-1.6-.748v2.136Zm-206.104-.285c2.098-.996 4.303-2.136 6.685-3.417.071-.783.569-1.744 1.387-2.777a94.937 94.937 0 0 1-8.037 2.243v3.916l-.035.035Zm207.739-3.987 3.841 1.816 1.458.783.462-245.095c-2.098 1.103-4.445 2.207-6.934 3.275l-.427 238.509 1.636.712h-.036Zm23.15 2.421 25.851-12.281-25.816-12.282v24.563h-.035Zm-300.017-.214v-24.171l-25.39 12.104 25.39 12.067Zm17.851-.142a91.515 91.515 0 0 1 6.934-3.275l.427-238.51-1.458-.605-3.841-1.815c-.213-.107-1.031-.534-1.635-.855l-.463 245.096.036-.036Zm202.228-1.958a79.6 79.6 0 0 1 1.706 1.068c-.817-1.637-2.489-3.275-4.942-4.877v1.744a910.54 910.54 0 0 0 3.236 2.065Zm-188.893-.961c4.907.676 9.85 1.032 14.65 1.032 7.006 0 13.975-.747 20.732-2.171v-8.295c-13.62 2.564-25.497 5.767-35.382 9.434Zm231.884-4.414 2.667.89 3.236 1.175 3.698 1.423.427-236.338c-4.552 1.816-9.708 3.525-15.326 5.127-2.454.711-4.694 1.281-7.005 1.886l-.783.214c-2.133.534-4.374 1.032-6.649 1.53l-1.281.285c-1.28.285-2.631.534-3.947.819l-4.231.819-.391 214.872 2.382.463.107.107v-.072l7.325 1.531 3.663.855 6.045 1.53 6.116 1.745.107.106v-.071l3.84 1.175v-.071Zm-235.689 2.99c9.53-3.809 21.3-7.12 34.991-9.825l4.231-.819.391-214.872-3.271-.64-5.761-1.211-5.761-1.353-5.156-1.317-5.12-1.46-4.907-1.53-4.659-1.602-4.516-1.71-.427 236.339h-.035Zm57.215-2.563c-1.422.819-2.667 1.638-3.662 2.492 1.458-.89 2.916-1.78 4.338-2.706-.249.072-.462.143-.676.214Zm-15.433 2.278a92.14 92.14 0 0 0 14.58-4.841l.533-.249c1.494-.712 2.738-1.353 3.876-1.923l1.707-.961c-.462-.178-2.24-.89-2.24-.89-1.174-.534-2.347-1.068-3.485-1.744-2.525.427-5.263.854-7.965 1.281l-.996.143h-.036l-.426.071c-1.885.32-3.698.641-5.512.961v8.152h-.036Zm145.084-1.139v-1.139c-.818-.214-1.672-.427-2.561-.641.392.285 1.921 1.353 2.561 1.816v-.036Zm-10.241-10.644c2.026 1.389 4.196 2.741 6.116 3.952l1.244.712c.392.213 1.743.89 1.743.89l.498-.072h.64v-4.236l-2.098-.285-6.365-.783-1.778-.178Zm12.837 5.34c3.342-.32 6.756-1.032 10.205-2.136l-2.88-.498-5.832-.89-1.529-.214v3.702l.036.036Zm-108.884-3.311c-2.134.392-4.16.855-6.116 1.317.604 0 1.173-.071 1.778-.106l.96-.107a25.354 25.354 0 0 0 3.022-.605l.356-.499Zm80.578.499c.96 0 1.956.106 2.596.213l1.031.143c-.64-.356-1.28-.712-1.884-1.068l-1.103-.143-1.564-.249c.284.392.569.783.889 1.175h.035v-.071Zm-98.073-1.282c.818.321 1.6.57 2.418.819.462-.392 1.031-.783 1.6-1.175l1.6-1.068c-2.098.214-4.196.463-6.258.712l-.818.107 1.458.605Zm84.489-.035 2.987.213c2.525.214 4.872.427 6.934.605l-.889-1.246a224.125 224.125 0 0 0-15.824-1.744l.605 1.744 6.187.392v.036Zm-201.943.818 27.061-12.851.071-35.278-27.132 8.579v39.55Zm354.459 0v-39.55l-27.346-8.65-.071 35.207 27.417 12.993Zm-200.343-2.634a174.04 174.04 0 0 0-9.317 1.032c-.427.392-1.209.962-2.027 1.424 1.138-.106 3.947-.356 3.947-.356 2.312-.213 4.339-.32 6.65-.462l.711-1.638h.036Zm103.798 1.851.391-213.947c-1.706.32-3.413.606-5.191.89l-2.49.392c-1.671.25-3.378.498-5.085.747l-1.28.178-.391 209.462 2.347.32 8.214 1.317 3.485.606v.035Zm-161.761-.32h.072c1.671-.321 3.378-.605 5.085-.89l.711-.107 6.4-.961 1.778-.249.392-209.462-1.209-.178-.143-.106v.106l-6.863-1.068-5.44-.925-.071-.071h-.32l-.392 213.911Zm60.132-.036 6.294-.32 2.382-.071v-1.852c-2.667.107-5.298.285-7.929.499l-.747 1.744Zm31.328-.391c1.778.035 3.591.106 5.369.213l-.604-1.78-4.054-.213c-.249.712-.462 1.317-.711 1.815v-.035Zm-49.997-1.958c-2.134.142-4.267.284-6.365.462a13.28 13.28 0 0 1-1.423 1.424 139.5 139.5 0 0 1 7.681-1.53l.071-.143.214-.285h-.178v.072Zm29.941 1.886h2.596l2.809-.071.107-1.922c-1.849 0-3.663.071-5.512.142v1.851Zm51.099-.89c1.458.25 2.987.534 4.516.89l-1.6-1.495h-.782c-.782 0-1.707-.071-2.631-.142l-.961-.071c.214.106 1.458.818 1.458.818Zm-36.555.855a19.681 19.681 0 0 1-.676-1.923c-1.671 0-3.307-.035-4.978-.035h-.782l-.107 1.922h6.579l-.036.036Zm1.92-1.851c.32.996.605 1.495.747 1.708.178-.249.462-.747.818-1.673-.498 0-1.138 0-1.565-.035Zm52.7-.463 4.551.569.391-208.749-5.725.712-7.04.748-1.565.142-1.565 1.104-.569.462a94.616 94.616 0 0 0-4.018 3.418l-.284.249c-2.81 2.706-4.836 4.628-6.686 6.514-1.315 1.353-2.667 2.848-4.16 4.557l-2.276 2.741-1.6 2.029c-3.663 4.735-7.894 11.392-10.632 16.02-1.316 2.278-2.916 5.375-4.694 9.22l-1.494 3.524-.142 105.87.213.356c.534 1.281 1.032 2.42 1.565 3.595l.284.57c1.032 2.242 2.17 4.485 3.379 6.763 2.098 3.881 5.476 9.114 10.276 15.984a115.177 115.177 0 0 0 7.681 9.256 416.764 416.764 0 0 0 4.054 4.236l1.422 1.388c.996.961 1.992 1.851 3.023 2.777a174.1 174.1 0 0 0 5.867 4.913l.143-.107 9.53 1.068.071.071Zm-123.926.32a479.297 479.297 0 0 1 14.153-1.602l.533-.071 1.707-1.531a136.455 136.455 0 0 0 5.263-4.521c3.378-3.275 5.832-5.66 8.357-8.472.533-.605.96-1.104 1.422-1.602l.925-1.104c.64-.783 1.351-1.637 2.062-2.527l1.031-1.282c3.734-4.805 7.895-11.32 10.526-15.841l.178-.107h-.107l.213-.427c1.85-3.275 3.556-6.728 5.121-10.217l.925-2.242.142-105.941-.142-.214c-1.423-3.061-4.801-10.181-8.072-15.877l-.641-1.068v-.142l-.071.035-.213-.356c-1.387-2.207-3.236-4.877-4.872-7.226l-1.387-2.029v-.107h-.035l-.249-.356a148.031 148.031 0 0 0-6.187-7.582l-1.032-1.14c-1.884-2.064-4.053-4.236-6.223-6.336a91.41 91.41 0 0 0-2.915-2.706l-.427-.391a77.984 77.984 0 0 0-2.134-1.851c-.889-.748-1.884-1.531-2.88-2.35l-1.458-.178-4.765-.498-6.507-.783-1.778-.25-.392 208.785-.071.107Zm28.306-.071.747-.107a3.72 3.72 0 0 0-.712.071v.072l-.035-.036Zm73.039-2.385a37.6 37.6 0 0 1 3.343.178l1.351.107a153.687 153.687 0 0 1-16.286-19.33c-.534-.712-.996-1.317-1.458-1.923l-.32-.427c-.64-.89-1.174-1.637-1.707-2.385-.462-.676-2.027-2.99-2.027-2.99a8.402 8.402 0 0 1-1.244.819 189.462 189.462 0 0 0 10.632 19.508c2.205 2.349 4.551 4.556 6.97 6.443h.746ZM247.14 272.15c-4.73 6.372-10.028 12.104-15.86 17.159-1.102 1.103-2.027 2.064-2.951 2.954 1.529-.142 3.058-.249 4.587-.356l1.067-.071c.569-.925 1.244-1.78 1.884-2.634l.321-.427a171.9 171.9 0 0 0 1.92-2.635 107.585 107.585 0 0 0 2.276-3.275c.604-.89 1.209-1.78 1.813-2.705.711-1.104 1.422-2.243 2.134-3.382l1.707-2.777c.391-.64.746-1.246 1.102-1.886v.035Zm4.303-2.349a110.056 110.056 0 0 1-1.956 3.453l-1.209 2.1a168.76 168.76 0 0 1-2.596 4.201l-.747 1.21c-1.138 1.78-2.311 3.489-3.52 5.233l-1.174 1.638a301.312 301.312 0 0 1-2.56 3.488l-.427.57 3.912-.249a48.31 48.31 0 0 0 1.92-1.923l.569-.569c.213-.214.427-.427.64-.677a45.253 45.253 0 0 0 2.311-2.776l.676-.819a72.426 72.426 0 0 0 2.809-4.023l.64-1.068c.676-1.103 1.352-2.207 1.992-3.417.178-.356.889-1.744.889-1.744.533-1.033 1.067-2.065 1.564-3.133.178-.392 1.067-2.385 1.494-3.382-1.351-.356-2.525-.748-3.556-1.21-.427.783-1.387 2.634-1.707 3.168l.036-.071Zm43.347 21.43c1.6.071 6.152.32 6.152.32a117.048 117.048 0 0 1-2.881-4.414c-4.836-5.268-9.245-11.783-12.979-19.294-.676.178-1.387.356-2.169.498v6.479l.462 1.744c.427 1.602.854 3.204 1.316 4.806l.533 1.851a152.312 152.312 0 0 0 1.707 5.696l.64 2.065h2.703l4.48.213.036.036Zm-40.218-13.1c-.925 1.673-1.92 3.239-2.916 4.77l-.889 1.282c-.747 1.032-1.458 2.064-2.24 3.025a39.7 39.7 0 0 1-1.138 1.389 53.835 53.835 0 0 1-2.276 2.527l-.107.107 4.801-.214a226.475 226.475 0 0 0 5.085-13.527c-.036.071-.356.641-.356.641h.036Zm4.196-3.987a269.454 269.454 0 0 1-6.116 16.767l6.08-.178v-16.625l.036.036Zm26.065 16.731-.249-.748a254.717 254.717 0 0 1-1.671-5.588v6.3l1.92.036Zm-4.552-.107v-15.877c-.32-1.281-.711-2.741-1.066-4.236l-.391-1.637c-1.352.142-2.81.249-4.445.32.675 9.398 1.493 16.589 2.418 21.395l3.449.071.035-.036Zm-18.953-.071c1.138 0 4.232-.036 5.725-.071.356-6.871.676-14.026.996-21.324-2.311-.106-4.587-.284-6.65-.605v21.964l-.071.036Zm12.944-.036c-.96-4.877-1.778-12.032-2.454-21.287h-1.173c-.285 7.262-.605 14.346-.96 21.216h4.622l-.035.071Zm263.07-6.55v-53.753l-41.96-6.622v47.133l41.96 13.278v-.036Zm-532.683 0 41.96-13.278v-47.132l-41.96 6.621v53.789Zm488.127-14.097v-46.705l-41.961-6.621v40.084l41.961 13.278v-.036Zm-443.571 0 41.96-13.278v-40.084l-41.96 6.622v46.74Zm222.425-3.204c-.177-2.776-.355-5.66-.497-8.65h-.071c-.107 2.919-.214 5.767-.321 8.65h.925-.036Zm-10.276-.676c2.062.32 4.338.534 6.756.641l.32-8.579a80.397 80.397 0 0 0-5.12.356c-.641 2.42-1.281 4.805-1.992 7.191v.391h.036Zm12.339-7.938c.178 3.026.32 5.838.498 8.508 1.422-.072 2.773-.178 4.018-.285l-.569-2.492s-.889-4.165-1.173-5.589a71.149 71.149 0 0 0-2.81-.178l.036.036Zm9.245 7.511c.356-.071.676-.142 1.032-.249a60.319 60.319 0 0 1-.996-2.207v2.456h-.036Zm-28.625-1.424c.924.427 2.062.783 3.378 1.104.32-.89 1.138-3.026 1.138-3.026v-3.133c-.96.178-1.742.392-2.489.605l-.498 1.282-1.529 3.132v.036Zm26.03-.356v-5.091c-.356-.071-.747-.106-1.103-.142l1.103 5.269v-.036Zm6.649-3.453c.498 1.139.996 2.243 1.494 3.382.391-.214.711-.463.96-.677l-1.494-2.42s-.497-.143-.96-.285Zm-.924-3.026a9.551 9.551 0 0 1-.534-.997c-.284-.569-.604-1.103-.889-1.673.32.855.676 1.709 1.032 2.528.142.035.284.071.391.106v.036Zm-28.199-.641c.284-.071.604-.142.924-.178v-1.922c-.177.392-.924 2.1-.924 2.1Zm22.225-.64a143.01 143.01 0 0 1-3.023-9.078c0 .036.534 3.168.534 3.168l.675 3.738.391 2.029c.463.036.925.107 1.387.178l.036-.035Zm-186.333-.214 27.132-8.579.071-35.385-27.203 4.307v39.693-.036Zm354.459 0v-39.692l-27.275-4.308-.071 35.35 27.346 8.65Zm-179.612-20.896-.462 2.598c-.356 1.78-.712 3.525-1.067 5.269l-.498 2.207c-.284 1.21-.569 2.385-.853 3.56a238.27 238.27 0 0 1-1.707 7.191 63.896 63.896 0 0 1 4.516-.285c.249-7.938.498-15.948.675-24.029-.177 1.175-.391 2.349-.569 3.524l-.035-.035Zm4.978 20.54c.818 0 1.636.071 2.418.142a313.63 313.63 0 0 1-.995-5.446l-.498-2.99-.64-3.952-.463-3.061c-.177-1.246-.355-2.492-.533-3.774.178 6.799.427 13.207.747 19.081h-.036Zm-8.605-17.764c-.64 2.029-1.28 4.059-1.992 6.052 0 0-1.386 3.773-1.635 4.485v6.373a4.28 4.28 0 0 0 .213-.606c.285-.925.533-1.851.782-2.776l.854-3.204c.924-4.165 1.778-8.401 2.489-12.673-.107.356-.676 2.349-.676 2.349h-.035Zm-3.556-1.068c.071-.213.142-.391.213-.605l1.031-2.954a690.81 690.81 0 0 0 2.596-8.758c.32-1.174.605-2.42.889-3.631 0 0 .463-1.993.605-2.598.32-1.46.569-2.955.853-4.45l.214-1.246c.284-1.887.569-4.236.995-7.44l.249-2.065c.107-1.175.214-2.385.285-3.595.249-3.453.355-6.337.355-9.078-.249-6.087-.747-14.773-1.671-21.644-.142-.819-.498-2.848-.498-2.848l-.427-2.278c-.604-2.884-1.422-6.23-2.524-10.288a205.688 205.688 0 0 0-2.987-9.149l-.178 92.627Zm13.335-72.087s-.356 1.887-.463 2.635l-.355 2.492c-.747 6.301-1.387 14.203-1.671 20.54.248 6.372.782 13.883 1.422 19.544l.249 1.815c.391 2.528.853 5.055 1.387 7.547.106.427.498 2.136.498 2.136.426 1.78.817 3.524 1.315 5.268.178.712.391 1.424.605 2.101l.391 1.317c.355 1.21.711 2.385 1.138 3.631l.142.427c.356 1.032.64 1.744.925 2.492v.107l.213-92.877c-.107.214-.178.463-.285.677a183.395 183.395 0 0 0-1.778 5.268l-.248.783a124.122 124.122 0 0 0-1.565 5.554l-.249 1.032c-.178.677-.284 1.139-.391 1.602l-.178.855a126.384 126.384 0 0 0-1.067 5.019l-.106.107h.071v-.072Zm262.572 63.045v-53.825h-41.96v47.204l41.96 6.621Zm-532.683 0 41.96-6.621v-47.204H4.66v53.825Zm488.127-7.048v-46.777h-41.961v40.156l41.961 6.621Zm-443.571 0 41.96-6.621v-40.156h-41.96v46.777Zm44.556-7.049 27.203-4.307.071-35.456H93.771v39.763Zm354.459 0v-39.728h-27.203l-.072 35.421 27.275 4.307Zm89.112-42.326v-53.825l-41.96 6.621V171.3h41.96Zm-44.556 0v-46.777l-41.961 6.622V171.3h41.961Zm-44.556 0v-39.728l-27.132 4.272-.071 35.456h27.203Zm-327.185 0 .072-35.421-27.346-4.307V171.3h27.274Zm-29.87 0v-40.155l-41.96-6.622V171.3h41.96Zm-44.556 0v-47.204l-41.96-6.621V171.3h41.96Zm226.835-46.243c-.249 7.939-.498 15.984-.676 24.029.178-1.174.392-2.349.569-3.488.143-.89.32-1.78.498-2.67.32-1.744.676-3.453 1.031-5.162l.498-2.314c.249-1.103.534-2.207.818-3.275.569-2.599 1.174-5.019 1.778-7.404-1.458.142-2.951.213-4.516.284Zm7.005 1.389c-.284.961-.533 1.922-.818 2.883a101.05 101.05 0 0 0-.817 3.133 243.535 243.535 0 0 0-2.49 12.709l.676-2.386 2.027-6.087 1.636-4.45v-6.372c-.107.214-.143.392-.178.534l-.036.036Zm-13.477 3.88.498 2.99c.213 1.317.427 2.635.64 3.987l.462 3.062c.178 1.246.356 2.527.534 3.773a864.678 864.678 0 0 0-.711-19.081c-.818 0-1.636-.071-2.418-.142.248 1.282.817 4.379.995 5.447v-.036Zm-5.049-5.838a142.348 142.348 0 0 1 3.022 9.077c0-.106-.533-3.025-.533-3.025l-.747-4.059-.355-1.851c-.463-.071-.925-.107-1.387-.178v.036Zm-140.816 8.757.071-35.314-27.417-8.65v39.692l27.346 4.308v-.036Zm299.981-.036 27.132-4.271V89.245l-27.061 8.544-.071 35.42Zm29.727-4.699 41.961-6.621V75.184l-41.961 13.278v40.084-.036Zm-359.65 0V88.427l-41.96-13.279v46.706l41.96 6.621v.035Zm165.317-4.307c.285.57.605 1.139.889 1.709-.32-.855-.676-1.709-1.031-2.563-.142-.036-.285-.072-.391-.107.213.356.426.747.533.997v-.036Zm26.705 1.709.925-2.065a7.221 7.221 0 0 1-.925.178v1.887Zm-12.232-3.418.32-8.65h-.925c.178 2.777.356 5.66.498 8.65h.107Zm2.596-.035a80.397 80.397 0 0 0 5.12-.356c.64-2.421 1.28-4.806 1.992-7.191v-.356c-2.098-.321-4.374-.534-6.792-.641-.107 2.848-.214 5.696-.32 8.579v-.035Zm-8.072-.178c.924.071 1.849.142 2.809.178-.178-3.026-.32-5.838-.498-8.508-1.422.071-2.774.178-4.018.284l.569 2.457 1.173 5.589h-.035Zm-2.738-.321-1.103-5.268v5.126c.356.071.747.107 1.103.142Zm232.631-.498 41.96-6.621V61.087l-41.96 13.278v47.133-.036Zm-448.763 0V74.33L4.66 61.05v53.754l41.96 6.621v.036Zm236.543-3.204v3.133a22.64 22.64 0 0 0 2.453-.605l.249-.819 1.778-3.631a22.158 22.158 0 0 0-3.378-1.104c-.355.961-1.138 2.99-1.138 2.99l.036.036Zm-29.088 1.602s.498.142.96.285c-.498-1.139-.996-2.243-1.493-3.382a5.581 5.581 0 0 0-.96.676l1.493 2.421Zm4.978-2.456v-2.457a54.07 54.07 0 0 0-.995.214c.355.712.675 1.46.995 2.207v.036Zm-29.621-29.191c6.01 6.016 11.522 12.602 16.429 19.508.462.605.924 1.21 1.387 1.851.675.926 1.315 1.78 1.92 2.67.498.676 2.027 3.026 2.027 3.026a7.17 7.17 0 0 1 1.28-.819 185.61 185.61 0 0 0-10.632-19.472c-2.205-2.385-4.588-4.593-7.006-6.48h-1.778l-3.627-.284Zm55.864 24.599c1.352.356 2.525.747 3.556 1.21l1.672-3.133c.533-.961 1.066-1.922 1.6-2.848l.853-1.53.676-1.175 1.493-2.456 1.849-2.955a133.417 133.417 0 0 1 2.49-3.702l1.031-1.495 1.387-1.958c.675-.926 1.351-1.887 2.027-2.813h.142l-.071-.106.675-.89-4.018.249c-.533.64-1.138 1.246-1.742 1.887l-1.28 1.281a41.746 41.746 0 0 0-2.205 2.67l-.747.925a72.267 72.267 0 0 0-2.809 4.023l-.747 1.246c-.64 1.032-1.28 2.1-1.885 3.204-.213.391-.96 1.922-.995 1.922-.605 1.139-1.067 2.029-1.494 2.99-.249.499-.995 2.243-.995 2.243l-.498 1.175.035.036Zm-44.236-23.745c.996 1.46 1.956 2.955 2.916 4.45 4.836 5.269 9.21 11.783 12.944 19.259a27.948 27.948 0 0 1 2.169-.498v-6.515l-.427-1.637a314.548 314.548 0 0 0-3.591-12.567l-.605-1.922-3.414-.107-9.956-.498-.036.035Zm32.893 22.249c2.382.107 4.623.285 6.65.57V89.922h-.605c-1.707 0-3.414 0-5.049.035-.356 6.906-.676 14.026-.996 21.324v.035Zm-12.268-5.553c.355 1.282.711 2.741 1.102 4.236l.391 1.673a76.802 76.802 0 0 1 4.445-.32c-.675-9.398-1.493-16.589-2.418-21.395l-3.449-.07v15.876h-.071Zm9.708 5.482c.284-7.297.604-14.382.995-21.288h-4.623c.961 4.877 1.778 12.033 2.454 21.253h1.209l-.035.035Zm36.662-22.462c-.605.96-1.245 1.815-1.885 2.634l-.249.32a81.044 81.044 0 0 0-2.062 2.813c-.712.996-1.423 2.029-2.134 3.061-.64.961-1.316 1.922-1.956 2.883a261.81 261.81 0 0 0-2.027 3.169c-.604.996-1.244 1.993-1.813 2.99l-1.067 1.816c5.156-6.978 11.023-13.207 17.46-18.547a73.576 73.576 0 0 1 1.351-1.068l.569-.534-6.187.463Zm-24.821 17.692a252.933 252.933 0 0 1 6.116-16.767l-6.116.178v16.625-.036Zm8.961-16.874a256.309 256.309 0 0 0-5.121 13.599c0-.036.392-.712.392-.712.924-1.673 1.92-3.24 2.915-4.735.214-.284.925-1.317.925-1.317a48.868 48.868 0 0 1 2.205-2.954c.391-.463.746-.926 1.138-1.389a38.53 38.53 0 0 1 2.275-2.492l.143-.142-4.836.213-.036-.07Zm-34.777.926a253.819 253.819 0 0 1 1.671 5.589v-6.301h-.249l-.107-.071v.07h-1.564l.249.713ZM121.188 95.19l.071-35.171L93.771 46.99v39.55l27.417 8.686v-.036Zm299.981-.106 27.061-8.544V46.99l-26.99 12.815-.071 35.314v-.035Zm-114.645-8.865h.392v-.07c-.143 0-.285.035-.427.07h.035Zm-39.72-.249c1.672 0 3.307.036 4.979.036h.782l.107-1.922h-6.543c.213.534.462 1.174.675 1.922v-.036Zm8.357.036c1.849 0 3.663-.071 5.512-.142v-1.887c-1.814.035-3.699.071-5.405.071l-.107 1.922v.036Zm35.56-.356-.249.32h.213c2.311-.178 4.623-.32 6.934-.534.391-.463.96-.997 1.565-1.566a184.87 184.87 0 0 1-8.428 1.709v.107l-.035-.036Zm-46.512.285c-.321-.997-.605-1.496-.747-1.745-.178.25-.463.748-.818 1.71h1.6l-.035.035Zm19.059-.143c2.667-.106 5.299-.285 7.93-.498l.747-1.744c-1.778.106-3.805.178-6.258.284l-2.419.072v1.886Zm-23.362-.035a19.76 19.76 0 0 1 .747-1.851c-1.956-.072-3.841-.143-5.406-.178l.605 1.815 4.054.214Zm-28.875 0c-.177-.107-1.422-.784-1.422-.784a77.556 77.556 0 0 1-4.516-.89l1.6 1.496.64-.143s2.454.214 3.698.32Zm219.794-.072 41.961-13.278V25.844l-41.961 19.9v39.977-.035Zm-359.65 0V45.709l-41.96-19.9v46.6l41.96 13.278Zm146.293-1.744c5.583.57 10.774 1.104 15.575 1.46l-.569-1.745c-8.108-.534-11.13-.747-15.966-1.246h-.143c.356.499.747.997 1.103 1.531Zm56.646 1.104c3.485-.32 6.543-.641 9.317-1.033.427-.391 1.209-.96 2.062-1.46-3.556.321-6.152.535-8.961.713l-1.671.107-.747 1.637v.036Zm31.044-.427c2.027-.214 4.018-.463 6.045-.677l1.031-.107-1.458-.64a55.86 55.86 0 0 0-2.24-.784c-.569.392-3.343 2.208-3.343 2.208h-.035Zm-112.582-.712 4.729.533c-.604-.427-1.173-.783-1.671-1.139a102.447 102.447 0 0 0-3.023-1.922 105.273 105.273 0 0 0-2.666-1.566l-1.672-.926-.462.071h-.782v4.237l5.582.712h-.035Zm119.48-2.955c.32.107.676.25 1.032.392 1.031.427 2.062.996 3.093 1.53 0 0 .854.392 1.067.534 1.458-.356 3.271-.64 5.121-.925l3.804-.606c2.027-.32 3.983-.676 5.903-1.032v-8.188c-4.942 1.21-9.814 2.813-14.437 4.806l-.391.178c-1.209.57-2.205 1.033-3.058 1.495-.96.499-1.885 1.033-2.809 1.531l.711.25-.036.035Zm-103.123.64c.605.321 1.209.677 1.849 1.033l.747.107 2.098.356c-.32-.463-.675-.89-1.031-1.353h-2.489c-.285-.035-.676-.071-1.209-.142h.035Zm-32.608 0 6.152.962 1.92.285v-3.703c-3.342.32-6.756 1.033-10.205 2.136l2.169.356-.036-.035Zm123.108-.498c-.64 0-1.316.072-1.956.143l-.96.106c-1.031.143-1.92.356-2.845.57l-.356.498c2.134-.427 4.196-.854 6.152-1.317h-.035Zm-65.11 0c3.911.178 10.383.392 14.473.392h4.054a1249.48 1249.48 0 0 1 2.382-33.748c-1.529 0-3.058-.035-4.587-.035-10.384 0-20.411.605-29.835 1.78l.569 1.103c.498.997 1.031 1.994 1.529 3.026l1.032 2.136c.497 1.032.995 2.1 1.493 3.169l.996 2.207a415.318 415.318 0 0 1 1.742 3.987l.64 1.53c.498 1.175 2.312 5.732 2.312 5.732.497 1.246.96 2.527 1.422 3.773l.782 2.1c.249.677.711 2.03.996 2.813v.035Zm23.469-33.284a1253.256 1253.256 0 0 0-2.382 33.676c1.707 0 3.485 0 5.263-.071l.071-33.498c-.996 0-1.956-.072-2.952-.072v-.035Zm5.476 33.534c.783 0 1.565-.036 2.241-.072l7.61-.356c4.978-11 10.596-21.11 16.641-30.045-8.143-1.424-17.033-2.385-26.456-2.812l-.071 33.32.035-.035Zm-48.965-1.674c.996 0 2.098.107 3.094.214 4.302.427 7.538.64 14.117 1.032l-.463-1.317s-1.706-4.628-2.133-5.767l-.925-2.314c-.426-1.103-.889-2.207-1.315-3.275l-.96-2.314c-.463-1.068-.925-2.1-1.387-3.168l-.996-2.207c-.462-1.068-.96-2.065-1.458-3.097l-.996-2.03c-.533-1.067-1.066-2.1-1.6-3.132l-.924-1.815-.356-.641c-10.206 1.424-19.095 3.524-25.816 6.052a169.317 169.317 0 0 1 22.047 23.78h.071Zm78.267-28.336c-6.046 8.757-11.593 18.618-16.536 29.369 3.876-.25 7.219-.534 13.193-1.14.925-.106 2.169-.249 3.663-.427v-.106l4.125-4.521 1.351-1.389 3.414-3.417s2.631-2.492 3.236-3.026l1.991-1.816 1.387-1.21c.711-.64 3.733-3.168 3.733-3.168l2.916-2.314c-5.405-2.741-13.157-5.09-22.438-6.87l-.035.035Zm42.102 29.048c13.762-2.598 25.603-5.767 35.418-9.433a107.91 107.91 0 0 0-14.686-1.033c-7.006 0-13.975.748-20.696 2.172v8.294h-.036Zm-204.574-10.68 4.231 1.603 4.481 1.53 4.694 1.46 4.942 1.388L173.567 77l5.369 1.246 5.619 1.21 4.694.89c4.409-1.957 9.245-3.239 14.188-3.773l-2.027-.89v-.213c-.995-.463-3.414-1.531-3.805-1.673-1.387-.57-2.773-1.068-4.16-1.602a47.183 47.183 0 0 0-2.063-.712 146.58 146.58 0 0 0-4.231-1.353c-.498-.142-2.276-.64-2.276-.64-1.209-.321-2.169-.606-3.165-.82-.675-.178-1.387-.32-2.062-.462l-.463-.107a88.242 88.242 0 0 0-2.987-.605c-.889-.178-1.778-.32-2.631-.463a86.574 86.574 0 0 0-2.987-.463c-.889-.107-1.778-.25-2.703-.356a92.28 92.28 0 0 0-3.093-.285c-1.138-.106-1.92-.178-2.667-.213-1.031-.071-2.098-.107-3.129-.143-.178 0-2.063-.07-2.667-.07h-5.832l-1.6.106h-.178v3.417l1.493.606-.106.07Zm67.35 7.512c1.884.32 3.627.605 5.227.854 2.809.428 5.938.855 7.538 1.033h.427c-6.436-8.081-13.548-15.557-21.051-22.142-.889.391-1.743.783-2.525 1.21v11.427c3.414 2.35 6.899 4.913 10.277 7.654l.142-.072-.035.036Zm117.88-15.948c-.996.783-1.956 1.602-2.916 2.385a111.34 111.34 0 0 0-2.311 1.958c-.961.819-1.885 1.673-2.845 2.527 0 0-1.6 1.46-2.205 2.03-.924.89-1.849 1.78-2.774 2.705l-2.56 2.563c-.747.783-1.493 1.566-2.24 2.385l-.747.819c1.102-.142 2.276-.32 3.414-.463l4.054-.64 3.662-.641c.64-.57 2.134-1.638 2.134-1.638 1.209-.854 2.453-1.744 3.698-2.563a46.465 46.465 0 0 1 2.205-1.424 128.62 128.62 0 0 1 3.662-2.278c.747-.463 1.458-.89 2.205-1.317.605-.356 1.174-.677 1.778-1.033-.178-2.35-2.24-4.806-6.045-7.084-.782.605-1.458 1.14-2.169 1.709ZM208.095 75.219c-.355-.249-.746-.498-1.102-.747v.463c.356.107.747.213 1.102.284Zm132.104-2.705c-1.386.854-2.809 1.709-4.16 2.599l.391-.107c1.458-.819 2.738-1.638 3.769-2.492Zm-139.962-2.278c.924 1.21 2.347 2.42 4.16 3.595V72.8c-1.173-.748-2.311-1.495-3.52-2.207-.178-.107-.391-.25-.64-.392v.036Zm151.875-4.094c-2.205 1.032-4.445 2.207-6.685 3.417-.071.748-.534 1.71-1.316 2.706a90.717 90.717 0 0 1 8.001-2.243v-3.88Zm143.27 5.482 41.96-13.278V4.699l-41.96 19.9v47.025Zm-448.763 0V24.6L4.66 4.699v53.647l41.96 13.278Zm109.417-8.721c1.458 0 2.952.035 4.409.106l1.636.107c1.28.071 2.561.178 3.841.285l1.813.213 3.627.428 1.6.249c1.458.213 2.596.427 3.734.64l1.92.392c1.138.25 2.241.499 3.379.748.64.142 1.28.32 1.92.463 1.102.284 2.205.57 3.307.89l1.885.57c1.102.355 2.169.711 3.271 1.067l1.849.64c1.102.392 2.205.82 3.307 1.247l.142.07c-.64-.996-1.066-1.993-1.244-3.025l-1.423-.819-1.991-1.068a171.738 171.738 0 0 0-4.445-2.207l-1.529-.747a156.041 156.041 0 0 0-6.081-2.67l-1.173-.463a144.59 144.59 0 0 0-5.014-1.922l-2.098-.712c-1.422-.499-2.88-.961-4.303-1.389l-2.24-.676c-1.529-.427-3.058-.854-4.587-1.246l-1.92-.498c-2.17-.534-4.339-.997-6.543-1.424l-.854-.143a123 123 0 0 0-3.556-.605V63.01c1.672-.07 3.343-.142 5.014-.142h2.418l-.071.036Zm198.636 6.514c6.757-1.424 13.762-2.136 20.803-2.136 6.471 0 13.05.605 19.593 1.816 3.023-1.389 5.867-2.813 8.321-4.165V52.365c-16.998 1.389-33.391 5.59-48.681 12.531v4.521h-.036Zm-210.228-2.171 1.564.712v-2.136c-.462 0-1.138.07-1.458.07 0 0-1.315.143-2.418.25l2.312 1.104Zm54.904-2.457a239.063 239.063 0 0 1 5.049 3.133v-8.259c-2.596 1.638-4.303 3.382-5.049 5.126Zm140.354-6.87c3.52 2.314 5.618 4.806 6.258 7.44l1.743-.961c1.457-.748 2.915-1.495 4.409-2.172V49.59l-.142.07c-1.067.642-2.134 1.318-3.201 1.959-.853.534-1.671 1.103-2.524 1.637a155.298 155.298 0 0 0-3.094 2.1c-.818.57-1.636 1.175-2.454 1.745l-1.031.747.036.072Zm-208.131 1.673a6.5 6.5 0 0 0 .782.57s1.529 1.139 1.849 1.352l.569.427c.285.214 1.529.962 1.529.962l.569.355c.463.285.889.57 1.387.855 2.312-.498 4.907-.712 6.899-.855l.782-.07V51.012l-1.849-.25a182.013 182.013 0 0 0-4.623-.57l-2.418-.213c-1.564-.142-3.165-.249-4.729-.356l-2.169-.142c-1.992-.071-3.983-.142-6.01-.142v.533l.533 1.389c.107.285.214.57.321.819.248.462.355.676.497.854l.498.783c.178.285.32.534.498.783.285.356.462.57.676.819l.64.748c.249.32.462.57.711.854.32.32.569.534.818.748l.853.747c.32.285.569.534.889.783v.071h.036l.32.285.142.036Zm17.069-14.097c17.104 3.24 33.39 9.291 48.467 17.942 1.174-2.457 3.628-4.735 7.326-6.835v-3.916c-17.069-13.67-36.342-22.926-55.758-26.841v19.65h-.035Zm257.345 17.977c2.773-1.709 5.12-3.417 6.898-5.055l.285-.25a28.357 28.357 0 0 0 2.027-2.17l.498-.606c.462-.605.817-1.21 1.173-1.815.213-.356.391-.712.391-.712s.32-.712.427-.89h-1.707c-3.307 0-6.685.107-9.957.32v11.25l-.035-.072Zm-51.277-2.492c1.742-.783 3.485-1.53 5.227-2.278a107.9 107.9 0 0 1 2.276-.89 185.457 185.457 0 0 1 4.054-1.53c.853-.321 1.742-.606 2.631-.926 1.28-.428 2.596-.855 3.876-1.246.96-.285 1.849-.57 2.738-.82 1.351-.39 2.667-.747 4.018-1.103 0 0 2.027-.534 2.596-.676 1.778-.427 3.592-.819 5.37-1.175a66.271 66.271 0 0 1 2.596-.498c1.742-.32 3.484-.605 5.227-.89.676-.107 2.809-.392 2.809-.392a142.93 142.93 0 0 1 4.089-.498l1.174-.107V30.828c-1.6.25-3.2.499-4.836.819l-1.743.356c-1.529.32-3.022.605-4.48.961l-2.987.748c-1.102.284-2.205.57-3.307.89l-1.529.463-2.205.712c-1.031.32-2.027.64-3.058.996h-.178v.036l-2.88 1.068c-1.316.498-2.489.925-3.627 1.388-.711.285-1.387.57-2.063.89l-.569.25c-1.173.498-2.347.996-3.485 1.53-.711.32-1.386.64-2.062.997l-.569.285c-1.067.534-2.134 1.032-3.236 1.602h-.142v.07s-1.849.962-2.56 1.389c-1.103.605-2.098 1.14-3.094 1.709l-.107 12.993h.036Zm-40.503-11.96c9.673 1.921 17.638 4.484 23.079 7.44.782-.57 3.52-2.564 4.196-3.062l1.315-.926c.391-.25 1.885-1.246 1.885-1.246.96-.64 1.707-1.139 2.489-1.637l.925-.605c.711-.463 1.138-.712 1.564-.962l2.454-1.495.071-31.469c-13.264 6.052-26.385 17.8-37.978 33.961Zm-107.176 6.229s.213-.107.355-.143l-.32-.284v.462l-.035-.035Zm0-3.81c.995.82 1.991 1.674 2.987 2.493 6.792-2.741 16.001-4.984 26.74-6.55l-.924-1.674a136.241 136.241 0 0 0-2.631-4.485l-.818-1.317-1.921-2.99-1.102-1.602c-.569-.82-1.138-1.673-1.707-2.457l-.995-1.352c-.747-.997-1.316-1.745-1.85-2.457-.426-.534-.817-1.032-1.244-1.566-.569-.676-1.103-1.353-1.671-1.994a53.377 53.377 0 0 0-1.281-1.459 43.077 43.077 0 0 0-1.706-1.816c-.427-.462-.854-.89-1.316-1.352a75.55 75.55 0 0 0-1.743-1.673l-1.28-1.21c-.604-.535-1.244-1.069-1.884-1.603l-1.209-.996a88.372 88.372 0 0 0-2.241-1.638l-.889-.64c-.426-.286-.818-.535-1.244-.82l-.071 39.016v.143Zm-58.389-2.633a94.62 94.62 0 0 1 3.164.57l1.992.355c2.24.427 4.516.926 6.721 1.46l1.244.32c1.814.463 3.592.925 5.37 1.46l2.062.64a154.606 154.606 0 0 0-20.553-5.482v.677Zm3.378-24.848c18.455 4.165 36.093 12.744 52.45 25.453l.071-37.77c-2.631.356-5.191.747-7.716 1.139-17.318 2.777-32.786 6.657-44.77 11.178h-.035ZM283.34 45.424c9.885.462 19.557 1.53 28.092 3.097 11.45-16.269 24.5-28.301 37.764-34.887l-2.525-.427c-2.062-.32-4.125-.676-6.223-.961l-2.027-.285a408.269 408.269 0 0 0-7.716-1.032l-2.276-.285c-2.204-.25-4.445-.498-6.685-.748l-2.382-.249c-2.703-.249-5.406-.498-8.179-.712l-1.885-.142a496.34 496.34 0 0 0-7.254-.499l-2.631-.142a631.915 631.915 0 0 0-8.393-.392h-1.386c-2.098-.142-4.196-.178-6.294-.249l-.072 37.913h.072Zm-159.094 1.352c2.062 0 4.125.072 6.152.178l2.24.143c1.6.107 3.2.213 4.8.356.854.07 1.707.178 2.525.249 1.529.142 3.023.356 4.552.534l1.493.214v-.748c-7.218-1.246-14.544-2.03-21.762-2.243v1.353-.036ZM406.02 47.81a55.117 55.117 0 0 1 3.307-.214 77.246 77.246 0 0 1 2.881-.142 98.736 98.736 0 0 1 4.587-.107h1.778c0-.214 0-.392-.036-.57l-.071-.427a8.843 8.843 0 0 0-.142-.961 9.5 9.5 0 0 0-.249-.961l-.142-.392c-.107-.284-.214-.605-.356-.89-.142-.32-.284-.64-.462-.96l-.818-1.318c-.213-.356-.462-.676-.711-.997l-1.102-1.317c-.463-.498-.676-.747-.889-.961a154.426 154.426 0 0 0-1.814-1.638c-.249-.213-.462-.427-.747-.64-.249-.214-1.138-.855-1.138-.855l-1.884-1.388c-.32-.214-1.956-1.246-1.956-1.246v16.09l-.036-.106ZM216.772 16.625a66.737 66.737 0 0 1 2.276 2.207l.853.854c2.063 2.1 4.125 4.45 6.188 6.977l.889 1.14c.711.89 1.422 1.815 2.098 2.74l1.031 1.46a71.37 71.37 0 0 1 1.849 2.67l1.102 1.673c.569.89 1.174 1.78 1.743 2.706l1.102 1.815c.569.926 1.102 1.851 1.671 2.812l1.885 3.347c9.779-1.282 20.233-1.923 31.079-1.923 1.636 0 3.272 0 4.907.036 1.529-17.23 3.272-30.223 5.05-37.735h-1.494a264.268 264.268 0 0 0-7.538-.106h-1.565c-5.156 0-10.312.07-15.468.213h-.889c-5.228.214-10.135.427-15.007.712l-1.529.107c-4.942.32-9.743.712-14.472 1.14l-1.352.142c-3.876.391-7.752.818-11.557 1.317.285.178.569.391.712.498.64.427 1.28.926 1.92 1.388 0 0 1.031.784 1.351 1.033.64.534 1.316 1.068 1.956 1.637 0 0 .996.855 1.245 1.104l-.036.036Zm63.972 28.692V20.362c-.925 6.728-1.849 15.058-2.738 24.848.64 0 1.849.036 2.738.071v.036Zm73.999-.285c.712-.391 1.636-.89 1.636-.89s1.92-1.068 2.56-1.388l1.743-.89s3.769-1.851 4.338-2.1l.889-.428c.427-.213 5.298-2.278 5.298-2.278s5.939-2.278 6.366-2.42l.604-.214a34.589 34.589 0 0 1 1.778-.57l3.983-1.281.391-.107c.782-.214 1.422-.392 2.098-.57 0 0 3.414-.925 3.876-1.068l.782-.178c.605-.142 1.209-.284 1.814-.391 0 0 3.485-.784 3.84-.855l1.032-.213c.497-.107 1.031-.178 1.564-.25l1.351-.213c-.462-.214-.889-.463-1.351-.676l-1.209-.57a112.857 112.857 0 0 0-4.303-1.887l-1.422-.57c-1.636-.64-3.378-1.316-5.156-1.922l-1.494-.498c-1.6-.534-3.236-1.068-4.907-1.566l-1.849-.57a204.686 204.686 0 0 0-6.01-1.673l-1.457-.392c-1.85-.462-3.734-.925-5.69-1.388l-2.205-.498a569.036 569.036 0 0 0-6.009-1.282l-1.707-.356-1.138-.213-.071 30.4.035-.035Zm-229.928-2.171c7.041.249 14.188.96 21.229 2.171v-18.69c-7.112 3.134-12.659 6.515-16.393 9.968l-.285.285a22.634 22.634 0 0 0-1.991 2.172l-.498.605c-.462.605-.853 1.21-1.209 1.851-.213.356-.32.534-.427.748-.177.356-.32.64-.426.925v-.035Z"/></g><defs><clipPath id="a"><path fill="#fff" d="M0 0h542v472H0z"/></clipPath></defs></svg>