<svg xmlns="http://www.w3.org/2000/svg" width="24" height="24" fill="none"><path fill="#fff" d="M12 14.1c-1.125 0-2.1-.9-2.1-2.1 0-1.125.9-2.1 2.1-2.1 1.125 0 2.1.9 2.1 2.1 0 1.125-.975 2.1-2.1 2.1Z"/><path fill="#fff" fill-rule="evenodd" d="M14.55 6.9h-5.1c-.6.075-.9.15-1.125.225-.3.075-.525.225-.75.45-.178.178-.262.356-.364.571a8.718 8.718 0 0 1-.086.179l-.04.11c-.078.215-.185.508-.185 1.015v5.1c.075.6.15.9.225 1.125.075.3.225.525.45.75.178.178.356.262.571.364l.179.086.11.04c.215.078.508.185 1.015.185h5.1c.6-.075.9-.15 1.125-.225.3-.075.525-.225.75-.45.178-.178.262-.356.364-.571l.086-.179.04-.11c.078-.215.185-.508.185-1.015v-5.1c-.075-.6-.15-.9-.225-1.125-.075-.3-.225-.525-.45-.75-.178-.178-.356-.262-.571-.364a8.645 8.645 0 0 1-.179-.086 4.08 4.08 0 0 1-.11-.04c-.215-.078-.508-.185-1.015-.185ZM12 8.775A3.201 3.201 0 0 0 8.775 12c0 1.8 1.425 3.225 3.225 3.225S15.225 13.8 15.225 12 13.8 8.775 12 8.775Zm4.05-.075a.75.75 0 1 1-1.5 0 .75.75 0 0 1 1.5 0Z" clip-rule="evenodd"/><path fill="#fff" fill-rule="evenodd" d="M0 12C0 5.373 5.373 0 12 0s12 5.373 12 12-5.373 12-12 12S0 18.627 0 12Zm9.45-6.225h5.1c.675.075 1.125.15 1.5.3.45.225.75.375 1.125.75s.6.75.75 1.125c.15.375.3.825.3 1.5v5.1c-.075.675-.15 1.125-.3 1.5-.225.45-.375.75-.75 1.125s-.75.6-1.125.75c-.375.15-.825.3-1.5.3h-5.1c-.675-.075-1.125-.15-1.5-.3-.45-.225-.75-.375-1.125-.75s-.6-.75-.75-1.125c-.15-.375-.3-.825-.3-1.5v-5.1c.075-.675.15-1.125.3-1.5.225-.45.375-.75.75-1.125s.75-.6 1.125-.75c.375-.15.825-.3 1.5-.3Z" clip-rule="evenodd"/></svg>