<svg xmlns="http://www.w3.org/2000/svg" width="24" height="24" fill="none"><path fill="#fff" fill-rule="evenodd" d="M0 12C0 5.373 5.373 0 12 0s12 5.373 12 12-5.373 12-12 12S0 18.627 0 12Zm6.15-2.025V18H8.7V9.975H6.15ZM6 7.425c0 .825.6 1.425 1.425 1.425.825 0 1.425-.6 1.425-1.425C8.85 6.6 8.25 6 7.425 6 6.675 6 6 6.6 6 7.425ZM15.45 18h2.4v-4.95c0-2.475-1.5-3.3-2.925-3.3-1.275 0-2.175.825-2.4 1.35V9.975h-2.4V18h2.55v-4.275c0-1.125.75-1.725 1.5-1.725s1.275.375 1.275 1.65V18Z" clip-rule="evenodd"/></svg>