<svg xmlns="http://www.w3.org/2000/svg" width="24" height="24" fill="none"><path fill="#fff" d="m13.95 12-3.15-1.8v3.6l3.15-1.8Z"/><path fill="#fff" fill-rule="evenodd" d="M0 12C0 5.373 5.373 0 12 0s12 5.373 12 12-5.373 12-12 12S0 18.627 0 12Zm16.65-3.975c.525.15.9.525 1.05 1.05C18 10.05 18 12 18 12s0 1.95-.225 2.925c-.15.525-.525.9-1.05 1.05C15.75 16.2 12 16.2 12 16.2s-3.825 0-4.725-.225c-.525-.15-.9-.525-1.05-1.05C6 13.95 6 12 6 12s0-1.95.15-2.925c.15-.525.525-.9 1.05-1.05.975-.225 4.725-.225 4.725-.225s3.825 0 4.725.225Z" clip-rule="evenodd"/></svg>