<svg xmlns="http://www.w3.org/2000/svg" width="556" height="505" fill="none"><g clip-path="url(#a)"><path fill="#F1F3F4" d="m501.464 275.088-.523.353c-.523.245-.888.455-1.312.633l-.332.152c-7.01 2.926-17.528-.035-30.493-8.55-.97 3.553-2.67 6.186-5.058 7.8l-19.681 13.298c-.631.354-1.187.657-1.801.928l-.199.134-.051-.074-.049.033a19.52 19.52 0 0 1-1.239.366l-.025.017-.341.086c-.274.076-.548.153-.856.18a20.13 20.13 0 0 1-1.981.179l-.633.029a18.718 18.718 0 0 1-2.741-.248c-6.617-.997-14.743-5.14-24.178-12.237L251.503 384.808c1.346 5.103 2.273 9.8 2.722 13.951l.179 2.088c.716 9.802-1.244 16.341-5.872 19.468l-19.681 13.299c-.63.353-1.211.673-1.801.927-.698.254-1.13.365-1.538.46l-.142-.049.034.049-.366.103-.748.179c-.649.113-1.323.134-2.022.172l-.608.012a20.873 20.873 0 0 1-2.116-.128 90.343 90.343 0 0 1 1.265 8.308l.179 2.089c.833 11.424-1.42 19.031-6.769 22.645l-19.681 13.298-.648.329c-.464.278-.821.447-1.178.616l-.357.168c-.848.356-1.787.628-2.727.792-14.638 2.793-40.982-15.224-70.454-48.221l-.495-.571c-46.43-52.25-87.332-127.103-91.383-167.209l-.122-1.04-.047-.874a73.278 73.278 0 0 1-.191-4.144l.028-.816c.002-1.124.062-2.215.13-3.239l.04-.425c.125-1.316.278-2.325.48-3.258l.073-.375c.243-1.142.496-2.002.766-2.836l.197-.567c.278-.768.615-1.503.978-2.146l.337-.626c.355-.602.743-1.154 1.165-1.656.28-.335.405-.527.537-.653.389-.444.828-.813 1.267-1.182.39-.336.547-.478.746-.613l19.855-13.416.53-.286c.515-.312.897-.497 1.28-.683l.356-.169c.872-.372 1.787-.627 2.71-.817 6.845-1.293 16.448 1.924 27.783 9.367.114-.475.27-.942.417-1.368l.098-.284c.295-.742.583-1.443.945-2.087l.198-.351a12.58 12.58 0 0 1 1.131-1.597l.34-.41c.413-.461.827-.813 1.266-1.182.29-.269.39-.336.514-.42l19.855-13.416c.614-.378 1.17-.682 1.785-.952l.232-.085.084.016c.398-.16.831-.272 1.263-.383l.034.05.025-.017.34-.085c.275-.077.549-.154.815-.189a13.187 13.187 0 0 1 2.023-.171l.607-.012c.908.002 1.841.096 2.766.231 6.593 1.014 14.727 5.115 24.154 12.254L303.554 120.03c-1.363-5.128-2.265-9.842-2.731-14.018l-.131-1.106-.047-.874a46.855 46.855 0 0 1-.138-3.528l.015-.408a45.9 45.9 0 0 1 .123-3.09l.048-.358a38.27 38.27 0 0 1 .391-2.8l.065-.333a20.63 20.63 0 0 1 .66-2.402l.18-.484a13.76 13.76 0 0 1 .839-1.87l.296-.526c.297-.527.644-.978.991-1.43.256-.318.372-.469.48-.578a8.3 8.3 0 0 1 1.101-.998c.365-.318.497-.444.646-.545l19.83-13.399c.614-.379 1.195-.699 1.802-.927l.233-.085.066-.009c.399-.16.831-.272 1.263-.383l.341-.085c.275-.077.549-.154.84-.206a14.155 14.155 0 0 1 1.981-.179l.633-.03c.691.005 1.374.05 2.09.145a99.314 99.314 0 0 1-1.299-8.465l-.122-1.04-.047-.874a59.238 59.238 0 0 1-.174-4.12l.036-.857c.019-1.1.037-2.198.148-3.215l.031-.383c.15-1.333.302-2.34.488-3.3l.09-.35c.243-1.142.504-2.042.799-2.893l.155-.468c.312-.826.674-1.577 1.027-2.287l.272-.51c.388-.66.801-1.229 1.255-1.79.232-.3.322-.434.455-.56.438-.478.91-.905 1.399-1.308.34-.302.489-.403.622-.529l19.879-13.432.507-.27a9.76 9.76 0 0 1 1.345-.691l.332-.152c14.07-5.886 41.42 11.85 73.181 47.43l.494.57c46.405 52.158 87.265 126.896 91.416 167.043l.178 2.088c.859 11.407-1.419 19.031-6.769 22.646l-19.68 13.298.025-.017Zm14.5-13.456c.74-.138 1.455-.367 2.111-.63l.333-.152a10.968 10.968 0 0 0 1.502-.834l.473-.319.637-.612c.307-.243.572-.495.845-.788.256-.318.347-.452.438-.586l.421-.61c.206-.284.388-.552.577-.861.132-.234.239-.451.305-.676l.37-.794c.148-.317.32-.651.435-1.018.065-.225.155-.467.204-.717l.277-.985c.123-.408.22-.8.326-1.234.056-.291.113-.583.153-.9l.152-1.008c.072-.483.161-.942.191-1.433.031-.383.046-.791.06-1.199l.044-1.008c.038-.533.061-.982.041-1.44-.012-.608-.014-1.041-.033-1.498l-.058-1.265-17.516 11.835c.029.741.076 1.506.08 2.264l-.001 2.572a28.372 28.372 0 0 1-.082 1.757l-.147 1.766.392.097c.683.154 1.333.258 1.967.337.483.072.95.119 1.399.141l.792.045.117.065.332-.043a15.642 15.642 0 0 0 1.715-.145c.441-.044.574-.062.682-.063l.291-.051.175-.01Zm-2.725 2.457-.366-.006a22.516 22.516 0 0 1-4.95-.567 25.935 25.935 0 0 1-1.402 5.112l6.743-4.556-.025.017Zm-16.964 10.775c.607-.121 1.164-.316 1.72-.511l4.28-2.892.099-.175c.421-.502.818-1.096 1.147-1.681l.19-.309c.412-.785.708-1.42.953-2.129l.025-.017.106-.325c.295-.851.531-1.735.717-2.694l.073-.375c.065-.333.113-.583.137-.817-4.913-1.424-10.525-4.151-16.693-8.132l-17.616 11.903c6.302 3.963 11.954 6.59 16.766 7.757l.742.187c.642.145 1.292.249 1.925.329.592.071 1.184.142 1.742.163.383.031.666.021.924.027a16.481 16.481 0 0 0 1.956-.162l.774-.089.033-.058ZM209.072 468.165a11.07 11.07 0 0 0 2.086-.613l.374-.144a11.075 11.075 0 0 0 1.502-.834l.663-.52c.439-.37.903-.756 1.317-1.216l.471-.644c.372-.469.694-.904.99-1.43.066-.117.354-.818.354-.818.329-.693.567-1.144.731-1.653.082-.201.408-1.435.408-1.435.171-.55.302-1.001.416-1.476.056-.292.113-.583.153-.9l.152-1.008c.08-.525.144-.967.216-1.45.031-.383.062-.766.051-1.158l.036-1.074c.022-.449.053-.941.058-1.415a15.105 15.105 0 0 0-.043-1.565s-.02-.674-.048-1.198l-17.516 11.835c.046.766.067 1.548.096 2.289l.016 1.257-.074.05.058.033-.009 1.274c-.022.558-.035 1.074-.057 1.632l-.014.516c-.038.533-.077.958-.108 1.341l.392.097c.683.154 1.333.258 1.992.32.483.072.933.094 1.399.141l.75.037.134.09-.034-.049.391-.011c.608-.013 1.182-.075 1.732-.12l.682-.063.291-.051-.008-.067Zm-2.725 2.457-.367-.006a22.514 22.514 0 0 1-4.949-.567 25.954 25.954 0 0 1-1.402 5.112l6.742-4.556-.024.017Zm-16.965 10.775c.582-.104 1.139-.299 1.721-.511l4.279-2.892a16.05 16.05 0 0 0 1.304-1.931l.173-.334c.371-.685.683-1.403.987-2.188.343-.993.605-1.893.831-2.952l.05-.034-.058-.033.064-.333c.049-.25.072-.483.121-.733-4.913-1.425-10.525-4.152-16.693-8.133l-17.616 11.903c6.319 3.988 11.971 6.615 16.833 7.748l.642.146c.683.154 1.358.241 2.008.345.359.047.742.078 1.125.109l.575.046c.366.006.666.021.966.036.583.004 1.14-.083 1.69-.128l.158.074.882-.197-.042-.008Zm281.109-243.942c13.737 12.339 25.999 20.35 35.534 23.252l.039-.425c.086-1 .121-2.074.123-3.198l.123-.192-.108.001.006-.367c0-1.448-.049-2.755-.174-4.119-.73-9.502-3.664-21.245-8.716-34.89-.797 1.77-1.888 3.159-3.281 4.101a9.697 9.697 0 0 1-1.403.767c-3.372 1.445-7.947.842-13.558-1.777.35 7.116-1.229 11.913-4.687 14.249l-3.882 2.623-.016-.025ZM162.384 442.889c14.241 12.976 26.947 21.376 36.773 24.334l.056-.4c.086-1 .121-2.074.14-3.173l.005-.475.015-.299a65.97 65.97 0 0 0-.165-3.945c-.695-9.128-3.451-20.339-8.166-33.378l-3.832 2.589a8.494 8.494 0 0 1-1.402.767c-.532.178-.856.288-1.172.357l-.408.094c-.207.068-.407.094-.632.137-.49.079-1.015.107-1.539.135l-.525.029a16.621 16.621 0 0 1-2.107-.17c-2.184-.335-4.611-1.085-7.208-2.3.332 6.982-1.287 11.879-4.721 14.199a9.497 9.497 0 0 1-1.402.767c-1.064.465-2.32.698-3.685.715l-.025.017Zm363.294-204.371-.132-1.215a27.187 27.187 0 0 0-.245-2.079l-.269-1.738a32.784 32.784 0 0 0-.363-2.254l-.249-1.28a91.138 91.138 0 0 0-.583-2.902l-.291-1.288c-.248-1.064-.47-2.036-.743-3.084l-.442-1.62a62.717 62.717 0 0 0-.8-2.9l-.476-1.562c-.339-1.147-.645-2.135-.951-3.124l-.372-1.088a143.528 143.528 0 0 0-1.263-3.746l-.423-1.163a391.019 391.019 0 0 0-1.38-3.812l-.432-1.121c-.499-1.328-.998-2.657-1.522-3.969l-.355-.847c-.583-1.453-1.149-2.881-1.791-4.367l-.92-2.166-13.834 9.347c.345 2.012.623 3.925.75 5.614.234 3.029.117 5.752-.361 8.102l.286.423.541 1.445.694 1.885c.424 1.163.796 2.143 1.126 3.115l.636 1.852c.372 1.088.703 2.06 1.009 3.048 0 0 1.222 3.955 1.435 4.753l.647 2.351c.221.756.425 1.487.604 2.236l.512 2.152c.196.773.376 1.521.513 2.261l.412 2.004c.137.74.317 1.488.438 2.203l.259 1.671c.148 1.023.277 1.697.364 2.362l.263 2.321 17.591-11.886.117.066ZM218.785 445.051l-.123-1.148c-.088-.774-.15-1.456-.229-2.163l-.269-1.738c-.112-.757-.208-1.489-.363-2.254 0 0-.378-1.954-.549-2.743-6.261-1.383-13.821-5.437-22.519-11.982l-1.891 1.278c.27.722.965 2.716 1.202 3.388l.771 2.268c.305.88.593 1.736.857 2.608l.662 2.16c.289.964.543 1.77.781 2.551 0 0 1.055 3.814 1.251 4.587l.555 2.269c.196.773.358 1.496.512 2.152l.36 1.713c.197.989.352 1.754.506 2.519.077.382.277 1.696.277 1.696.163.94.284 1.655.363 2.362 0 0 .15 1.456.264 2.321l17.59-11.886-.008.042Zm234.049-170.278c.809.178 1.609.289 2.375.351l.683.045c.6.03 1.166.009 1.732-.011.433-.003.674-.021.899-.064a7.861 7.861 0 0 0 1.289-.292c.457-.127.706-.187.964-.289a9.551 9.551 0 0 0 1.171-.574c.406-.202.531-.286.655-.37l.249-.168c.34-.302.464-.386.58-.537l.314-.285c.125-.084.232-.193.34-.302l.05-.033.231-.302c.199-.242.355-.493.537-.761 0 0 .355-.493.421-.61.272-.51.428-.869.576-1.186l.222-.476c.074-.159.14-.276.189-.417.18-.484.278-.876.375-1.268 0 0 .147-.534.254-.859a127.427 127.427 0 0 1-5.762-4.183l-11.147 7.532.003.432c.037.699.082 1.249.085 1.79 0 0 0 1.448.012 2.056.851.294 1.677.497 2.478.716l.308.081-.083-.016Zm-7.873 10.607-.284-.206c.289-.377.553-.736.809-1.162l.289-.485c.304-.568.6-1.203.838-1.87a16.67 16.67 0 0 0 .652-2.36l.097-.501c.153-.9.249-1.508.312-2.166.04-.317.094-1.041.094-1.041-3.33-1.227-7.314-3.315-11.56-6.06l-17.616 11.903c5.357 3.37 10.142 5.569 14.219 6.508l.35.09c.809.178 1.542.298 2.267.351l.022-.45.486.505.259.007c.599.029 1.165.009 1.731-.012l.616-.054.283-.01c.425-.069.857-.18 1.264-.274.341-.086.591-.146.807-.255l3.582-2.421.458-.02.025-.017Zm11.402-7.958-.516-.013c-1.866-.079-3.85-.441-5.927-1.102-.202 2.382-.664 4.542-1.336 6.336l7.763-5.246.016.025ZM237.645 419.596c.809.178 1.609.289 2.35.367l.7.071c.6.029 1.166.009 1.732-.012.458-.019.699-.038.899-.064a6.929 6.929 0 0 0 1.289-.291 9.54 9.54 0 0 0 .964-.29c.399-.16.764-.371 1.129-.581.432-.22.581-.32.705-.405l.489-.402c.332-.261.671-.562.977-.914l-.259-.223.549-.154.181-.267c.297-.418.554-.736.776-1.104.14-.276.206-.393.28-.551l.247-.493c.181-.376.354-.71.468-1.077.082-.2.123-.409.18-.592l.131-.451c.187-.634.285-1.025.407-1.434.049-.25.097-.5.121-.733l.145-.859c.064-.441.112-.8.168-1.2.031-.383.046-.683.06-.982l.045-.9c.03-.491.037-.857.043-1.224.013-.624.002-1.015-.033-1.39l-.022-.782-17.516 11.835.02.458c.038.807.074 1.29.093 1.748 0 0 .008 1.407-.013 2.073.852.294 1.677.496 2.461.691l.333.065-.099.067Zm3.529 2.649-.516-.013c-1.866-.08-3.85-.441-5.927-1.102-.202 2.382-.664 4.541-1.336 6.335l7.763-5.245.016.025Zm-17.513 10.928c.466-.061.857-.18 1.289-.291.366-.103.574-.171.781-.239l3.583-2.421c.446-.627.686-.97.908-1.337.182-.268.273-.402.339-.519.337-.626.6-1.202.805-1.811l.149-.101-.1-.041.115-.367c.228-.734.383-1.31.513-1.868.082-.309.121-.626.186-.959.096-.608.176-1.133.257-1.658.031-.383.101-1.191.101-1.191-3.296-1.177-7.28-3.266-11.568-6.018l-5.947 4.018c1.688 5.233 3.066 10.169 4.034 14.658.417.081.817.136 1.2.167l.466.047c.833.053 1.399.032 1.965.012l.591-.037.308-.027.025-.017Zm263.395-179.676c-5.811-3.933-11.985-8.888-18.481-14.747l-1.916 1.294c1.346 5.103 2.273 9.8 2.722 13.951l.179 2.088c.254 3.487.172 6.584-.262 9.267l.051.075 17.682-11.912.025-.016ZM180.163 460.029c-6.688-4.534-13.926-10.472-21.595-17.64-6.46-1.14-15.31-6.568-25.473-15.6l-11.594 7.834c.838.919 5.054 5.495 5.054 5.495a309.311 309.311 0 0 0 2.999 3.152l2.991 3.085c.721.745 1.432 1.423 2.136 2.143l1.759 1.745c1.038 1 2.06 1.976 3.065 2.926l1.976 1.852c7.426 6.861 14.496 12.55 21.033 16.861l17.615-11.902.034.049Zm282.914-199.167a147.14 147.14 0 0 0 4.189 3.036c.049-.25.081-.524.08-.633a15.23 15.23 0 0 0 .074-1.499l.022-.557c.023-.342.046-.683.052-1.05l-.019-.349c-.01-.391-.013-.824-.04-1.24l-.021-.674-4.379 2.958.042.008ZM203.386 426.23c5.007 3.172 9.507 5.274 13.369 6.322l-.256-1.022c-.179-.748-.351-1.538-.547-2.311l-.476-1.778c-.256-.914-.469-1.82-.741-2.759l-.425-1.379c-.331-1.08-.637-2.177-1.002-3.307l-.119-.39-9.803 6.624Zm227.58-163.118c6.222 4.704 11.904 8.072 16.879 10.071l.004-.691a55.746 55.746 0 0 0-.127-3.246c-.343-4.477-1.306-9.656-2.839-15.465-.092.025-.183.051-.25.06-.491.078-1.015.106-1.539.135l-.525.028a13.592 13.592 0 0 1-2.124-.194c-2.184-.336-4.611-1.086-7.208-2.301.254 5.043-.505 8.961-2.255 11.628l-.016-.025ZM215.777 407.935c6.247 4.687 11.921 8.096 16.879 10.07l-.004-.757a47.278 47.278 0 0 0-.136-3.204c-.343-4.477-1.298-9.698-2.839-15.466-.092.026-.183.052-.266.035-.491.079-1.016.107-1.54.135l-.524.029a16.636 16.636 0 0 1-2.108-.17c-2.184-.335-4.628-1.11-7.208-2.3.255 5.043-.505 8.961-2.254 11.628Zm251.547-152.586-.098-1.057a23.363 23.363 0 0 0-.193-1.68l-.19-1.139c-.139-.957-.234-1.58-.338-2.271l-.215-1.122a51.502 51.502 0 0 0-.48-2.428l-.265-1.089c-.222-.972-.41-1.787-.615-2.626l-.162-.615-13.933 9.415a206.994 206.994 0 0 0 10.393 8.731l6.096-4.119Zm-8.061 5.447a196.926 196.926 0 0 1-10.378-8.815l-.696.471c-.448.303-.83.488-1.237.691l.366 1.346c.137.524.803 3.333.889 3.782 0 0 .668 3.242.72 3.641.086.449.537 3.476.537 3.476.035.267.132 1.215.211 1.814l9.554-6.456.034.05ZM252.135 400.171l-.105-.906c-.054-.724-.141-1.281-.203-1.855l-.164-1.048c-.138-.848-.234-1.58-.364-2.362 0 0-.558-2.918-.712-3.575l-.273-1.155c-.223-.973-.394-1.762-.607-2.56l-.161-.615L233 397.275c-.482.253-.847.463-1.254.666l.358 1.387s.777 3.242.889 3.782c.086.449.634 3.085.721 3.642.086.449.475 3.01.536 3.476.035.266.141 1.173.211 1.813l17.616-11.903.058.033ZM434.21 268.235a151.29 151.29 0 0 1-4.666-3.366c-.323.327-.68.604-1.028.84l-16.546 11.179a135.211 135.211 0 0 0 4.608 3.225l17.615-11.903.017.025ZM219.046 413.041a150.087 150.087 0 0 1-4.666-3.366c-.323.327-.68.604-1.028.839l-.771.522a222.188 222.188 0 0 1 1.812 5.149l4.678-3.161-.025.017Zm-6.569 4.438c-.178-.531-.585-1.777-.763-2.309l-1.024-2.857-13.908 9.398a99.461 99.461 0 0 0 4.607 3.225l11.072-7.481.016.024ZM478.87 218.104c5.537 2.778 9.863 3.548 12.928 2.238a5.211 5.211 0 0 0 1.037-.556c1.642-1.11 2.755-3.057 3.347-5.774-15.922-40.995-47.864-91.915-81.41-129.548a428.672 428.672 0 0 0-5.205-5.718l-1.366-1.431a235.517 235.517 0 0 0-3.938-4.112l-1.533-1.571c-1.265-1.282-2.521-2.498-3.752-3.73-.838-.81-1.658-1.596-2.479-2.382l-1.465-1.364c-1.866-.187-3.714-.025-5.151.584a6.983 6.983 0 0 0-.971.547c-.224.151-.323.219-.381.294-.389.335-.597.512-.812.73a1.682 1.682 0 0 0-.231.3c-.289.377-.471.645-.653.912a7.878 7.878 0 0 0-.271.51c-.148.317-.296.635-.428.977-.082.2-.139.383-.204.609a7.88 7.88 0 0 0-.318 1.192l-.154.684c-.064.441-.136.925-.208 1.408l-.079.741a27.228 27.228 0 0 0-.073 1.716l-.004.69c-.004.8.034 1.607.106 2.464 7.452 4.164 16.245 11.332 25.452 20.72l.503.53a165.12 165.12 0 0 1 3.234 3.391 807.659 807.659 0 0 1 3.713 4.047l.494.571c30.546 34.372 57.55 83.777 60.305 110.273l-.033.058Zm-12.022 15.945s.217-.001.409.014l.933.094c.449.022.866-.006 1.299-.008l.699-.038c.333-.044.632-.138.973-.223.341-.086.548-.153.731-.205.324-.11.59-.253.864-.438.29-.16.406-.203.506-.27l.249-.168c.372-.36.604-.553.795-.754.082-.092.173-.226.256-.318.297-.419.471-.644.619-.854.099-.175.206-.392.33-.584.164-.401.271-.618.378-.835l.271-.726s.212-.759.277-.984c.073-.267.147-.534.178-.809l.113-.692s.143-1.075.175-1.35l.082-1.648.021-.666s-.012-.608-.048-.982l-13.137 8.876.416 1.313c.586.437 1.331 1.165 2.084 1.851l.603.57-.033-.049-.043-.117ZM420 264.69c.601.138 1.167.226 1.742.272l.575.046c.425.039.841.011 1.257-.016.35-.019.525-.029.724-.055.308-.027.583-.104.857-.18.482-.145.682-.171.848-.247.324-.111.614-.271.863-.439.315-.177.407-.202.506-.27l.365-.318a129.95 129.95 0 0 1-5.949-4.89l-6.643 4.489c.834.378 1.577.672 2.245.91.792.261 1.527.489 2.269.676l.333.064.008-.042Zm46.724-27.66-1.205-1.141c.153.549.331 1.08.467 1.604l.747-.504-.009.041Zm-2.637 1.782-.196-.773-.799-2.683a31.825 31.825 0 0 1-4.206-1.721l-5.972 4.035c.048.982.068 1.656.089 2.33l-.034 1.291c-.047.575-.036.966-.067 1.349l-.08.633-.074.051.058.032-.048.359c-.055.4-.078.741-.135 1.033 0 0-.178.808-.252 1.075-.105.434-.162.726-.26 1.009-.025.017-.041.1-.049.142l12.067-8.154-.042-.008Zm-17.035 11.475-1.206-1.141.484 1.628.722-.487ZM421.914 267.2c-2.6-.199-5.602-1.104-8.926-2.697l-8.932 6.036c2.134 1.817 4.033 3.395 5.798 4.773l12.018-8.12.042.008Zm-14 9.424a179.807 179.807 0 0 1-5.791-4.816l-153.55 103.355c.822 2.45 1.569 4.843 2.241 7.177l157.1-105.716Zm35.727-34.281.881 2.591c.586.437 1.314 1.14 2.043 1.843l2.177 2.042c.124-.192.239-.343.338-.518.33-.585.535-1.086.748-1.629.205-.609.393-1.243.522-1.909.154-.684.25-1.4.304-2.125.095-.825.09-1.582.111-2.357l.015-.299a40.129 40.129 0 0 0-.116-2.747 54.4 54.4 0 0 0-.637-4.857l-8.037 5.43 1.66 4.601-.009-.066ZM212.184 408.624s.199-.135.389-.336c-.485-.396-.996-.776-1.481-1.172.212.581.465 1.171.677 1.752.224-.151.34-.194.415-.244ZM62.28 285.085c-1.642 1.11-2.755 3.057-3.346 5.774 9.553 24.437 25.078 53.205 43.693 80.754 12.012 17.778 24.699 34.194 37.717 48.794a474.15 474.15 0 0 0 5.204 5.718l1.542 1.638a244.99 244.99 0 0 0 3.762 3.905l1.55 1.596c1.231 1.233 2.446 2.44 3.66 3.648a533.04 533.04 0 0 0 3.115 3.001l.787.736c1.892.279 3.732.158 5.243-.501a5.168 5.168 0 0 0 1.038-.556c2.911-1.967 4.191-6.562 3.718-13.269-7.452-4.163-16.245-11.331-25.452-20.72l-.285-.314a143.197 143.197 0 0 1-3.452-3.607 762.186 762.186 0 0 1-3.712-4.046l-.495-.572c-30.546-34.372-57.55-83.776-60.304-110.272-5.537-2.778-9.888-3.532-12.928-2.238-.357.169-.715.337-1.013.539l-.042-.008Zm370.725-36.171c1.578.78 2.889 1.379 4.066 1.779.809.286 1.568.498 2.268.676l.351.09c.6.137 1.15.2 1.7.263l.616.055c.425.038.841.011 1.258-.017.349-.019.549-.045.724-.055.091-.025.199-.026.266-.035a189.253 189.253 0 0 0-1.775-5.79c-1.582-1.43-3.341-3.175-5.167-5.02l-5.026 3.396c.31 1.638.544 3.219.694 4.674l.025-.016ZM248.898 383.635l-.196-.773-.365-1.238c-.374-1.196-.587-1.994-.849-2.758l-.806-2.426-8.982 6.069-.014.3c.037.699.058 1.373.061 2.023l-.034 1.29c-.021.558-.052.941-.083 1.324l-.111 1.017c-.056.4-.104.758-.151 1.116-.106.542-.179.809-.227 1.059-.122.517-.188.742-.253.967-.008.042-.041.1-.049.142l12.067-8.154-.008.042Zm174.855-126.37a142.439 142.439 0 0 0 5.481 4.518c.05-.034.289-.485.289-.485l.501-1.135.188-.526s.302-1.001.368-1.226l.121-.625s.193-1.217.216-1.45l.08-.633s.074-1.499.097-1.841l.03-.491a7.33 7.33 0 0 0-.03-.957l-7.324 4.876-.017-.025ZM233.132 394.252c.297-.418.561-.778.767-1.17.33-.585.535-1.086.732-1.654a14.91 14.91 0 0 0 .521-1.909c.13-.667.225-1.384.304-2.125.095-.825.091-1.582.111-2.357l.015-.299a40.129 40.129 0 0 0-.116-2.747 54.036 54.036 0 0 0-.637-4.857l-8.036 5.43c.338.93 1.498 4.094 1.676 4.626 0 0 1.187 3.58 1.398 4.161l1.282 4.204 1.991-1.345-.008.042Zm-26.382 17.754c-2.641-.208-5.603-1.104-8.926-2.697l-5.971 4.035.01.283c.037.699.074 1.398.053 2.064l-.087 2.123c.971.793 1.924 1.561 2.861 2.304l12.043-8.137.017.025Zm-28.08 15.134c.6.138 1.15.201 1.7.264l.616.054c.425.039.841.011 1.258-.016.391-.011.549-.045.724-.055.333-.044.649-.112.948-.206.274-.077.432-.111.598-.187l2.762-1.866c.297-.418.545-.803.775-1.212.33-.585.535-1.086.749-1.628.196-.568.351-1.143.464-1.727-.345-.563-.708-1.477-1.064-2.432l-.337-.822c-1.54-1.205-3.406-2.841-5.55-4.833l-11.022 7.447a79.82 79.82 0 0 1 .677 4.649c1.554.798 2.889 1.38 4.066 1.78a25.68 25.68 0 0 0 2.269.676l.35.09.017.024Zm14.055-5.694c-.393-.314-.803-.652-1.238-.974l-.057.292.202.298.33.864.746-.505.017.025Zm7.264-13.6c1.653.73 3.171 1.262 4.555 1.594.893.194 1.484.265 2.051.353l.55.063c.45.022.883.019 1.324-.026.374-.035.524-.028.682-.062.2-.027.383-.078.582-.104l-.549-1.403c-.406-1.03-.787-2.076-1.209-3.131l-.423-1.054-.2-.082-.703-.612-6.619 4.472-.041-.008Zm24.537-11.581c.6.137 1.15.2 1.7.263l.616.054c.425.039.841.012 1.258-.016a9.4 9.4 0 0 0 .724-.055c.091-.025.199-.026.291-.052a162.778 162.778 0 0 0-4.205-12.659l-7.763 5.245c.31 1.638.544 3.218.694 4.674 1.553.798 2.889 1.38 4.065 1.78.81.286 1.569.498 2.269.676l.351.09Zm-15.091 6.683.72.528a217.453 217.453 0 0 0 3.873 3.105c.025-.017.313-.61.313-.61l.148-.317c.107-.217.189-.418.296-.635.082-.2.172-.442.238-.667l.293-1.068c.065-.225.114-.475.17-.767l.056-.4.19-1.649.098-1.732.005-.583c.016-.192-.012-.608-.022-.999l-6.867 4.64.448 1.146.041.008Zm285.607-197.22s1.411 3.429 1.554 3.802a26.462 26.462 0 0 0-.11-3.22 46.497 46.497 0 0 0-.576-4.5l-1.991 1.345c.253.589.836 1.934 1.106 2.548l.017.025Zm-32.898 26.937-.745-.728-.374.252c.376.181.76.32 1.119.476ZM188.149 412.261l1.572 3.827s-.018-.133.015-.191a42.655 42.655 0 0 0-.084-3.022 46.283 46.283 0 0 0-.577-4.5l-1.99 1.345 1.106 2.549-.042-.008Zm-53.163 13.25c7.676 6.801 14.657 11.501 20.299 13.736-.871-.86-3.845-3.812-3.845-3.812a174.456 174.456 0 0 1-2.957-3.036c-.863-.902-1.726-1.803-2.606-2.73l-2.095-2.242a384.825 384.825 0 0 1-4.458-4.882l-4.354 2.942.016.024ZM476.287 219.27c-7.218-4.032-15.719-10.928-24.632-19.935l-.796.538c4.989 10.065 9.084 19.612 12.15 28.333l13.261-8.961.017.025Zm-16.488 11.104-1.524-1.505c-.939-.959-1.919-1.927-2.874-2.911l-3.41-3.599-1.307-1.398-1.375-1.498-.224.151.935 3.099.817 3.033.188.815c2.658 1.681 4.839 3.032 6.694 4.06a20.44 20.44 0 0 0 1.027.501l1.07-.723-.017-.025Zm-3.177 2.111a67.651 67.651 0 0 1-3.643-2.174l-.97.655.086.449s.355 2.296.424 2.72l.122 1.039 3.981-2.689Zm-26.208 17.636c-7.092-3.9-15.576-10.77-24.632-19.935l-5.523 3.733.302.339c1.559 1.771 3.134 3.459 4.651 5.114l.93 1.001c5.346 5.659 10.673 10.861 15.846 15.405l8.384-5.665.042.008Zm-10.301 6.96c-3.08-2.735-6.295-5.778-9.612-9.078l-1.215-1.207-2.111-2.159a314.859 314.859 0 0 1-3.016-3.177l-.034-.05-.93-1.001a283.837 283.837 0 0 1-3.637-3.988l-10.351 6.993 1.307 1.29c.527.513 1.072 1.051 1.608 1.522a123.78 123.78 0 0 0 2.695 2.488l.921.826c6.287 5.603 12.057 9.744 17.143 12.392l7.216-4.876.016.025Zm-9.347 6.28c-1.169-.659-2.414-1.375-3.643-2.174l-7.738 5.228c.971.901 1.968 1.785 2.93 2.62l8.41-5.683.041.009Zm-10.342 6.952c-.979-.86-1.95-1.761-2.922-2.662L246.465 369.308a142.27 142.27 0 0 1 1.355 3.72l152.596-102.674.008-.041Zm-154.47 103.976s-1.025-2.857-1.355-3.72l-7.787 5.262.345 2.12.148 1.023c.026.2.087.666.123 1.04l8.484-5.733.042.008Zm-30.729 20.654c-4.102-2.262-8.684-5.504-13.588-9.65 2.302 4.854 4.496 9.71 6.455 14.434l7.116-4.808.017.024Zm-10.3 6.961a117.547 117.547 0 0 1-2.671-2.397l-7.937 5.363a62.855 62.855 0 0 0 3.392 1.909l7.216-4.875Zm-9.323 6.262a74.955 74.955 0 0 1-3.317-1.959l-1.244.84.458 2.769.122 1.04 3.981-2.69Zm256.839-188.574 1.525 1.613a248.006 248.006 0 0 0 3.779 3.93l1.549 1.596c.47.48.922.935 1.374 1.39-.288-.856-.592-1.628-.888-2.442l-.288-.747c-.49-1.262-.914-2.425-1.378-3.595l-.237-.565a164.19 164.19 0 0 0-1.605-3.877l.016-.083-.05.033-.683-1.602-4.404 2.976 1.282 1.415.008-.042Zm-11.487 21.777a71.237 71.237 0 0 0-.863-2.35l-.896.605s1.248 1.258 1.759 1.745Zm12.542-43.278c8.377 8.428 16.309 14.911 23.026 18.738-.069-.424-.295-2.046-.398-2.52 0 0-.437-2.203-.549-2.743l-.29-1.18a19.984 19.984 0 0 0-.409-1.679l-.179-.64c-.247-.956-.418-1.637-.647-2.352 0 0-.747-2.5-.934-3.099l-1.237-3.654-1.185-3.256s-.787-2.076-1.108-2.873l-1.825-4.417-14.281 9.65.016.025Zm-24.66 48.461c.618.379 1.237.757 1.822 1.087 0 0-.252-1.714-.329-2.096l-1.493 1.009ZM205.677 399.584l-.785-1.859-.722.487c.494.463 1.013.909 1.507 1.372Zm-19.69 13.232-.937-2.192-.846.572c.586.546 1.197 1.074 1.783 1.62Zm27.66-21.442c.618.379 1.22.733 1.822 1.087l-.148-1.023-.181-1.072-1.493 1.008Zm-45.856 30.876c.618.379 1.22.733 1.822 1.087-.104-.69-.208-1.38-.329-2.096l-1.493 1.009Zm343.098-233.133-.625-1.461a343.534 343.534 0 0 0-2.286-5.047l-.168-.248c-7.38-15.91-16.866-33.113-27.414-49.744l-1.311-2.047-9.405 6.355c14.199 22.783 24.305 45.035 27.782 61.228l13.411-9.061.016.025Zm-15.393 10.365c-3.234-15.996-13.283-38.323-27.649-61.355l-6.618 4.472.621.92c.832 1.285 1.622 2.562 2.43 3.863l1.202 1.94c.563.888 3.54 5.83 3.54 5.83l3.398 5.78 3.29 5.78 3.19 5.74s2.576 4.778 3.064 5.716l2.906 5.641s2.318 4.664 2.781 5.618c0 0 2.184 4.572 2.623 5.543l.927 2.017c.515 1.137 1.047 2.299 1.544 3.412l.313.73 2.438-1.647Zm-45.933 30.493c-.18-.856-.377-1.737-.573-2.618-1.437-.84-3.286-2.235-5.462-4.06l-5.822 3.934.853 1.959 1.833 4.483.761 1.984 8.41-5.682Zm-10.268 6.902c-1.555-4.019-3.346-8.278-5.27-12.628l-5.623 3.8c1.064 1.2 2.137 2.358 3.21 3.517l1.5 1.63.043.225.099-.068.235.24a274.165 274.165 0 0 0 3.955 4.137l.234.239 1.642-1.109-.025.017Zm-3.508 2.37a261.33 261.33 0 0 1-4.055-4.285c-.863-.902-1.718-1.846-2.556-2.764 1.111 3.414 2.013 6.68 2.68 9.705l3.956-2.673-.025.017Zm-5.897 3.985-.171-.79s-.513-2.261-.675-2.876l-.808-2.967-.918-3.074s-.83-2.517-1.068-3.189l-.872-2.417c-1.927-2.102-3.956-4.461-6.002-6.845l-11.719 7.918c6.802 6.848 13.263 12.334 19.173 16.307l3.036-2.051.024-.016Zm-24.74 16.644c-5.359-3.694-11.242-8.701-17.465-14.853l-.327-.323-.034-.05-5.623 3.8a309.94 309.94 0 0 0 4.249 4.625l.629.662a304.627 304.627 0 0 0 4.465 4.625 225.009 225.009 0 0 0 6.7 6.482l7.414-5.01-.008.042Zm-9.297 6.246a228.404 228.404 0 0 1-6.725-6.574l-.218-.215c-1.533-1.572-3.066-3.143-4.642-4.831a397.134 397.134 0 0 1-4.835-5.28l-.73-.811-143.075 96.277c3.869 7.816 7.227 15.361 10.009 22.536l150.191-101.085.025-.017Zm-191.84 129.552-.886-2.008c-.683-1.494-1.325-2.98-2.025-4.499l.024-.233-.1.067-.152-.332a156.266 156.266 0 0 0-2.369-4.954l.024-.234-.1.068-1.028-2.058a130.452 130.452 0 0 1-6.749-6.449l-5.524 3.732.302.339c1.559 1.772 3.135 3.46 4.669 5.14l.913.976a262.608 262.608 0 0 0 4.591 4.756c2.17 2.192 4.447 4.383 6.934 6.723l1.493-1.009-.017-.025Zm-3.425 2.279c-1.758-1.637-3.517-3.382-5.351-5.185l-1.157-1.174c-.703-.72-1.407-1.44-2.127-2.184-.813-.827-3.268-3.442-3.268-3.442l-.52-.554a316 316 0 0 1-3.796-4.171l-1.244.841.397.963s.659 1.619.912 2.208l.448 1.146-.025.017.042.008.846 2.217s.973 2.674 1.193 3.322l1.085 3.215.951 3.123.818 3.034.196.772c.45.131 1.119.584 1.788 1.038l.518.338 8.31-5.616-.016.084Zm43.208-29.485-.888-2.334-.744-1.851c-.355-.847-.701-1.735-1.073-2.607l-.717-1.652-6.494 4.388.356 1.171-.016.084.025-.017.535 1.811s.698 2.535.818 3.033l.717 2.992 7.439-5.026.042.008Zm-9.422 6.33c-.591-2.86-1.401-5.935-2.402-9.133l-9.455 6.388c.211.473.676 1.536.862 2.026 0 0 1.495 3.661 1.833 4.483l.752 1.918 8.41-5.682Zm-10.268 6.901c-3.822-9.948-8.807-20.704-14.81-32.002l-5.151 3.48c6.12 12.596 10.452 24.156 12.505 33.524l7.44-5.027.016.025Zm-9.405 6.355-.146-.806-.188-.815c-.188-.815-.333-1.405-.47-2.036 0 0-.622-2.369-.808-2.967 0 0-.706-2.385-.935-3.099 0 0-.797-2.467-1.051-3.165 0 0-.897-2.508-1.16-3.272l-1.623-4.118a207.137 207.137 0 0 0-1.385-3.338l-.119-.282-11.718 7.918a771.415 771.415 0 0 1 4.178 8.223c4.311 3.859 8.528 7.203 12.432 9.816l3.035-2.051-.042-.008Zm-26.158 17.603c-.18-.856-.377-1.738-.573-2.619-1.714-1.087-3.746-2.647-5.997-4.531l1.416 2.955 2.666 5.876 2.513-1.698-.025.017Zm-4.371 2.917a372.683 372.683 0 0 0-6.494-13.901c-1.573-1.363-3.34-3.067-5.157-4.845l-.361-.372-5.623 3.8a345.78 345.78 0 0 0 4.249 4.625l.629.662a296.686 296.686 0 0 0 4.448 4.599 204.345 204.345 0 0 0 6.7 6.483l1.617-1.093-.008.042Zm-3.508 2.37a260.418 260.418 0 0 1-6.708-6.549l-.377-.397a254.192 254.192 0 0 1-4.458-4.666 364.065 364.065 0 0 1-4.852-5.304s-2.021-2.293-2.784-3.154c4.456 9.919 7.649 19.097 9.309 26.703l9.853-6.657.017.024Zm-11.81 7.944c-1.92-9.277-6.194-20.912-12.398-33.633l-17.167 11.6c.603.679 3.109 3.368 3.109 3.368l.326.322a159.193 159.193 0 0 0 3.561 3.715c6.995 7.08 13.564 12.673 19.533 16.679l3.036-2.051Zm276.59-196.886c.912.76 1.816 1.453 2.719 2.147-.289-1.072-.637-2.177-.985-3.282l-1.717 1.16-.017-.025ZM177.953 390.359l1.567 3.178.988.818a115.64 115.64 0 0 0 6.593 5.467c-1.403-5.027-3.359-10.55-5.842-16.477l-5.151 3.48c.396.746 1.449 2.787 1.82 3.551l.025-.017ZM454.66 213.168a297.598 297.598 0 0 0-5.659-12.076l-5.524 3.733.549 1.295 1.428 3.453 1.59 4.177.134.091c.57.629 2.439 2.698 2.439 2.698l5.001-3.379.042.008Zm-8.203 5.506c-.246-.739-.508-1.503-.771-2.268l-3.782 2.556a62.088 62.088 0 0 0 1.816 1.561l2.762-1.866-.025.017Zm-4.653 3.144a52.686 52.686 0 0 1-1.791-1.578l-4.13 2.79.945 2.15 4.976-3.362ZM239.471 357.99l-.642-1.486a1507.05 1507.05 0 0 0-1.805-3.959l-.169-.356c-.734-1.569-1.399-2.93-2.057-4.332l-.944-1.934-5.549 3.749.557 1.254 1.428 3.453 1.311 3.388 1.193 3.322.382 1.155 6.32-4.27-.025.016Zm-8.203 5.507c-2.264-6.837-5.372-14.333-9.266-22.35l-10.873 7.347 1.827 3.51a924.024 924.024 0 0 1 1.71 3.335s1.871 3.734 2.36 4.779c0 0 1.762 3.735 2.243 4.714l2.312 5.138 9.629-6.506.058.033Zm213.465-149.091-1.115-1.274a218.273 218.273 0 0 1-2.498-2.839l-.168-.249s-3.463-3.998-4.234-4.925l-1.946-2.343c-.805-.978-1.61-1.955-2.39-2.948l-1.099-1.358c-1.149-1.433-2.173-2.733-3.18-4.009 0 0-3.423-4.423-4.212-5.483 0 0-3.332-4.449-4.155-5.559l-1.125-1.557-2.955-4.052s-2.141-3.008-3.022-4.259l-2.886 1.95 3.538 5.613 3.019 4.95 2.91 4.951 2.827 4.934 2.702 4.911 1.195 2.198a716.662 716.662 0 0 0 3.964 4.311l1.802 1.861c.795.803 1.583 1.647 2.362 2.424.779.778 1.524 1.505 2.287 2.258l1.624 1.546a83.86 83.86 0 0 0 2.219 2.05l4.528-3.06.008-.042Zm-6.436 4.313a214.542 214.542 0 0 1-4.781-4.556l-.436-.43a166.256 166.256 0 0 1-3.376-3.441l2.461 4.929 2.242 4.714.49 1.046 3.383-2.287.017.025Zm-5.2 3.514a366.268 366.268 0 0 0-8.596-17.334l-5.15 3.48c3.043 6.273 5.66 12.292 7.75 17.905l5.996-4.051ZM137.865 420.922c-.796-.91-3.101-3.517-3.613-4.113 0 0-3.647-4.272-4.402-5.174l-1.769-2.136c-.856-1.052-1.736-2.087-2.567-3.155l-1.325-1.64a198.991 198.991 0 0 1-2.97-3.752s-3.457-4.472-4.254-5.491l-.907-1.234c-1.167-1.566-2.199-2.933-3.248-4.325l-.806-1.085a194.056 194.056 0 0 1-3.291-4.548l-.688-1.02a349.39 349.39 0 0 1-3.317-4.64l-.706-1.044c-1.083-1.55-2.183-3.124-3.241-4.691l-.605-.895a372.707 372.707 0 0 1-3.235-4.84l-1.966-3.018-6.643 4.489c9.304 14.682 19.796 28.707 30.341 40.559 4.954 5.562 9.846 10.549 14.551 14.831l4.553-3.077.108-.001Zm-6.419 4.338c-4.663-4.273-9.48-9.203-14.308-14.633-10.621-11.909-21.162-26.009-30.55-40.815l-9.406 6.355 1.95 2.992 3.847 5.694 3.864 5.719 3.989 5.634 4.063 5.584 4.137 5.534 4.196 5.459s3.599 4.521 4.254 5.383l4.319 5.266 4.36 5.166s2.884 3.303 3.857 4.42l11.395-7.7.033-.058Zm283.012-252.978c9.111 13.002 18.626 25.26 28.335 36.518-5.212-12.702-12.632-26.847-21.575-41.049l-6.718 4.539-.042-.008Zm8.638 49.791c-.296-.705-.567-1.428-.735-1.785l-.414-.988-.747.505 1.921 2.251-.025.017ZM194.528 375.791a81.717 81.717 0 0 0-1.322-2.547l-.746.504c.703.72 1.398 1.373 2.068 2.043Zm-19.706 13.206c-.177-.315-.328-.647-.522-.987l-.299.202.796.802.025-.017Zm5.583-7.72a193.068 193.068 0 0 0-4.63-10.017l-3.238-3.933-3.875-4.878-3.818-4.953-2.266-3.032-.857-1.16c-.873-1.185-1.746-2.369-2.594-3.571l-1.855-2.585-2.936 1.984.622.92a957.761 957.761 0 0 1 3.631 5.803c.546.862 3.523 5.804 3.523 5.804l3.415 5.805 3.29 5.781 3.165 5.757 3.124 5.856 5.274-3.564.025-.017Zm-7.116 4.809c-8.91-17.049-19.765-34.884-31.43-51.665l-6.818 4.606c9.111 14.234 19.3 27.811 29.551 39.282a278.733 278.733 0 0 0 4.283 4.675s2.613 2.689 3.527 3.665l.846-.571.041.008Zm-2.728 1.807a763.23 763.23 0 0 1-3.167-3.292l-.017-.025-.612-.637a184.315 184.315 0 0 1-3.101-3.41l-.05-.074-5.15 3.48 3.379 3.982 3.219 3.692 5.524-3.733-.025.017Zm296.356-201.477-.49-1.154c-.422-.946-.861-1.918-1.3-2.889l.017-.083-.05.034-.152-.332c-4.925-10.507-11.195-21.879-18.222-32.921l-.42-.622-17.906 12.063c6.303 9.757 12.115 19.592 17.284 29.281a261.453 261.453 0 0 0 6.285 6.727l14.954-10.104Zm-16.829 11.298c-.217-.215-.435-.43-.645-.687.143.266.278.573.422.838l.223-.151Zm-2.065 1.395a401.854 401.854 0 0 0-4.245-8.213c-6.739-7.507-13.45-15.937-19.915-24.969l-.871.589 1.505 2.387 2.329 3.823 2.262 3.831 2.18 3.815 2.095 3.799 2.013 3.783.766 1.51 2.966 5.891 1.737 3.643 1.713 3.768 5.449-3.682.016.025Zm-26.954 18.141-.422-.946c-.574-1.279-.979-2.2-1.392-3.08l.007-.149-.074.05s-1.147-2.448-1.678-3.502l-3.102 2.06 4.227 5.183 1.09 1.292 1.294-.874.05-.034Zm-3.135 2.118a251.5 251.5 0 0 1-5.318-6.475l-12.291 8.305c.872.969 3.394 3.683 3.394 3.683a85.627 85.627 0 0 0 2.396 2.473l11.844-8.003-.025.017Zm-13.701 9.222c-.83-.852-1.659-1.704-2.48-2.598a688.019 688.019 0 0 1-3.713-4.046l-.495-.571c-7.041-7.954-14.004-16.758-20.688-26.221l-4.603 3.11c8.515 12.174 17.451 23.628 26.555 33.991l5.448-3.682-.024.017Zm-7.266 4.909-2.02-2.293-3.748-4.421-3.707-4.521-4.254-5.383-2.987-3.884-3.349-4.474c-.856-1.16-1.67-2.311-2.527-3.471l-.957-1.309c-.663-.928-2.393-3.381-3.006-4.234l-11.42 7.716c6.735 9.538 13.756 18.374 20.806 26.286a282.863 282.863 0 0 0 4.282 4.676l2.338 2.44 10.525-7.111.024-.017Zm-12.407 8.347-2.589-2.705c-1.039-1.109-2.087-2.284-3.16-3.442l-5.167 3.455 3.396 4.007 2.088 2.392 5.449-3.682-.017-.025Zm-7.282 4.885c-1.844-2.086-3.655-4.23-5.467-6.375l-141.01 94.882a584.19 584.19 0 0 1 3.875 7.45l142.602-95.957Zm-144.419 97.184-.421-.838c-1.188-2.348-2.308-4.488-3.428-6.629l-5.15 3.48 1.829 3.834 1.73 3.793 5.448-3.682-.008.042Zm-26.979 18.158-.211-.474.016-.083-.05.034-.152-.332c-.464-1.063-.953-2.108-1.442-3.154 0 0-1.181-2.498-1.72-3.618l-12.316 8.321a373.221 373.221 0 0 1 3.982 7.342l11.868-8.02.025-.016Zm-13.701 9.221a378.796 378.796 0 0 0-3.999-7.366l-3.06 2.068c.569.629 3.394 3.682 3.394 3.682a93.486 93.486 0 0 0 2.396 2.474l1.269-.858Zm-3.135 2.119c-.83-.853-1.659-1.705-2.48-2.598a688.716 688.716 0 0 1-3.713-4.047l-.495-.571c-6.337-7.126-12.595-14.993-18.648-23.361l-.946.638.715 1.111 2.329 3.823 2.262 3.831 2.18 3.815 2.095 3.799 1.996 3.758 1.912 3.742 1.416 2.846a346.118 346.118 0 0 0 5.911 6.87l5.449-3.681.017.025Zm-7.282 4.884c-.135-.199-.369-.439-.604-.679l.38.83.224-.151Zm241.397-175.171-2.088-2.392-3.077-3.643-2.869-3.494-3.297-4.182-2.467-3.222-2.35-3.157c-.655-.861-2.678-3.695-2.678-3.695-.504-.746-2.645-3.754-2.645-3.754-.605-.895-2.579-3.762-2.579-3.762l-2.553-3.779-1.177-1.849-.697.471c9.053 12.968 17.228 26.675 23.699 39.686l4.802-3.245-.024.017Zm-6.619 4.472-.825-1.651c-4.365-8.604-9.371-17.354-14.868-26.025l-.42-.622-6.792 4.59 4.089 5.783 4.063 5.585 4.121 5.509 4.179 5.433 2.97 3.752 3.458-2.337.025-.017Zm-5.299 3.581a495.94 495.94 0 0 1-19.439-26.087l-13.137 8.877 1.1 1.574 2.678 3.695 2.711 3.637 2.761 3.603 2.818 3.528 2.852 3.47 2.868 3.386 2.355 2.681 12.391-8.372.042.008Zm-33.913 22.806-3.111-3.584-2.809-3.353-2.634-3.254-2.298-2.866-.043-.224-.1.067-2.828-3.702-2.35-3.157c-.613-.853-2.678-3.695-2.678-3.695l-1.243-1.84-4.653 3.144 2.813 4.002 3.467 4.756 3.517 4.722 3.591 4.672 3.633 4.571 2.625 3.188 5.076-3.43.025-.017Zm-6.917 4.674c-6.726-8.131-13.339-16.845-19.663-25.936l-137.56 92.587c6.001 9.309 11.593 18.712 16.603 28.003l140.637-94.629-.017-.025Zm-142.453 95.856a416.554 416.554 0 0 0-14.813-25.193l-.739-1.094-4.578 3.094 1.521 2.412 2.33 3.823 2.245 3.806 2.163 3.79 2.079 3.774 2.012 3.783 1.937 3.725.75 1.485 5.101-3.446-.008.041Zm-6.934 4.649c-4.323-8.704-9.372-17.678-15.012-26.615l-11.42 7.716.47.697a293.651 293.651 0 0 1 3.085 4.941l.504.746c.825 1.435 1.682 2.811 2.515 4.204 0 0 2.136 3.591 2.91 4.951l.547.97c.757 1.335 1.539 2.654 2.238 3.956l.69 1.236 2.054 3.683.479.871 10.923-7.381.017.025Zm-12.739 8.608c-7.106-13.198-15.244-26.423-24.197-39.35l-4.603 3.11c9.053 12.969 17.228 26.676 23.683 39.661l5.075-3.429.042.008Zm-6.934 4.649c-4.601-9.277-10.02-18.798-16.104-28.34l-13.138 8.877a520.046 520.046 0 0 1 16.835 27.81l12.391-8.372.016.025Zm-14.248 9.591a499.044 499.044 0 0 0-13.524-22.696l-1.395-2.172-6.668 4.506c.789 1.06 2.325 3.173 2.325 3.173.722.961 2.753 3.645 2.77 3.67.705.936 1.452 1.88 2.156 2.816 0 0 2.173 2.733 2.777 3.52l2.852 3.469 2.868 3.386 2.355 2.682 3.459-2.337.025-.017Zm-24.964 16.796-2.088-2.392-4.285-5.108-1.644-2.004-2.835-3.553-2.761-3.603-2.56-3.413c-.671-.886-2.678-3.695-2.678-3.695l-2.645-3.754a970.203 970.203 0 0 0-2.579-3.763l-2.553-3.779-1.227-1.815-.672.454c9.053 12.969 17.228 26.676 23.7 39.686l4.802-3.244.025-.017Zm-6.917 4.674c-9.486-11.518-18.669-24.036-27.307-37.249l-17.914 12.104 1.067 1.633 2.537 3.755 2.536 3.754 2.629 3.729 2.661 3.67 2.711 3.637 2.761 3.603 2.818 3.528 2.852 3.47 2.868 3.386 2.355 2.681 17.392-11.751.034.05ZM425.679 164.7c4.19 5.825 8.503 11.457 12.898 16.781a440.526 440.526 0 0 0-10.957-18.092l-1.941 1.311Zm-30.4-2.673c7.287 11.482 15.381 22.709 23.608 32.686a425.168 425.168 0 0 0-21.642-34.014l-1.966 1.328ZM159.08 345.963a417.593 417.593 0 0 0 11.776 15.764c-3.023-5.599-6.354-11.28-9.91-17.025l-1.866 1.261Zm-25.619 4.671 3.293 4.873 3.434 4.814 3.484 4.781 3.517 4.722 3.994 5.16c-5.632-10.428-12.282-21.181-19.387-31.374l-2.09 1.412 3.731 5.628.024-.016Zm344.422-221.896-1.899-2.918c-.89-1.318-1.781-2.635-2.646-3.97l-1.193-1.765-3.889-5.702-3.988-5.635-4.063-5.584-4.138-5.534-4.196-5.458-4.261-5.342-4.32-5.266s-3.656-4.338-4.36-5.166l-3.857-4.42-11.395 7.7c4.63 4.223 9.43 9.128 14.308 14.632 10.621 11.91 21.162 26.009 30.551 40.816l9.405-6.355-.059-.033Zm-11.196 7.565c-9.321-14.707-19.812-28.731-30.358-40.583-4.92-5.512-9.812-10.5-14.551-14.831l-4.553 3.077c.78.885 3.102 3.517 3.789 4.32l1.317 1.573c1.04 1.217 2.063 2.41 3.061 3.618l1.19 1.44c1.049 1.284 2.105 2.526 3.129 3.826l1.082 1.333a298.983 298.983 0 0 1 3.196 4.034l.865 1.118a343.237 343.237 0 0 1 3.348 4.365l.437.646a480.5 480.5 0 0 1 21.405 30.553l6.643-4.489Zm-295.68 198.993-.739-1.094-6.767 4.572.739 1.094 6.767-4.572Zm-8.575 5.758-.74-1.094-.796.538.74 1.094.796-.538Zm-2.638 1.782c-7.27-11.457-15.363-22.684-23.608-32.686a425.494 425.494 0 0 0 21.643 34.014l1.965-1.328Zm-3.798 2.531-1.16-1.716c-.822-1.11-1.595-2.254-2.393-3.381l-.991-1.467-3.31-4.898a105.341 105.341 0 0 1-1.68-2.594l-2.812 1.899a650.897 650.897 0 0 1 9.46 14.107l2.861-1.934.025-.016Zm264.028-179.489c-9.11-14.234-19.299-27.811-29.567-39.307a286.229 286.229 0 0 0-4.3-4.7s-2.589-2.706-3.527-3.665l-.846.571c8.911 17.049 19.766 34.884 31.431 51.665l6.817-4.606-.008.042Zm-8.634 5.833-.806-1.193c-.941-1.393-1.906-2.768-2.83-4.136l-1.076-1.591c-.941-1.392-1.865-2.76-2.756-4.186l-1.966-3.017-2.861 1.933 1.343 1.881c1.109 1.641 2.226 3.24 3.335 4.882l.42.621c.957 1.417 1.932 2.859 2.865 4.293l1.546 2.396 2.811-1.9-.025.017ZM204.835 310.7c-2.387-3.747-4.924-7.501-7.493-11.197l-11.446 7.733c2.453 3.522 4.94 7.31 7.477 11.173l11.445-7.734.017.025Zm240.272-164.125-.756-1.118-.002-.217-.074.051-2.714-4.07-2.554-3.779-2.628-3.729-2.678-3.696-2.728-3.661-2.761-3.603-2.818-3.528-2.869-3.494-2.867-3.386-2.373-2.707-17.391 11.751c9.468 11.493 18.652 24.011 27.29 37.224l17.914-12.104.009.066Zm-19.764 13.282-.437-.646c-.849-1.31-1.739-2.628-2.605-3.962l-.638-.945c-.773-1.144-3.335-4.881-3.335-4.881-.605-.895-3.409-4.831-3.409-4.831a164.908 164.908 0 0 0-2.325-3.173l-1.142-1.583a116.16 116.16 0 0 0-1.939-2.601l-1.595-2.146a606.92 606.92 0 0 0-4.027-5.21c5.632 10.428 12.282 21.181 19.386 31.374l2.09-1.412-.024.016Zm-3.907 2.64c-9.053-12.969-17.227-26.676-23.699-39.687l-4.802 3.245 2.264 2.599 2.884 3.411 3.598 4.414 2.089 2.608s2.039 2.642 2.778 3.628a983.396 983.396 0 0 1 2.954 3.943 310.348 310.348 0 0 1 11.238 16.31l.696-.471Zm-22.185 14.954-1.076-1.591c-.521-.879-2.487-3.788-2.487-3.788-.47-.696-2.217-3.282-2.83-4.135l-6.867 4.64 3.814 5.752 2.554 3.779 6.867-4.64.025-.017Zm-8.7 5.843c-2.176-3.166-4.285-6.34-6.418-9.498l-13.137 8.876 1.067 1.633 2.52 3.73 2.789 4.127 13.137-8.876.042.008Zm-14.971 10.079c-9.036-12.944-17.21-26.651-23.699-39.687l-5.076 3.43c7.123 13.223 15.261 26.447 24.181 39.325l4.602-3.11-.008.042Zm-6.411 4.296-2.52-3.73-3.31-4.898c-.571-.846-1.117-1.708-1.68-2.595l-11.445 7.734c2.319 3.647 4.856 7.402 7.476 11.172l11.446-7.733.033.05Zm-13.278 8.935-1.814-2.685-.841-1.243-2.553-3.779-1.227-1.815-4.553 3.076 3.731 5.628 2.637 3.904 4.628-3.127-.008.041Zm-6.394 4.321c-2.176-3.166-4.285-6.34-6.418-9.498l-137.51 92.553c2.175 3.165 4.284 6.34 6.418 9.498l137.51-92.553ZM210.154 304.68l-3.697-5.578-2.251-3.332-.437-.646-4.603 3.11 1.478 2.188a105.826 105.826 0 0 1 2.453 3.63l1.378 2.039 1.059 1.674 4.603-3.11.017.025Zm-26.109 17.569c-1.017-1.558-2.05-3.142-3.092-4.683l-3.276-4.849-13.162 8.894 2.554 3.779c1.293 1.915 2.587 3.829 3.814 5.753l13.137-8.877.025-.017Zm-14.97 10.079-3.798-5.727-2.57-3.804-6.842 4.623a449.713 449.713 0 0 0 3.596 5.429 689 689 0 0 0 2.763 4.036l6.901-4.591-.05.034Zm-8.659 5.851c-9.036-12.944-17.21-26.651-23.699-39.687l-4.802 3.245 3.446 3.973c.578.696 2.44 2.914 2.44 2.914.738.878 1.434 1.748 2.131 2.617l.57.737c.764.969 1.518 1.872 2.24 2.833l.403.596a83.53 83.53 0 0 1 2.358 3.007l.336.497c4.808 6.312 9.444 12.958 13.856 19.755l.696-.471.025-.016ZM394.194 164.39l-.739-1.094-.796.538.739 1.094.796-.538Zm-2.629 1.74-.739-1.094-6.768 4.573.739 1.094 6.768-4.573Zm-8.609 5.817a519.772 519.772 0 0 1-16.851-27.835l-12.391 8.372.86 1.701 1.92 3.7 1.979 3.733 2.079 3.774 2.145 3.766 2.229 3.781 2.313 3.798 2.563 4.062 13.137-8.877.017.025Zm-41.054 27.631c-6.017-9.334-11.61-18.737-16.602-28.003l-140.637 94.629a393.682 393.682 0 0 1 19.663 25.936l137.559-92.586.017.024Zm-139.393 93.789-2.779-3.953-3.467-4.755-3.534-4.747-3.591-4.672-3.633-4.571-2.642-3.213-5.075 3.43 3.144 3.634c.671.778 3.296 3.966 3.296 3.966l2.793 3.436 2.425 3.106 1.896 2.485s2.165 2.883 2.728 3.662l2.678 3.695 1.109 1.641 4.652-3.144Zm-6.419 4.337c-6.717-9.512-13.714-18.365-20.805-26.286a320.185 320.185 0 0 0-4.3-4.7l-2.321-2.416-10.524 7.112c.461.521 1.467 1.688 1.978 2.284 0 0 3.078 3.643 3.749 4.421l3.69 4.496 3.649 4.597 3.592 4.671c.553.713 3.517 4.722 3.517 4.722l3.483 4.781c.949 1.35 1.923 2.684 2.847 4.052l11.42-7.717.025-.017Zm-13.253 8.919c-8.515-12.173-17.451-23.627-26.555-33.99l-5.449 3.682a94.607 94.607 0 0 1 2.48 2.598 765.202 765.202 0 0 1 3.713 4.046l.494.571c7.008 7.904 13.988 16.733 20.689 26.22l4.603-3.11.025-.017Zm-6.436 4.313-1.059-1.566-2.686-3.654-2.728-3.662-2.76-3.603-2.819-3.528-2.868-3.494-2.868-3.386-2.373-2.706-12.39 8.372a498.898 498.898 0 0 1 19.422 26.062l13.137-8.877-.008.042Zm-14.97 10.079-4.056-5.734c-.605-.895-4.063-5.584-4.063-5.584l-4.138-5.534s-3.659-4.771-4.196-5.458l-2.969-3.752-3.459 2.337.792 1.601c4.407 8.721 9.539 17.711 15.296 26.714l6.793-4.59Zm-34.718 23.386c-6.302-9.757-12.114-19.592-17.284-29.281a304.277 304.277 0 0 0-6.285-6.727l-14.953 10.104 2.041 4.524 2.673 5.51.657 1.294 1.92 3.7 1.979 3.733 2.079 3.774 2.145 3.766 2.229 3.781 2.313 3.798 2.563 4.062 17.915-12.105.008.067Zm233.786-159.779-3.421-5.438c-.606-1.003-3.002-4.925-3.002-4.925l-2.935-4.934-2.81-4.91-2.702-4.91-.649-1.228-10.922 7.38c4.323 8.704 9.355 17.654 15.012 26.616l11.42-7.717.009.066Zm-13.253 8.919-1.404-2.238-2.329-3.822-2.246-3.807-2.162-3.79-2.096-3.799-2.139-4.023-.927-1.801.008-.15-.075.051-1.676-3.286-5.076 3.43.606 1.111 2.71 4.869 2.81 4.91 2.894 4.926 3.002 4.925 3.505 5.563 4.603-3.11-.008.041ZM145.31 329.445l-.336-.497c-.647-1.012-1.152-1.866-1.698-2.728l-1.387-2.214c-.622-1.028-3.019-4.95-3.019-4.95l-2.918-4.909-2.81-4.909-2.87-5.16-1.171-2.215a685.046 685.046 0 0 0-3.964-4.311l-1.818-1.886a109.118 109.118 0 0 0-2.345-2.399 539.01 539.01 0 0 0-2.304-2.282 55.266 55.266 0 0 0-1.607-1.521 72.149 72.149 0 0 0-2.236-2.075l-4.553 3.076s2.959 3.361 3.789 4.321c0 0 3.505 4.114 4.377 5.191l1.208 1.465c1.032 1.259 2.08 2.543 3.129 3.826l1.098 1.358c1.082 1.333 2.14 2.683 3.18 4.008l.864 1.118c1.125 1.45 2.232 2.875 3.332 4.341l.47.696a399.482 399.482 0 0 1 10.644 14.573l2.887-1.95.058.033Zm-4.702 3.177c-9.129-13.026-18.644-25.284-28.311-36.534 5.205 12.744 12.649 26.872 21.576 41.049l6.718-4.539.017.024Zm-8.551 5.742-1.421-2.263-2.329-3.823-2.246-3.806c-.488-.829-2.162-3.79-2.162-3.79l-2.096-3.799-2.02-3.741-1.921-3.7-1.837-3.685-1.737-3.643-1.831-4.05-5.448 3.682.421.838c.455.887 1.668 3.219 1.668 3.219l.817 1.584 1.38 2.58c6.74 7.507 13.451 15.937 19.916 24.969l.846-.572Zm-2.688 1.816c-4.189-5.825-8.502-11.458-12.88-16.757.134.199 1.515 2.671 1.515 2.671.647 1.12 2.893 4.926 2.893 4.926l3.002 4.925 3.505 5.563 1.941-1.311.024-.017Zm271.369-184.449-1.572-2.487c-.874-1.401-1.773-2.785-2.631-4.162l-.95-1.567c-.874-1.401-1.707-2.794-2.556-4.212 0 0-2.641-4.445-3.466-5.879l-.791-1.385c-.841-1.46-1.699-2.945-2.499-4.396l-.749-1.377c-.816-1.477-1.616-2.928-2.415-4.38l-.766-1.402a236.054 236.054 0 0 1-2.282-4.288l-.084-.125-5.25 3.548a240.923 240.923 0 0 0 4.614 9.992s2.876 3.453 3.447 4.19c0 0 2.978 3.71 3.649 4.596 0 0 2.903 3.76 3.591 4.672 0 0 2.938 3.918 3.517 4.722l3.484 4.78.79 1.169 2.96-2.001-.041-.008Zm-4.752 3.211a418.953 418.953 0 0 0-11.776-15.764 312.836 312.836 0 0 0 9.909 17.025l1.867-1.261Zm-3.7 2.464-.655-.97-2.304-3.839-2.246-3.807-2.162-3.79-2.079-3.774-2.021-3.741-1.937-3.725-1.542-3.087a349.021 349.021 0 0 0-5.911-6.871l-5.449 3.682a94.607 94.607 0 0 1 2.48 2.598 806.732 806.732 0 0 1 3.713 4.046l.495.571c6.32 7.102 12.578 14.969 18.648 23.362l.945-.639.025-.016Zm-2.761 1.866-1.722-2.387-2.727-3.661-2.761-3.603-2.819-3.528-2.868-3.494-2.868-3.386-2.372-2.707-3.459 2.337.53.945 3.282 5.715c.521.878 3.381 5.755 3.381 5.755l3.506 5.779 3.598 5.754.622.92 6.643-4.489.034.05ZM93.845 362.264l-1.093-1.724c-1.042-1.65-2.101-3.325-3.102-4.967l-.352-.522c-1.144-1.907-2.161-3.573-3.154-5.257l-.404-.705-3.112-5.249-.319-.472c-.943-1.717-1.91-3.418-2.861-5.093l-.42-.73c-.994-1.791-1.953-3.533-2.896-5.25l-.236-.457a321.755 321.755 0 0 1-2.669-4.968l-.438-.863c-.834-1.61-1.65-3.195-2.468-4.779l-.421-.838c-.86-1.701-1.694-3.419-2.52-5.07l-.295-.597c-.742-1.527-1.442-3.046-2.15-4.523l-.506-1.071c-.666-1.469-1.34-2.896-1.99-4.341l-.465-1.062-2.438 1.647c3.217 15.971 13.283 38.323 27.674 61.338l6.618-4.472.017.025Zm-8.451 5.674c-14.216-22.808-24.323-45.06-27.799-61.253l-13.41 9.061 1.535 3.453c.473 1.021.92 2.059 1.41 3.104l2.613 5.478 2.747 5.567 2.89 5.617s2.517 4.745 3.03 5.666l3.157 5.69 3.28 5.714 3.4 5.78 3.489 5.755 3.614 5.778.605.895 9.405-6.354.034.049Zm330.408-259.905c-.637-.729-3.612-3.897-3.612-3.897a172.588 172.588 0 0 0-3.385-3.508c-6.994-7.08-13.564-12.673-19.533-16.68L386.237 86c1.92 9.277 6.194 20.912 12.356 33.625l17.167-11.6.042.008Zm-19.175 12.92-3.379-3.982-3.236-3.717-5.524 3.733c.704.719 3.795 3.954 3.795 3.954a206.752 206.752 0 0 1 3.102 3.409l.05.075 5.15-3.48.042.008Zm-26.681 17.956c-.712-.786-1.391-1.523-2.087-2.284l-1.324-1.423a247.096 247.096 0 0 0-2.354-2.466l-1.269.858 2.408 4.529 1.566 2.854 3.06-2.068Zm-4.893 3.27a338.381 338.381 0 0 1-3.999-7.366l-11.868 8.019 2.042 4.524 1.492 3.12 12.316-8.322.017.025Zm-14.15 9.524c-6.119-12.596-10.451-24.156-12.521-33.549l-7.44 5.027c3.823 9.947 8.807 20.703 14.794 31.977l5.151-3.48.016.025Zm-6.966 4.708-.892-1.643-2.654-5.16-2.36-4.78-2.259-4.739-2.346-5.187-9.629 6.506c2.264 6.836 5.373 14.333 9.25 22.324l10.873-7.346.017.025Zm-12.706 8.549-1.863-3.884-1.468-3.245-.017-.025-.228-.498-5.449 3.682.438.862 2.485 4.804.952 1.784 5.15-3.48Zm-6.984 4.682a583.995 583.995 0 0 1-3.874-7.45l-142.602 95.957c1.844 2.086 3.655 4.23 5.466 6.374l140.994-94.906.016.025Zm-142.826 96.109a967.053 967.053 0 0 0-3.379-3.982l-2.088-2.392-5.424 3.665 2.196 2.283.059.249.1-.067.234.24a184.62 184.62 0 0 1 3.16 3.442l5.167-3.455-.025.017Zm-26.681 17.955c-.695-.761-3.612-3.897-3.612-3.897a561.73 561.73 0 0 0-2.178-2.258l-11.843 8.002.864 1.01a263.937 263.937 0 0 1 4.436 5.44l12.292-8.305.041.008Zm-14.124 9.508c-.855-1.052-3.707-4.521-4.227-5.184l-1.107-1.316-1.294.874 1.797 4.001 1.754 3.668 3.06-2.068.017.025Zm-4.901 3.312c-3.06-6.299-5.677-12.317-7.75-17.906l-5.996 4.052c2.564 5.619 5.479 11.435 8.595 17.334l5.151-3.48Zm238.67-202.59a228.948 228.948 0 0 1 6.725 6.573 258.344 258.344 0 0 1 4.834 5.063 397.129 397.129 0 0 1 4.836 5.28s2.02 2.293 2.783 3.153c-4.455-9.918-7.648-19.096-9.309-26.702l-9.852 6.657-.017-.025Zm-.494 33.326-.38-.83-.224.151c.193.232.411.447.604.679ZM116.752 286.161a236.729 236.729 0 0 1 4.781 4.555l.344.348a136.5 136.5 0 0 1 3.426 3.515l-2.452-4.97-2.243-4.714-.473-1.021-3.383 2.287Zm-11.138 21.65c-.144-.265-.262-.548-.422-.838l-.224.151c.218.215.436.43.646.687Zm264.382-181.648-.319-.364a380.22 380.22 0 0 0-4.693-5.122l-.914-.976a268.389 268.389 0 0 0-11.525-11.479l-1.493 1.008.735 1.677s1.805 3.959 2.227 4.905l2.613 5.477 1.071 2.174c2.126 1.86 4.42 4.076 6.749 6.45l5.524-3.733.025-.017Zm-7.382 4.952c-.704-.72-1.399-1.373-2.052-2.018l1.306 2.522.746-.504Zm-2.588 1.748a695.903 695.903 0 0 1-4.195-8.247c-4.311-3.859-8.527-7.203-12.431-9.816l-3.036 2.051.146.806.256 1.022c.163.724.274 1.264.444 1.837l.247.956c.188.706.358 1.388.554 2.052 0 0 .764 2.526.934 3.099l1.068 3.19 1.202 3.28.245.631-.024.125.049-.033 1.885 4.774.954 2.217 11.719-7.919-.017-.025Zm-33.266 22.37-.506-1.179-1.479-3.637-1.167-3.014.016-.083-.025.017-1.32-3.671-.373-1.088-6.32 4.27.372.871 2.109 4.623 2.226 4.689.935 1.867 5.524-3.732.008.067Zm-7.364 4.976c-3.885-7.841-7.236-15.428-10.009-22.536L159.196 238.758a227.689 227.689 0 0 1 6.725 6.574c1.734 1.762 3.276 3.4 4.835 5.063a397.707 397.707 0 0 1 4.835 5.28l.729.811 143.076-96.277Zm-164.564 110.76-.319-.364a933.941 933.941 0 0 0-4.652-5.114l-.93-1.001a289.404 289.404 0 0 0-4.591-4.757c-3.727-3.747-7.487-7.327-11.279-10.632l-8.459 5.716c7.033 3.759 15.567 10.596 24.706 19.884l5.524-3.732Zm-7.407 4.969c-6.877-6.907-13.338-12.392-19.19-16.333l-3.035 2.051.171.79.222.864c.213.906.325 1.447.478 1.995 0 0 .622 2.369.808 2.967 0 0 .748 2.501.935 3.099l.322 1.013c.297.922.501 1.545.729 2.151l.889 2.442c1.927 2.102 3.956 4.461 6.019 6.87l11.719-7.918-.067.009Zm-13.552 9.12-1.903-2.227c.347.889.718 1.761.718 1.761l.414.987.746-.504.025-.017Zm-22.302 14.997-.447-1.038-1.428-3.453-1.31-3.388-.398-1.071-.134-.091c-.495-.571-1.927-2.102-2.439-2.698l-5.001 3.379.338.822c.38.83 2.092 4.598 2.092 4.598.447.93 2.226 4.689 2.226 4.689l.961 1.958 5.524-3.732.016.025Zm-7.34 4.96c-4.988-10.065-9.083-19.612-12.15-28.333l-13.335 9.011c7.142 3.866 15.65 10.72 24.689 19.86l.796-.538Zm-2.662 1.798c-8.351-8.444-16.291-14.886-23.042-18.762l.121.823c.104.69.182 1.181.276 1.696 0 0 .447 2.27.55 2.744 0 0 .538 2.352.674 2.876 0 0 .622 2.368.826 2.991l.305.989.637 2.069 1.068 3.189s.94 2.625 1.185 3.256l.398 1.071-.04.208.074-.05 1.243 3.18-.04.208.074-.05 1.351 3.18 14.307-9.667.033.049Zm286.967-195.206a332.888 332.888 0 0 0-4.249-4.625l-.703-.72c-1.492-1.563-2.925-3.094-4.39-4.566l-.252-.265a194.458 194.458 0 0 0-6.465-6.243l-1.617 1.093a379.759 379.759 0 0 0 6.477 13.876c1.573 1.364 3.34 3.067 5.174 4.87l.269.289.017.133 5.673-3.833.066-.009Zm-7.489 5.061-.82-.786c.176.316.345.672.522.988l.298-.202Zm-2.131 1.404c-.767-1.51-2.57-5.036-2.57-5.036l-.842-1.676-1.063-.876a120.578 120.578 0 0 0-6.518-5.41c1.403 5.027 3.376 10.575 5.842 16.478l5.151-3.48Zm-6.967 4.707-1.191-2.889-1.311-3.388-1.295-3.579-1.077-3.256-.968-3.149-.817-3.033-.213-.798c-.425-.147-1.077-.576-1.771-1.012l-.535-.363-8.31 5.615c1.741 1.612 3.5 3.357 5.293 5.152l1.198 1.182 2.111 2.159c.812.827 2.999 3.152 2.999 3.152l.034.05.93 1.001a230.704 230.704 0 0 1 3.637 3.989l1.244-.841.042.008ZM173.347 256.43a299.673 299.673 0 0 0-4.249-4.626l-.628-.661a304.794 304.794 0 0 0-4.465-4.625 226.188 226.188 0 0 0-6.7-6.482l-7.415 5.01c5.385 3.677 11.268 8.683 17.449 14.828l.361.372 5.623-3.799.024-.017Zm-7.464 5.044-1.29-1.266-1.674-1.62a322.95 322.95 0 0 0-2.604-2.406l-1.013-.909c-6.27-5.578-12.04-9.719-17.11-12.341l-7.215 4.875c3.047 2.686 6.262 5.728 9.554 9.045l1.265 1.282 2.053 2.126c.829.852 3.988 4.186 3.988 4.186a255.328 255.328 0 0 1 3.654 4.013l10.351-6.993.041.008ZM433.581 70.306a230.418 230.418 0 0 0-3.495-3.831l-1.55-1.705a206.43 206.43 0 0 0-3.611-3.79l-2.346-2.398a199.91 199.91 0 0 0-3.518-3.49l-.084-.124-.05-.075s-1.927-1.885-2.772-2.654c-.838-.81-1.7-1.604-2.562-2.397-7.41-6.836-14.463-12.5-20.991-16.853L374.986 44.89c6.671 4.51 13.934 10.431 21.579 17.616 6.46 1.14 15.31 6.568 25.488 15.625l11.62-7.851-.092.025Zm-13.519 9.062c-7.675-6.8-14.656-11.5-20.298-13.736l2.613 2.58 1.215 1.208a175.51 175.51 0 0 1 2.957 3.036c.846.877 1.726 1.803 2.589 2.705l2.136 2.25a329.36 329.36 0 0 1 4.459 4.883l4.329-2.926ZM126.689 276.84c-1.123-1.233-2.23-2.441-3.336-3.649l-1.374-1.498-.043-.225-.1.068-.234-.24c-1.056-1.134-2.103-2.201-3.143-3.31l-1.022-1.083-1.642 1.109c1.556 4.019 3.346 8.278 5.271 12.627l5.623-3.799Zm-7.481 5.019-.946-2.15-4.976 3.362a52.686 52.686 0 0 1 1.791 1.578l4.131-2.79Zm-6.022 4.068c-.627-.554-1.222-1.057-1.832-1.586l-2.762 1.866c.246.739.508 1.503.771 2.267l3.782-2.555.041.008ZM366.547 99.231c.18.856.377 1.737.574 2.619 1.713 1.087 3.746 2.647 5.98 4.506-.48-.979-.953-2-1.391-2.971l-.65-1.445c-.608-1.328-1.232-2.68-1.822-3.983l-.161-.4-2.513 1.699-.017-.025Zm-26.798 10.756c4.059 2.146 8.642 5.388 13.663 9.6-2.302-4.855-4.496-9.71-6.456-14.434l-7.19 4.859-.017-.025ZM119.262 265.633a399.855 399.855 0 0 1 6.611 7.049 100.962 100.962 0 0 1-2.68-9.706l-3.956 2.674.025-.017Zm213.286-132.781-.869-1.984-1.817-4.459-.761-1.984-8.41 5.682c.575 2.835 1.384 5.91 2.386 9.108l9.454-6.388.017.025Zm-11.362 7.641-.934-3.099-.638-2.285-.811-3.291.025-.017-.06-.358-7.44 5.027.905 2.358-.024.233.1-.067 1.926 4.674.54 1.229 6.469-4.371-.058-.033ZM117.359 277.674l-.869-1.984-1.707-4.134-.879-2.267-8.41 5.682c.164.832.36 1.713.574 2.619 1.42.815 3.244 2.226 5.461 4.06l5.822-3.934.008-.042Zm-7.754 5.204a86.25 86.25 0 0 0-2.719-2.147c.289 1.072.637 2.177.985 3.282l1.717-1.16.017.025Zm-3.608 2.437-.942-3.057-1.047-3.856c-2.75-1.763-5.358-3.369-7.696-4.578l-1.07.723 1.507 1.48c.955.985 1.935 1.952 2.907 2.962.88.926 3.326 3.474 3.326 3.474l1.4 1.481 1.391 1.523.224-.152Zm-2.065 1.396-1.283-1.415-1.525-1.614a249.057 249.057 0 0 0-3.778-3.929l-1.533-1.572c-.47-.479-.922-.934-1.374-1.389l.872 2.416 1.683 4.368a701.07 701.07 0 0 0 1.816 4.459l.735 1.676 4.404-2.975-.017-.025ZM387.258 82.63c-.619-.38-1.22-.733-1.822-1.087.104.69.208 1.38.329 2.095l1.493-1.008Zm-3.459 2.337a56.953 56.953 0 0 1-.693-4.674c-1.554-.798-2.89-1.38-4.066-1.78a25.954 25.954 0 0 0-2.269-.676l-.35-.09a22.9 22.9 0 0 0-1.7-.263l-.359-.048c-.658-.062-1.074-.034-1.49-.007l-.375.036-.349.019c-.308.027-.608.12-.907.214-.299.094-.457.128-.64.179l-2.687 1.816-.058.075a9.1 9.1 0 0 0-.801 1.12c-.338.627-.56 1.103-.748 1.629-.229.626-.359 1.184-.497 1.785.336.605.717 1.543 1.13 2.531l.296.706c1.522 1.18 3.364 2.833 5.549 4.834l11.022-7.448-.008.041Zm-12.93 8.7c-.586-.546-1.197-1.074-1.783-1.62l.937 2.192.846-.572Zm-29.467 19.839c-.619-.379-1.237-.758-1.822-1.087 0 0 .252 1.713.329 2.095l1.493-1.008Zm-3.459 2.336a56.934 56.934 0 0 1-.693-4.673c-1.579-.781-2.89-1.38-4.066-1.78a25.68 25.68 0 0 0-2.269-.676l-.35-.09c-.6-.137-1.15-.2-1.7-.263l-.384-.031c-.641-.037-1.057-.01-1.49-.007l-.458.02-.532.07c1.114 3.955 2.538 8.208 4.188 12.634l7.787-5.262-.033.058Zm-9.62 6.465-.025.017-1.676-4.626-1.399-4.162-1.121-3.697-.136-.523-1.891 1.278-.075.05c-.339.41-.578.753-.776 1.104-.338.626-.56 1.102-.723 1.611-.238.668-.376 1.268-.539 1.885-.17.767-.233 1.425-.303 2.125-.07.916-.116 1.599-.103 2.315l-.066.117.025-.017.01.391c-.003.799.027 1.648.115 2.53.118 1.623.319 3.261.646 5.032l8.086-5.464-.049.034Zm-10.094 6.784-.45-2.811-.166-1.372-8.484 5.732 1.337 3.696 7.763-5.245Zm-9.646 6.481a145.96 145.96 0 0 1-1.354-3.72L154.65 234.55c.979.86 1.95 1.761 2.921 2.662l151.012-101.64Zm59.423-40.404c-.254-.59-.87-1.984-1.123-2.574l-1.538-3.777-.005.474c.005.866.043 1.781.099 2.722.1 1.38.308 2.87.576 4.5l1.991-1.346Zm-3.981 2.69-.414-2.437-.167-1.373-3.981 2.69a54.15 54.15 0 0 1 3.318 1.96l1.219-.824.025-.017Zm-3.235 2.185a46.954 46.954 0 0 0-3.392-1.91l-7.215 4.876c.887.777 1.749 1.57 2.67 2.397l7.937-5.363Zm-9.894 6.649c-.494-.463-1.013-.909-1.507-1.372l.785 1.86.722-.488ZM155.68 238.49a119.175 119.175 0 0 0-2.946-2.645l-8.435 5.699a50.884 50.884 0 0 1 3.643 2.174l7.738-5.228Zm-29.442 19.821c-.619-.378-1.22-.732-1.822-1.087 0 0 .243 1.647.304 2.113l1.493-1.009.025-.017Zm-3.484 2.354a63.343 63.343 0 0 1-.693-4.674c-1.579-.78-2.89-1.379-4.083-1.805a26.022 26.022 0 0 0-2.269-.676l-.333-.064c-.6-.138-1.167-.226-1.742-.272l-.425-.039c-.6-.029-1.033-.026-1.449.002l-.507.053c-.2.026-.358.06-.491.078a168.423 168.423 0 0 0 1.774 5.791c1.583 1.429 3.358 3.199 5.168 5.019l5.026-3.396.024-.017Zm-6.908 4.632s-1.248-1.257-1.759-1.745c.279.789.559 1.578.863 2.35l.896-.605Zm-2.737 1.849-1.693-4.65-.865-2.567c-.51-.38-1.205-1.033-1.9-1.686l-2.344-2.182c-.091.134-.182.267-.256.426l-.197.351c-.214.434-.387.768-.527 1.152l-.188.526c-.122.409-.245.817-.334 1.276l-.138.6c-.089.458-.144.967-.224 1.492l-.088.674c-.038.534-.051 1.158-.081 1.758l-.021.666c.013.824.035 1.714.132 2.663.126 1.472.31 3.086.637 4.857l8.036-5.43.051.074Zm-10.044 6.751-.45-2.811-.183-1.397-3.98 2.689a51.226 51.226 0 0 1 3.643 2.174l.97-.655ZM61.113 301.7l-1.106-2.548s-1.182-2.823-1.58-3.786a29.661 29.661 0 0 0 .094 3.196c.1 1.381.284 2.887.576 4.5l1.99-1.345.026-.017Zm-3.981 2.69a50.612 50.612 0 0 1-.766-5.639c-.243-3.095-.126-5.818.343-8.127l-.218-.215-1.21-3.239c-.364-1.021-.752-2.026-1.117-3.047 0 0-1.373-4.07-1.627-4.876 0 0-1.197-3.863-1.46-4.736 0 0-1.09-3.972-1.252-4.587l-.588-2.427a44.423 44.423 0 0 1-.479-1.994l-.548-2.636c-.111-.54-.223-1.08-.318-1.596l-.44-2.636a54.362 54.362 0 0 1-.216-1.447l-.324-2.678-17.591 11.886.09 1.098c.054.724.15 1.456.246 2.188l.19 1.247c.157 1.089.278 1.913.416 2.761l.327 1.663c.163.831.326 1.663.506 2.519l.29 1.288c.266 1.197.496 2.128.743 3.084l.35 1.321c.289 1.072.561 2.119.868 3.216l.365 1.238c.34 1.147.68 2.293 1.061 3.448l.517 1.57c.373 1.088.704 2.168 1.094 3.281l.584 1.669c.424 1.163.796 2.251 1.194 3.322l.423 1.055-.049.25.1-.067.33.863c.372.98.744 1.96 1.133 2.965l1.04 2.557a78.97 78.97 0 0 0 1.122 2.681l.929 2.125 13.834-9.347.108-.001ZM363.238 91.544c-.012-.608-.071-2.197-.081-2.48 0 0 .026-1.14.066-1.457l.099-.176-.108.001.006-.366a77.061 77.061 0 0 0-2.878-2.33l-12.018 8.121c2.624.183 5.627 1.087 8.909 2.672l5.971-4.035.034.05Zm-8.153 5.473a29.057 29.057 0 0 0-2.245-.91c-.81-.286-1.527-.49-2.269-.676l-.334-.064c-.6-.138-1.167-.226-1.741-.272l-.575-.046a10.49 10.49 0 0 0-1.257.017c-.375.035-.55.045-.725.054a4.026 4.026 0 0 0-.565.129l.296.814-.05.033.084.016.068.208c.49 1.262.896 2.4 1.353 3.504l.413.988.242.09.687.587 6.618-4.472Zm-8.999 6.044-.489-1.154-.552-.388a158.423 158.423 0 0 0-4.058-3.27s-.256.427-.33.585c-.14.276-.28.551-.395.81l-.253.751a12.1 12.1 0 0 0-.261.901l-.203.934a17.32 17.32 0 0 0-.16 1.05l-.111 1.016c-.014.408-.053.833-.076 1.282l-.027 1.033c.002.324.021.674.015 1.04l6.892-4.657.008.067Zm-28.721 19.334c-.012-.607-.071-2.197-.081-2.48l.096-2.057c.024-.233.005-.474.029-.708a2.82 2.82 0 0 1 .056-.399 28.4 28.4 0 0 1 .249-1.617l.064-.442.138-.492.294-1.067-12.092 8.17.196.773 1.214 3.996.789 2.401 8.982-6.069.066-.009ZM306.5 129.7a133.56 133.56 0 0 1-2.24-7.177l-157.1 105.716a136.388 136.388 0 0 1 5.79 4.816L306.5 129.7Zm64.296-54.163c.249-.06.457-.128.723-.163.491-.078.974-.115 1.498-.143l.566-.02c.649-.005 1.349.065 2.066.16 2.267.352 4.628 1.11 7.25 2.31-.333-6.983 1.287-11.88 4.72-14.2a9.85 9.85 0 0 1 1.428-.784c1.063-.465 2.294-.68 3.667-.74-14.24-12.976-26.905-21.368-36.789-24.358l-.048.466a36.24 36.24 0 0 0-.123 3.09l.325-.003-.355.494-.006.366c.015 1.257.048 2.539.156 3.878.72 9.111 3.451 20.34 8.166 33.379l3.856-2.606s.249-.168.382-.186l.373-.252c.233-.085.432-.22.665-.304.556-.195.856-.289 1.147-.34l.341-.086-.008.041ZM151.01 234.365a187.137 187.137 0 0 0-5.816-4.798l-12.042 8.137c2.624.182 5.627 1.087 8.909 2.672l8.932-6.036.017.025Zm-11.114 7.473c-1.653-.73-3.172-1.261-4.539-1.568l-.308-.082a15.871 15.871 0 0 0-1.742-.271l-.575-.046c-.45-.022-.866.005-1.299.008l-.699.038c-.333.044-.632.137-.973.223l-.732.204c-.307.136-.573.279-.863.439-.125.084-.199.134-.291.16l.203.407-.601-.138-.19.201c2.066 1.61 4.024 3.22 5.966 4.914l6.618-4.472.025-.017Zm-8.576 5.759a141.72 141.72 0 0 0-5.48-4.518c-.083.092-.124.192-.182.268a2.71 2.71 0 0 0-.189.417l-.23.518a4.092 4.092 0 0 0-.279.659c-.058.184-.229.842-.229.842-.146.534-.236.776-.285 1.026-.04.209-.089.459-.112.692l-.089.567c-.047.358-.096.608-.128.883-.023.233-.083 1.432-.083 1.432-.023.342-.021.666-.044 1.008.002.216.03.74.023 1.107l7.291-4.926.016.025ZM325.663 106.25a14.01 14.01 0 0 1 1.498-.143l.566-.021c.666.021 1.349.066 2.066.162 2.267.351 4.628 1.11 7.25 2.308a16.827 16.827 0 0 1-.035-1.715l.005-.474c.02-.774.041-1.549.112-2.248l.056-.4c.054-.725.166-1.417.295-2.084l.082-.308a27.78 27.78 0 0 1 .513-1.868l.123-.3c.214-.543.469-1.078.716-1.57l.172-.334s.157-.251.223-.368c-6.248-4.688-11.905-8.072-16.879-10.07l-.005.69a55.81 55.81 0 0 0 .128 3.246c.343 4.476 1.298 9.698 2.839 15.465.092-.025.183-.051.291-.052l-.016.084ZM102.176 267.218c-.012-.608-.088-2.222-.081-2.48 0 0 .102-2.532.142-2.74l.039-.425c.104-.758.168-1.2.249-1.616l.08-.417s.09-.35.139-.492c0 0 .302-1.109.351-1.251l-12.133 8.27.22.757.816 2.708a31.715 31.715 0 0 1 4.207 1.721l5.971-4.035Zm-8.136 5.497a17.2 17.2 0 0 0-1.202-.491l.034.049.628.554.117.174.398-.269.025-.017Zm-2.729 1.808-.432-1.337c-.435-.322-1.038-.893-1.64-1.463l-1.023-.976s.017.025-.008.042c-.05.033-.24.018-.45-.022l-.824-.095a8.714 8.714 0 0 0-1.324.026c-.35.019-.525.028-.683.062a7.5 7.5 0 0 0-.972.223c-.341.086-.524.137-.707.188-.307.135-.573.278-.863.438-.34.194-.507.27-.507.27l-.522.461c-.256.21-.389.336-.505.487l-.198.242s-.562.778-.653.912c-.098.175-.172.334-.288.485-.074.158-.42.935-.42.935-.081.2-.163.4-.229.626-.057.183-.318 1.084-.318 1.084-.065.333-.122.517-.162.725-.04.208-.2 1.367-.2 1.367l-.088.674a7.505 7.505 0 0 0-.045.9l-.038.533c.002.325-.03.599-.045.899.002.325.015 1.149.015 1.149l13.138-8.877-.009.042Zm19.146-23.476a9.921 9.921 0 0 1 1.515-.118l.566-.02c.666.02 1.349.066 2.083.186 2.25.327 4.611 1.085 7.249 2.308a30.719 30.719 0 0 1-.059-1.697l-.002-.325c.011-.949.048-1.698.119-2.398l.039-.425c.071-.7.183-1.391.312-2.058l.065-.334a17.55 17.55 0 0 1 .505-1.826l.132-.342c.213-.543.418-1.044.682-1.511l.206-.393s.132-.234.214-.326c-6.223-4.704-11.905-8.072-16.879-10.071l-.004.691c.005.974.061 2.023.134 3.096.344 4.585 1.316 9.831 2.874 15.623.091-.025.183-.051.291-.052l-.042-.008ZM61.054 283.27a9.139 9.139 0 0 1 1.378-.75c3.372-1.445 7.947-.843 13.558 1.776-.037-.591-.049-1.198-.069-1.764l-.003-.433c.004-.799.024-1.573.103-2.315l.048-.358c.08-.742.175-1.458.304-2.125.228-.95.39-1.567.595-2.176l.106-.326c.214-.542.419-1.043.683-1.511l.205-.393c.231-.409.52-.786.776-1.104.199-.242.29-.376.397-.485.248-.276.555-.52.82-.771.29-.268.414-.353.564-.453l3.98-2.69c-13.736-12.339-26-20.35-35.559-23.235-.023.233-.039.425-.054.617l-.025.016-.023.342a33.49 33.49 0 0 0-.074 3.055l.02.566c.017 1.366.082 2.481.155 3.662.272 3.62.895 7.653 1.811 11.959 1.481 6.858 3.809 14.593 6.897 22.972.806-1.811 1.897-3.2 3.315-4.159l.092.083ZM343.957 97.764a40.037 40.037 0 0 0-.677-1.752l-.15-.008.034.05-.299.202a7.323 7.323 0 0 0-.414.352c.485.397.995.776 1.481 1.173l.025-.017Zm19.58-13.34.033-.166-.524-1.312-.722.488c.393.314.803.652 1.213.99ZM109.228 255.718l-.485-1.628-.721.487 1.206 1.141ZM89.53 268.99c-.153-.548-.331-1.08-.467-1.603l-.747.504 1.206 1.141.008-.042ZM336.028 91.822a94.23 94.23 0 0 1 4.683 3.39c.174-.117.779-.67.878-.738l.921-.622a192.584 192.584 0 0 1-1.813-5.149l-4.677 3.16.008-.041Zm-13.979 15.783s.249-.168.407-.202c0 0 .68-.388.846-.464l-.358-1.388-.828-3.424-.745-3.624s-.537-3.368-.598-3.834a56.71 56.71 0 0 1-.193-1.789l-17.591 11.886.036.483c.097.84.159 1.522.238 2.229 0 0 .459 2.986.528 3.41 0 0 .601 3.034.712 3.575l.897 3.74.145.59 16.546-11.18-.042-.008Zm40.133-27.01s-.905-2.466-1.219-3.412c0 0-1.296-3.796-1.509-4.486 0 0-1.239-4.088-1.46-4.735 0 0-1.106-3.997-1.251-4.587 0 0-.939-3.857-1.067-4.422 0 0-.763-3.758-.866-4.232 0 0-.596-3.617-.64-4.058 0 0-.185-1.722-.324-2.678L336.255 59.87l.107 1.123c.079.707.133 1.43.254 2.146l.207 1.272c.14 1.065.286 1.871.424 2.72l.55 2.743c6.261 1.383 13.821 5.437 22.519 11.982l1.891-1.278-.025.017Zm-3.881 2.624a97.038 97.038 0 0 0-4.624-3.25l-11.072 7.481s.517 1.57.763 2.31l.449 1.253.567 1.537 13.908-9.398.009.067ZM120.839 236.645a94.137 94.137 0 0 1 4.683 3.39c.149-.101.282-.226.389-.335.282-.227.39-.336.514-.42l16.67-11.264a106.226 106.226 0 0 0-4.607-3.224l-17.616 11.902-.033-.049Zm-13.979 15.783s.249-.168.382-.186l.373-.252c.183-.051.332-.152.474-.211l-.298-1.031-.93-3.789-.746-3.625-.388-2.345-.234-1.472-.194-1.789-9.554 6.456c3.338 2.634 6.828 5.6 10.36 8.79l.722-.488.033-.058Zm-2.612 1.765a222.132 222.132 0 0 0-10.428-8.781l-6.095 4.119.106 1.015c.061.574.106 1.123.185 1.722l.25 1.605c.08.599.182 1.181.278 1.805 0 0 .584 3.009.695 3.55 0 0 .769 3.283.88 3.715l.162.615 13.933-9.415.034.05Zm-15.866 10.684c-1.363-5.127-2.29-9.824-2.731-14.017l-.148-1.131-.047-.874a39.763 39.763 0 0 1-.138-3.529l.023-.341c.01-1.274.07-2.257.14-3.173l.064-.441c.071-.592.126-1.208.214-1.775l-.067-.099-17.682 11.911c5.768 3.925 11.985 8.887 18.48 14.747l1.916-1.295-.024.017ZM351.662 78.65c-4.989-3.147-9.507-5.274-13.368-6.322l.069.316c.264 1.088.486 2.06.725 3.058l.46 1.754a74.68 74.68 0 0 0 .775 2.808l.382 1.263c.34 1.147.663 2.269 1.044 3.423l.127.349 9.803-6.624-.017-.025Zm-11.669 7.885c-1.704-5.258-3.082-10.194-4.05-14.683a11.16 11.16 0 0 0-1.2-.167l-.7-.07a12.975 12.975 0 0 0-1.715.036c-.458.02-.699.038-.899.064-.424.07-.832.163-1.239.258-.391.119-.615.162-.848.247l-3.533 2.387-.256.318c-.256.318-.504.703-.727 1.07a8.24 8.24 0 0 0-.346.56 16.129 16.129 0 0 0-.838 1.87l-.107.326a15.66 15.66 0 0 0-.537 1.993l-.105.542c-.145.858-.242 1.466-.304 2.124l-.094 1.042c3.463 1.317 7.355 3.323 11.56 6.06l5.946-4.019-.008.042ZM136.498 223.456c-5.415-3.403-10.2-5.602-14.252-6.558l-.35-.089a21.702 21.702 0 0 0-2.351-.368l-.425-.039a13.24 13.24 0 0 0-1.99.005l-.615.054c-.708.079-1.14.19-1.572.301-.366.103-.549.154-.757.222l-3.583 2.421-.198.242a17.14 17.14 0 0 0-.809 1.163l-.281.443c-.313.61-.6 1.203-.838 1.87l-.098.284c-.213.65-.392 1.351-.579 2.093l-.113.583a49.888 49.888 0 0 0-.313 2.059c-.04.316-.094 1.041-.094 1.041 3.33 1.227 7.314 3.315 11.56 6.059l17.616-11.902.042.116ZM320.29 90.36c-.081-1.032-.087-2.006-.093-2.98l.001-1.34a22.433 22.433 0 0 0-2.502-.7l-.292-.056a22.273 22.273 0 0 0-2.392-.376l-.658-.062c-.6-.03-1.208-.017-1.757.028a7.988 7.988 0 0 0-2.146.364c-.499.12-.732.204-.964.29-.441.152-.806.362-1.196.59 0 0-.506.27-.606.337 0 0-.249.168-.356.277-.522.461-.779.67-1.002.93-.141.168-.256.318-.372.469-.372.469-.579.753-.793 1.08-.157.25-.272.509-.412.784-.206.393-.362.752-.518 1.11a7.76 7.76 0 0 0-.344.994c-.122.408-.27.834-.375 1.267-.073.376-.187.743-.243 1.142-.097.5-.169.984-.249 1.509-.056.4-.112.8-.151 1.225-.047.574-.077 1.174-.107 1.773 0 0-.019.991-.034 1.291-.004.583.024 1.215.036 1.823l17.516-11.836.009.067ZM105.126 235.166c-.063-.791-.084-1.573-.114-2.314l-.003-1.989a22.267 22.267 0 0 0-2.502-.7l-.292-.056a22.364 22.364 0 0 0-2.392-.376l-.658-.062c-.6-.03-1.208-.017-1.757.028-.483.036-.7.038-.857.072a10.86 10.86 0 0 0-1.33.284c-.458.127-.707.187-.94.272-.399.161-.764.371-1.146.557l-.274.185c-.158.034-.282.118-.431.219l-.415.352c-.38.294-.72.596-1.051.965l-.207.284c-.438.586-.727.962-.99 1.43l-.215.434c-.394.81-.608 1.245-.764 1.712-.049.142-.228.842-.228.842-.13.451-.245.818-.334 1.168 1.906 1.319 3.863 2.713 5.778 4.208l11.122-7.515Zm-13.154 8.851a130.908 130.908 0 0 0-4.206-3.061l-.095.825c-.024.233-.09 1.799-.09 1.799-.022.45-.07.916-.058 1.415.002.325.02.675.023.999l.03.957 4.404-2.975-.008.041Zm222.46-161.36c1.841.096 3.825.457 5.886 1.093.21-2.424.664-4.541 1.361-6.352l-7.788 5.262.558.021-.017-.025ZM99.243 227.478c1.841.096 3.825.458 5.91 1.077.211-2.424.665-4.541 1.362-6.352l-7.788 5.262.541-.004-.025.017Zm291.277-195.8c-6.293-4.005-11.929-6.607-16.741-7.774l-.558-.13c-.851-.186-1.476-.306-2.092-.36a13.809 13.809 0 0 0-1.317-.125l-.134-.091.034.05s-1.057-.01-1.291-.034c-.608.013-1.157.058-1.714.145l-.159-.074.034.05-.874.155c-.607.12-1.164.316-1.72.511l-4.255 2.875c-.603.77-.966 1.305-1.296 1.89l-.173.334c-.379.727-.675 1.361-.92 2.07l-.075.05.017.026-.131.342a21.71 21.71 0 0 0-.726 2.627s-.177 1.025-.192 1.216c4.912 1.425 10.524 4.152 16.693 8.133l17.615-11.903-.025.017ZM83.628 238.21c-6.336-4.012-11.988-6.639-16.825-7.79l-.683-.153c-.667-.129-1.334-.258-1.968-.337-.525-.08-1.016-.11-1.55-.148-.557-.021-.832-.053-1.115-.043-.691-.004-1.332.067-1.998.155l-.757.113c-.582.104-1.139.299-1.695.494l-4.205 2.841c-.232.301-.538.653-.81 1.054l-.157.251c-.396.594-.742 1.262-1.07 1.955a16.952 16.952 0 0 0-.795 2.203l-.18.7a29.84 29.84 0 0 0-.413 1.909l-.097.5c4.913 1.425 10.525 4.152 16.71 8.158l17.616-11.903-.008.041ZM353.665 45.464a64.017 64.017 0 0 1-.115-2.422l-.018-1.69-.005-.865c.022-.558.018-1.1.057-1.633 0 0 .1-1.407.131-1.79l-.434-.105a27.606 27.606 0 0 0-1.859-.338 32.795 32.795 0 0 0-1.508-.14l-.791-.045-.033-.05-.025.017-.367-.006c-.608.013-1.182.075-1.756.137-.483.036-.574.062-.682.063-.99.197-1.697.385-2.403.681l-.332.152a11.01 11.01 0 0 0-1.502.834l-.149.101a2.267 2.267 0 0 0-.357.277l-.29.268c-.339.302-.671.562-.977.914l-.421.502c-.438.586-.703.946-.975 1.347-.157.25-.297.526-.437.802-.255.534-.493.986-.699 1.486-.131.342-.262.685-.376 1.052a15.112 15.112 0 0 0-.474 1.66c-.097.391-.195.783-.251 1.183a32.146 32.146 0 0 0-.313 1.95c-.063.55-.111.908-.142 1.291a47.665 47.665 0 0 0-.112 2.249s-.035 1.074-.033 1.398c-.004.8.034 1.607.064 2.456l17.516-11.836.068.1ZM46.764 252.038a62.492 62.492 0 0 1-.114-2.422l-.019-1.689.012-.841c.005-.583.026-1.141.048-1.699 0 0 .109-1.341.123-1.749l-.35-.089a64.05 64.05 0 0 0-2.05-.353c-.467-.047-.909-.11-1.359-.132l-1.266-.05c-.583-.005-1.14.082-1.714.144-.441.044-.658.046-.658.046l-.316.069c-.74.138-1.43.35-2.086.613l-.374.144c-.498.228-1.005.497-1.477.817l-.15.101c-.149.1-.273.184-.389.335l-.273.185c-.323.327-.68.604-.986.955l-.422.503c-.437.585-.727.962-.974 1.346a6.524 6.524 0 0 0-.412.785 14.58 14.58 0 0 0-.682 1.512c-.131.342-.262.684-.369 1.009-.171.551-.343 1.101-.48 1.702-.099.392-.196.784-.252 1.183a31.877 31.877 0 0 0-.313 1.95c-.064.55-.136.925-.15 1.333-.071.7-.084 1.433-.104 2.207l-.023.342-.018 1.098c-.004.8.034 1.607.064 2.456l17.516-11.836.017.025ZM348.786 34.274c1.832.03 3.573.193 5.274.565.322-1.883.803-3.585 1.419-5.087l-6.743 4.556.05-.034ZM41.893 240.807c1.874.038 3.573.193 5.274.565a25.948 25.948 0 0 1 1.402-5.112l-6.718 4.539.042.008Z"/></g><defs><clipPath id="a"><path fill="#fff" d="M0 265.963 393.614 0l161.451 238.942-393.613 265.962z"/></clipPath></defs></svg>