<svg xmlns="http://www.w3.org/2000/svg" width="743" height="404" fill="none"><g clip-path="url(#a)"><path fill="#F1F3F4" d="M371.592 402.13c-36.677.092-63.295-6.409-63.317-15.484-.005-2.07 1.384-4.024 4.087-5.822-21.037-4.087-32.64-10.147-32.658-17.073-.003-1.313.392-2.588 1.225-3.864-19.446-5.126-29.737-11.707-29.755-19.071a7.73 7.73 0 0 1 .234-1.871c-14.547-4.581-23.959-10.09-27.319-15.972-42.621-4.153-80.985-10.027-114.057-17.547C39.505 289.442.663 267.807.605 244.443c-.037-14.806 15.856-29.334 45.97-42.026 3.515-12.109 18.5-23.411 44.479-33.585 1.841-12.065 17.344-23.646 44.877-33.506l-.002-.518c-.03-12.139 15.751-23.562 45.675-33.03-.362-1.193-.564-2.387-.567-3.541-.028-11.384 16.433-21.734 47.634-29.97-1.678-2.146-2.52-4.373-2.526-6.602-.023-9.512 15.247-18.307 43.027-24.745 2.945-.684 6.249-1.369 10.03-2.095-5.264-2.972-7.94-6.229-7.949-9.731-.033-13.414 43.626-24.03 99.418-24.17 55.792-.139 99.504 10.26 99.537 23.673.009 3.503-2.651 6.773-7.9 9.772 3.785.707 7.092 1.375 10.04 2.044 27.813 6.3 43.126 15.018 43.15 24.53.006 2.23-.825 4.46-2.492 6.614 31.241 8.081 47.754 18.349 47.782 29.732.003 1.155-.193 2.35-.549 3.544 29.97 9.319 45.809 20.663 45.839 32.802l.001.518c27.542 9.683 43.102 21.186 45.004 33.321 26.069 10.085 41.071 21.312 44.685 33.363 30.177 12.542 46.142 26.99 46.179 41.796.059 23.364-38.675 45.193-109.081 61.528-33.034 7.645-71.408 13.751-113.968 18.116-3.331 5.899-12.715 11.455-27.239 16.109.161.636.242 1.273.244 1.87.018 7.323-10.24 13.956-29.66 19.219.839 1.271 1.241 2.544 1.244 3.857.017 6.926-11.516 13.044-32.572 17.236 2.712 1.785 4.111 3.732 4.116 5.801.023 9.035-26.563 15.709-63.239 15.8l-.2-.039Zm-54.768-20.481c-3.619 1.681-5.646 3.437-5.642 4.989.015 6.011 25.837 12.673 60.403 12.587 34.566-.087 60.355-6.878 60.34-12.888-.004-1.592-2.119-3.417-5.907-5.08-15.165 2.864-34.078 4.344-54.467 4.395-20.389.051-38.99-1.336-54.727-4.003Zm5.53-2.083c14.621 2.152 31.548 3.224 49.15 3.181 17.602-.044 34.563-1.241 49.133-3.427-11.637-3.553-29.761-5.577-49.155-5.529-19.394.048-37.548 2.203-49.128 5.775Zm49.16-8.681c23.337-.058 44.53 2.835 55.373 7.584 20.579-3.793 33.507-9.596 33.494-15.169-.003-.995-.444-2.029-1.282-3.061-1.035.281-2.15.522-3.224.804-22.527 5.23-52.467 8.131-84.325 8.21-31.858.08-61.812-2.711-84.365-7.789a63.855 63.855 0 0 1-3.227-.788c-.834 1.037-1.269 2.073-1.267 3.068.014 5.612 13.09 11.311 34.126 14.92 10.262-4.722 31.361-7.76 54.777-7.819l-.08.04Zm-85.013-12.564c22.194 5.159 53.104 8.067 85.002 7.987 31.898-.079 62.793-3.142 84.961-8.411-4.547-3.173-12.798-6.058-24.034-8.378-19.149 2.117-39.735 3.204-61.001 3.257-21.265.053-41.697-.931-61.135-2.913-11.105 2.376-19.301 5.302-23.833 8.498l.04-.04Zm-32.303-18.547a4.83 4.83 0 0 0-.117 1.035c.015 6.05 10.304 11.955 28.953 16.685 3.536-3.193 10.02-6.115 18.855-8.565-12.987-1.56-24.739-3.52-34.94-5.843-4.502-1.024-8.766-2.128-12.751-3.312Zm186.792 8.808c8.886 2.406 15.385 5.335 18.897 8.471 18.625-4.823 28.885-10.779 28.87-16.829-.001-.319-.002-.677-.122-1.035-3.98 1.204-8.278 2.329-12.735 3.375-10.189 2.374-21.932 4.394-34.91 5.978v.04Zm-120.228-.655c16.212 1.313 33.218 1.987 50.66 1.943 17.443-.044 34.485-.763 50.65-2.196-14.86-2.272-32.664-3.461-50.664-3.416-18 .045-35.797 1.363-50.646 3.669Zm50.679-6.575c23.057-.057 44.925 1.838 61.579 5.3 21.26-2.322 40.128-5.792 54.493-10.047-2.038-2.901-6.346-5.716-12.844-8.366-29.615 5.208-65.409 7.964-103.201 8.058-37.792.095-73.56-2.483-103.758-7.502-6.126 2.642-10.301 5.478-12.285 8.349 14.427 4.183 33.351 7.559 54.821 9.774 16.359-3.543 38.137-5.548 61.234-5.606l-.039.04Zm108.403-13.883c5.184 2.575 8.735 5.312 10.494 8.253 12.415-3.931 20.926-8.45 24.658-13.117-6.768.654-13.616 1.308-20.584 1.883a350.367 350.367 0 0 1-14.608 2.981h.04Zm-252.05-4.147c3.794 4.647 12.288 9.124 24.722 12.993 1.745-2.949 5.283-5.705 10.453-8.305-5.02-.902-10-1.885-14.742-2.908-6.811-.54-13.662-1.12-20.433-1.78Zm45.845 3.508c29.002 4.385 62.738 6.649 97.782 6.562 35.044-.088 68.967-2.521 97.987-7.091-.04 0-.08.001-.12-.039-31.614 2.148-64.585 3.226-97.877 3.309-33.292.083-65.829-.831-97.772-2.781v.04Zm7.839-2.448a1586.848 1586.848 0 0 0 89.926 2.323c30.345-.076 60.569-.987 89.914-2.772-9.325-2.444-20.799-4.525-33.307-6.046-18.276 1.279-37.35 1.924-56.624 1.972-19.274.048-38.271-.501-56.712-1.689-12.501 1.583-23.885 3.721-33.197 6.212Zm159.791-7.523c5.259.862 10.08 1.766 14.423 2.75 5.14 1.141 9.842 2.443 14.027 3.826 8.202-.618 16.603-1.236 24.925-1.933 8.198-1.891 15.72-3.98 22.285-6.225-.763-2.745-3.239-5.485-7.308-8.141-20.1 4.269-43.07 7.55-68.352 9.683v.04Zm-215.485-.816c6.577 2.213 14.148 4.303 22.436 6.113 8.165.617 16.569 1.233 25.172 1.729 3.78-1.323 8.436-2.648 13.65-3.855a221.72 221.72 0 0 1 14.409-2.822c-25.293-2.047-48.278-5.174-68.399-9.343-4.056 2.677-6.518 5.43-7.268 8.178Zm5.308 4.684a111.437 111.437 0 0 1-5.46-1.738c.081.398.162.835.322 1.233l5.138.465v.04Zm286.044-2.465c-1.751.601-3.542 1.163-5.452 1.765l5.136-.491c.158-.398.237-.836.316-1.235v-.039Zm2.984-1.043a9.88 9.88 0 0 1-.194 1.991c133.134-13.785 219.037-43.812 218.955-76.569-.033-13.294-14.721-26.591-42.507-38.423.081.717.123 1.393.124 2.07.052 20.578-33.989 39.807-95.878 54.171l-1.513.323c-4.368 4.826-12.082 9.622-22.743 14.146-2.37 7.648-11.83 14.796-28.023 21.165-1.374 7.646-11.153 14.954-28.221 21.126ZM45.828 205.841C18.1 217.811 3.479 231.142 3.512 244.476c.082 32.757 86.134 62.354 219.335 75.475a8.848 8.848 0 0 1-.244-2.029c-16.979-5.968-26.874-13.267-28.327-20.945-16.263-6.328-25.719-13.389-28.127-21.025-10.604-4.432-18.461-9.268-23.293-14.271l-.159.12-.876-.197c-61.96-14.055-96.096-33.115-96.148-53.692-.001-.677.037-1.354.115-2.071h.04Zm287.678 110.411c12.466.486 25.17.733 37.874.702a915.453 915.453 0 0 0 37.869-.891c-12.148-.885-24.853-1.331-37.875-1.299-13.022.033-25.724.542-37.868 1.488Zm37.861-4.433c19.832-.049 39.427 1.056 56.756 3.162 28.548-1.982 55.46-5.392 77.869-9.946-5.782-3.05-13.634-5.896-23.318-8.42-33.56 4.383-72.102 6.708-111.288 6.806-39.186.097-77.7-2.075-111.68-6.249-9.431 2.571-17.19 5.456-22.916 8.535 22.431 4.442 49.4 7.757 78.077 9.557 17.118-2.192 36.708-3.396 56.54-3.445h-.04Zm-173.742-13.617c2.364 5.925 11.1 11.714 25.409 16.853.829-2.749 2.973-5.46 6.272-8.016-1.036-.236-1.912-.393-2.789-.59-10.958-2.48-20.681-5.242-28.892-8.247Zm315.738 8.168c3.351 2.539 5.468 5.24 6.312 7.985 14.283-5.21 22.99-11.083 25.324-16.98-8.235 3.046-17.945 5.856-28.89 8.391-.916.202-1.831.403-2.786.604h.04Zm-23.443-10.688c8.608 2.605 15.505 5.534 20.53 8.665 13.731-3.218 25.71-6.631 35.258-10.277-.007-2.667-1.407-5.37-4.082-8.03-1.751.442-3.502.885-5.333 1.287-13.89 3.219-29.454 6.044-46.333 8.355h-.04Zm-292.941-1.021c9.248 3.759 21.363 7.191 35.986 10.259 4.373-3.036 11.095-5.958 19.77-8.646-16.93-2.267-32.508-4.974-46.374-8.124-1.833-.433-3.586-.827-5.34-1.26-2.582 2.593-3.929 5.224-4.042 7.811v-.04Zm70.846.54c31.987 3.542 67.713 5.404 103.474 5.314 35.761-.089 71.517-2.089 103.446-5.83-27.374-6.101-64.896-9.55-103.484-9.454-38.588.097-76.093 3.733-103.436 9.97Zm124.297-12.609c31.542.956 60.7 4.187 83.651 9.384 2.511.591 4.902 1.182 7.213 1.773 20.661-2.718 39.529-6.069 55.966-10.05-4.349-3.373-10.808-6.581-19.179-9.625-39.054 4.834-82.852 7.73-127.691 8.518h.04Zm-188.518 1.943c16.536 3.899 35.5 7.195 56.374 9.73 1.95-.601 4.298-1.204 6.845-1.768 22.925-5.311 52.067-8.727 83.604-9.801-44.723-.565-88.654-3.202-128.17-7.8-8.037 3.045-14.361 6.325-18.693 9.679l.04-.04Zm-33.628-7.08c3.2 5.683 11.497 11.315 24.173 16.378.312-2.668 1.5-5.218 3.684-7.731-10.48-2.641-19.845-5.563-27.857-8.647Zm374.754 7.781c2.197 2.502 3.478 5.086 3.763 7.713 12.611-5.126 20.88-10.799 24.052-16.499-7.997 3.125-17.348 6.094-27.815 8.786Zm-376.157-11.4c8.77 3.56 19.371 6.877 31.604 9.872 3.775-3.353 9.262-6.551 16.383-9.514a860.111 860.111 0 0 1-46.849-7.008c-.872 1.674-1.266 3.307-1.262 4.899.001.597.043 1.194.164 1.791l-.04-.04Zm357.411-.414c7.136 2.967 12.639 6.138 16.431 9.432 12.178-3.055 22.802-6.425 31.554-10.029a9.05 9.05 0 0 0 .155-1.792c-.004-1.552-.446-3.223-1.286-4.892-14.728 2.743-30.492 5.171-46.814 7.241l-.04.04Zm-297.003-.732c44.575 4.904 92.448 7.332 142.306 7.208 49.859-.125 97.679-2.791 142.268-7.918-32.919-10.346-85.819-16.423-142.328-16.282-56.509.141-109.378 6.482-142.246 16.992Zm346.762-7.034c.841 1.829 1.284 3.658 1.288 5.41l.001.477c6.962-3.042 12.569-6.28 16.742-9.594a580.27 580.27 0 0 1-18.031 3.667v.04Zm-427.029-2.597c4.19 3.294 9.852 6.464 16.789 9.511l-.001-.478c-.004-1.751.429-3.583 1.261-5.416a687.389 687.389 0 0 1-18.049-3.577v-.04Zm222.506-10.267c47.07-.117 91.324 3.992 124.675 11.511 9.164 2.086 17.413 4.414 24.468 6.944 17.995-2.274 35.152-4.864 50.795-7.729-10.546-13.427-48.488-25.313-101.947-31.866-31.214 2.784-64.224 4.22-98.033 4.304-33.81.085-66.787-1.186-98.253-3.815-53.306 6.86-91.148 18.895-101.588 32.374 15.976 2.826 33.226 5.331 51.271 7.435 6.565-2.484 14.722-4.893 23.996-7.025 33.312-7.725 77.545-12.015 124.616-12.133Zm-189.442-33.319c-27.456 8.905-41.966 19.17-41.94 29.678.009 3.423 1.611 6.881 4.805 10.257 8.048 1.612 16.017 3.184 23.547 4.558 6.904-10.167 26.991-19.371 58.195-26.574 10.268-2.374 21.652-4.512 33.913-6.373-28.799-2.794-55.172-6.669-78.48-11.546h-.04Zm300.254 10.993c12.23 1.8 23.624 3.841 33.944 6.204 31.239 7.086 51.373 16.151 58.327 26.283a617.623 617.623 0 0 0 24.001-4.956c2.7-3.151 4.244-6.697 4.236-10.001-.026-10.507-14.587-20.7-42.087-29.468-23.284 4.994-49.677 9-78.461 11.938h.04Zm83.914-13.106c25.827 8.891 39.513 19.484 39.541 30.669.008 3.065-.98 6.092-3.004 9.042 58.824-13.918 91.195-31.91 91.148-50.776a14.745 14.745 0 0 0-.407-3.382c-14.111-5.776-31.289-11.146-51.053-15.993-12.437 11.256-37.898 21.588-73.558 29.837l-2.627.603h-.04ZM48.97 204.48a14.75 14.75 0 0 0-.39 3.384c.047 18.867 32.508 36.697 91.4 50.321-1.998-2.94-3.041-6.002-3.049-9.027-.027-11.184 13.565-21.846 39.388-30.866l-2.63-.59c-35.741-8.11-61.214-18.276-73.706-29.469-19.74 4.945-36.89 10.401-50.973 16.247h-.04Zm239.322 25.912c26.806 1.843 54.684 2.729 82.878 2.659 28.195-.071 56.069-1.095 82.865-3.073-26.131-2.601-53.97-3.885-82.882-3.813-28.911.072-56.744 1.495-82.861 4.227Zm82.854-7.133c34.367-.085 68.341 1.82 98.218 5.487 31.413-2.785 60.155-6.837 85.43-11.995-43.837-12.786-112.272-20.298-183.714-20.119-71.443.178-139.839 8.03-183.612 21.036 25.3 5.031 54.102 8.9 85.688 11.528 29.659-3.816 63.583-5.891 97.99-5.976v.039Zm-.074-29.493c62.283-.155 120.877 5.271 164.986 15.27 8.885 2.008 17.214 4.256 24.747 6.626 37.453-8.174 64.427-18.391 77.939-29.569-26.618-6.382-57.295-11.678-91.155-15.853-3.303.964-7.044 1.928-11.063 2.854-44.218 10.26-102.943 15.979-165.465 16.135-62.522.155-121.274-5.27-165.543-15.309-3.945-.906-7.69-1.812-11.317-2.798-33.639 4.343-64.25 9.792-90.835 16.307 13.568 11.15 40.672 21.232 78.564 29.178 6.923-2.366 15.161-4.615 24.235-6.748 44.059-10.219 102.625-15.938 164.907-16.093Zm-280.25-21.749c-22.238 8.891-36.23 18.877-40.626 28.918 13.367-5.367 29.323-10.422 47.392-15.044-4.273-4.527-6.554-9.178-6.765-13.874Zm553.693 12.509c18.09 4.493 34.032 9.468 47.466 14.808-4.406-10.019-18.448-19.935-40.771-28.715-.187 4.697-2.446 9.359-6.695 13.907Zm-442.351-14.379c43.911 10.438 105.253 16.295 168.89 16.136 63.637-.159 124.909-6.322 168.807-16.979-51.904-6-110.213-9.078-168.872-8.932-58.659.146-116.951 3.516-168.825 9.775Zm352.827-1.915c28.284 3.67 54.34 8.183 77.41 13.379 3.068.709 6.017 1.418 8.966 2.127 4.568-4.39 7.026-9.092 7.014-13.789-.001-.199-.001-.358-.041-.557-15.466-5.773-34.913-11.217-57.465-15.937-8.549 5.315-20.603 10.281-35.844 14.777h-.04Zm-461.303 3.101c.012 4.577 2.413 9.188 7.123 13.754l.239-.081a399.285 399.285 0 0 1 8.636-2.091c23.045-5.351 49.038-9.993 77.342-13.765-15.263-4.38-27.341-9.286-35.917-14.598-22.408 4.792-41.709 10.294-57.384 16.303 0 .199-.039.319-.039.438v.04Zm61.523-17.627c9.451 5.27 22.645 10.173 39.262 14.549 53.386-6.899 114.505-10.634 176.469-10.788 61.964-.155 123.062 3.275 176.879 9.867 16.356-4.459 29.486-9.387 38.831-14.704-36.098-7.313-79.638-12.698-126.079-15.647-27.191 3.452-58.208 5.36-89.708 5.438-31.5.079-62.487-1.635-89.854-4.99-46.346 3.181-89.858 8.822-125.88 16.275h.08Zm-18.835-15.516c-24.748 8.938-39.258 19.084-42.1 29.4 13.329-5.009 29.246-9.665 47.316-13.85 2.029-.483 4.099-.926 6.169-1.369-6.343-4.521-10.178-9.248-11.385-14.141v-.04Zm457.799 13.068c2.152.472 4.184.905 6.176 1.338 18.09 4.094 34.03 8.671 47.344 13.613-2.854-10.301-17.414-20.375-42.206-29.189-1.183 4.899-4.994 9.684-11.314 14.198v.04Zm-455.054-14.07c1.088 4.933 5.361 9.818 12.78 14.536 32.995-7.326 71.809-12.757 115.128-16.208-10.677-1.605-20.637-3.411-29.682-5.458-11.954-2.717-22.276-5.796-30.727-9.158-26.59 4.524-49.276 9.994-67.499 16.328v-.04Zm335.664-2.19c43.016 3.196 82.016 8.432 115.884 15.512 6.837-4.674 10.967-9.58 12.03-14.438-18.255-6.244-40.967-11.6-67.58-15.991-8.434 3.404-18.74 6.534-30.68 9.31-9.035 2.092-18.986 3.988-29.654 5.607Zm-176.374 1.355c22.984 2.132 47.318 3.186 72.526 3.123 25.208-.063 49.537-1.238 72.509-3.485a1405.13 1405.13 0 0 0-72.522-1.689c-24.371.06-48.702.758-72.513 2.051Zm-86.178-16.382c17.099 6.086 40.847 11.122 68.93 14.554 29.066-1.983 59.289-3.053 89.754-3.129 30.464-.076 60.692.844 89.967 2.681 27.907-3.572 51.629-8.686 68.658-14.898-46.811-7.326-101.617-11.13-158.683-10.988-57.066.143-111.853 4.22-158.626 11.78Zm-29.508-15.569c-28.332 8.907-43.478 19.253-43.93 29.882 10.186-3.489 21.806-6.781 34.662-9.759 8.835-2.052 18.348-3.986 28.26-5.762-9.768-4.434-16.112-9.274-18.992-14.401v.04Zm357.327 13.517c9.88 1.727 19.403 3.573 28.288 5.621 12.83 2.913 24.467 6.108 34.63 9.546-.783-10.745-15.981-20.976-43.999-29.663-2.814 5.142-9.174 10.014-18.919 14.496Zm-354.541-14.4c3.039 5.087 10.299 9.925 21.54 14.474 47.25-8.197 103.987-12.558 163.761-12.707 59.774-.149 116.492 3.968 164.34 11.849 10.82-4.604 17.976-9.478 20.95-14.54-23.194-6.868-53.832-12.364-88.686-15.939-26.309 5.678-60.708 8.829-96.668 8.918-35.96.09-70.295-2.89-96.911-8.435-34.756 3.749-65.286 9.397-88.366 16.38h.04Zm290.98-18.836c21.988 2.493 42.107 5.786 59.839 9.802 7.411 1.693 14.504 3.506 21.04 5.48a8.197 8.197 0 0 0 .431-2.708c-.025-9.99-16.735-19.7-47.059-27.346-5.96 5.507-17.735 10.592-34.251 14.732v.04ZM230.787 70.65c-30.286 7.797-46.947 17.59-46.922 27.58.002.876.163 1.752.445 2.706a339.563 339.563 0 0 1 21.012-5.585c17.671-4.104 37.774-7.497 59.789-10.1-16.497-4.058-28.337-9.084-34.324-14.561v-.04Zm53.083 15.51c24.861 4.276 55.57 6.588 86.95 6.51 31.381-.079 62.078-2.543 86.917-6.944-27.683-2.478-56.917-3.719-86.943-3.644-30.027.075-59.253 1.422-86.924 4.078Zm-49.7-16.354c7.023 5.515 20.734 10.535 39.74 14.508 30.257-3.3 62.868-5.013 96.877-5.098 34.008-.084 66.588 1.466 97.179 4.574 18.787-4.067 32.434-9.116 39.389-14.666-35.384-8.47-85.135-13.24-136.626-13.112-51.491.128-101.178 5.148-136.559 13.794Zm136.552-16.7c50.415-.126 97.856 4.254 133.557 12.364a190.6 190.6 0 0 1 5.579 1.34c1.747-1.955 2.658-3.908 2.653-5.818-.023-9.434-20.515-18.577-54.817-24.501-16.429 7.484-49.868 12.224-86.983 12.317-37.115.092-70.578-4.481-87.561-11.962-33.834 6.175-54.161 15.46-54.137 24.853.004 1.91.885 3.858 2.682 5.804 1.791-.442 3.662-.924 5.572-1.367 35.661-8.288 83.079-12.904 133.494-13.03h-.039Zm-81.88-17.11c17.777 6.205 48.848 9.949 81.822 9.866 32.973-.082 64.025-4.02 81.771-10.274-24.063-3.76-52.302-5.72-81.811-5.647-29.509.074-57.778 2.174-81.782 6.055ZM370.599 3.83c-51.451.129-96.546 10.072-96.518 21.257.007 3.025 3.44 6.12 9.978 9.01 24.639-4.56 54.699-7.022 86.597-7.102 31.899-.08 61.931 2.194 87.19 6.589 5.966-2.841 9.383-6.034 9.375-8.98-.027-11.184-45.171-20.902-96.622-20.774Z"/></g><defs><clipPath id="a"><path fill="#fff" d="M0 1.85 741.183 0l1 401.206-741.182 1.849z"/></clipPath></defs></svg>