<svg xmlns="http://www.w3.org/2000/svg" width="743" height="754" fill="none"><path fill="#F1F3F4" d="M78.228 513.309c1.376-14.076 5.292-27.903 9.414-41.49l55.875-40.43c7.597-15.258 13.247-31.36 22.49-45.812l-23.336-22.387c-.682-1.306 1.981-4.703 2.79-5.976 9.842-15.505 21.403-30.759 32.959-45.009l42.32-8.024c8.095-7.247 14.476-16.637 21.747-24.693 11.371-12.591 24.265-23.717 34.725-36.987.841-11.25.018-22.682.895-33.907.177-2.247.091-5.306 1.672-6.878 15.471-13.143 30.469-26.877 46.919-38.778l23.536 21.48c6.845-5.163 13.962-10.263 21.24-14.765 8.541-5.28 26.064-12.561 31.547-19.962 10.262-13.84 18.72-33.593 28.458-48.494 1.34-2.05 2.467-4.428 4.432-5.984 1.965-1.555 17.207-7.286 20.657-8.527 6.81-2.452 14.571-4.613 21.582-6.214l37.723 35.841 35.864-34.816c.887-.521 1.508.042 2.262.348 9.884 3.982 17.3 13.96 24.617 21.037 19.516 18.872 39.583 37.208 59.471 55.551 5.032 4.639 10.106 9.326 14.407 14.624l-26.199 31.247 38.18 36.275c-1.262 14.148-5.247 27.902-9.41 41.486l-55.429 39.952c-8.059 15.239-13.473 31.716-22.945 46.29l23.337 22.386c.681 1.307-1.981 4.704-2.79 5.977-9.842 15.505-21.403 30.759-32.96 45.009l-40.074 7.199c-5.729 1.936-10.996 10.612-15.104 15.247-3.135 3.537-6.216 7.293-9.334 10.739-11.282 12.479-24.423 23.362-34.174 36.966-1.098 11.238.039 23.218-.989 34.363-.157 1.704-.204 4.217-1.243 5.502-15.572 13.359-30.763 27.187-47.364 39.247l-23.536-21.48c-6.726 4.982-13.689 10.086-20.793 14.485-8.733 5.41-26.325 12.598-31.995 20.241-10.253 13.832-18.719 33.594-28.457 48.494-1.34 2.051-2.468 4.429-4.433 5.984-1.75 1.385-16.578 7.028-19.758 8.187-4.734 1.723-15.739 5.669-20.226 6.334-.64.097-2.373.108-2.711-.214l-37.266-35.407-35.864 34.835c-.482.388-.86.181-1.353.051-.621-.162-10.528-6.162-10.95-6.643-1.32-1.495.837-2.538.416-3.267-21.576-19.075-41.427-41.045-63.081-59.909-5.148-4.49-10.941-7.659-15.955-11.567-2.144-1.672-7.84-7.324-9.035-9.592-.574-1.08 1.332-3.609 2.086-4.595 5.211-6.831 11.713-14.351 17.32-20.976 1.87-2.206 4.087-4.155 5.999-6.323l-38.18-36.276.004.005ZM552.451 84.234a1389.025 1389.025 0 0 1-53.682 52.37c-5.969.139-11.719-1.786-17.631-2.047-7.56-.338-15.052 1.366-22.54 1.783-3.328.189-4.377.422-3.428-3.506 3.41-14.175 14.02-31.321 18.292-45.853.251-.85.78-2.112-.66-1.769-7.031 2.428-14.185 4.481-21.121 7.231-5.868 2.33-12.999 4.378-16.788 9.538-11.684 15.886-20.049 37.465-31.968 53.626-20.681 11.713-41.23 23.542-60.465 37.689-1.348.787-2.701.215-3.579-.949l-11.818-24.464-1.651-.222c-14.6 12.161-29.73 23.782-43.262 37.163-1.67 13.36-.575 26.868-1.911 40.269-19.254 19.761-38.324 39.484-55.873 60.857l-2.68 1.74-40.529 7-2.722 1.94-32.077 44.832 30.159 7.622c.752.207.88.631.953 1.342.233 2.2-14.972 27.699-17.257 32.283-4.781 9.601-8.484 20.147-13.06 29.88-18.177 14.636-38.8 26.725-56.614 41.839-3.33 11.453-7.096 22.945-8.086 34.847 6.145-2.476 47.759-26.349 50.455-25.633.738.194 1.212.528 1.358 1.317.99 6.485.265 13.924 1.326 20.297.649 3.887 6.575 16.906 5.343 19.22-.625 1.171-3.171 4.162-4.267 5.58-8.65 11.22-18.847 22.181-27.97 33.12-4.899 5.88-9.227 12.266-14.902 17.498 5.079 5.449 11.526 9.24 17.343 13.804 18.421-17.273 35.731-35.647 54.584-52.413 9.039 1.584 17.419 2.764 26.66 2.168 2.336-.151 15.628-2.512 16.609-1.118l-18.87 51.544c4.818-2.901 11.066-3.818 16.406-5.767 3.647-1.329 16.389-6.004 18.848-7.732 2.46-1.728 3.743-4.314 5.339-6.772 9.608-14.783 18.3-34.928 28.453-48.49 4.828-6.446 25.706-15.645 33.794-20.688 10.066-6.272 19.553-13.666 29.518-20.125l1.387.427c5.632 8.265 8.804 18.213 14.102 26.794 14.355-12.92 30.092-24.437 43.928-38.011l.505-1.374 1.414-38.895c19.685-20.333 38.842-40.642 57.205-62.176l40.075-7.199c1.404-.288 2.889-.971 3.946-1.955 4.305-4.019 12.037-15.755 15.927-21.149 5.675-7.869 10.479-16.469 16.725-23.894l-28.755-7.224c-1.131-.486-2.316-1.317-2.321-2.668 11.238-20.105 21.814-40.43 30.55-61.702l55.262-39.95c1.748-1.886 5.862-17.469 6.716-21.06.854-3.591 2.486-10.712 2.657-14.106.05-.968.217-1.015-.874-.884l-48.404 25.059c-1.44.655-2.115.477-2.708-.977-1.396-3.43-.567-15.182-1.266-19.839-.511-3.418-6.468-17.98-5.902-19.199l47.154-57.1c-5.084-5.446-11.527-9.242-17.343-13.805l-.009.036ZM173.585 372.189l-23.091-5.906 16.926 16.973 6.16-11.071.005.004Zm173.514-186.276c-4.427-4.241-7.741-9.69-13.483-12.374 2.468 3.923 3.809 8.967 6.214 12.864 2.819 4.578 3.671 2.116 7.274-.495l-.005.005Zm166.096-67.679-35.208-33.452-18.538 48.347c6.529-.801 14.199-2.373 20.743-2.145 5.365.187 15.313 3.855 19.416.552 1.826-1.473 4.942-4.35 6.689-6.051 2.383-2.325 4.551-4.9 6.898-7.251ZM82.511 512.922l35.665 33.886c6.324-8.038 13.754-15.336 19.22-23.983.446-2.108-4.36-12.378-5.032-15.618-1.241-6.019.008-13.45-1.443-19.588l-48.41 25.303Zm502.407-347.931 39.095 37.145 23.938-28.903-7.467-8.075-68.399-64.943-45.745 55.463 27.192 24.509 31.391-15.201-.005.005ZM166.009 545.912l-52.13 50.288 76.818 72.986 33.847-33.792-39.095-37.145c-.247-.235.025-2.544.183-3.169 1.346-5.262 5.24-13.371 7.392-18.795.428-1.082.964-2.15 1.783-3.003L166 545.912h.009Zm383.707-363.558-13.978-13.281-7.017-4.903c4.788 8.302 2.747 18.26 4.419 27.38l16.576-9.196ZM205.285 546.688c-.005-1.03-18.775 1.483-20.513 1.462-4.47-.048-8.848-1.713-13.332-1.544l24.229 23.021 9.611-22.944.005.005Zm447.292-268.395c1.618-6.172 3.765-12.278 5.22-18.489.521-2.232 3.368-15.302 3.173-16.378-.195-1.077-5.971-7.323-7.363-8.752-18.401-18.945-40.598-39.865-60.407-57.385-2.59-2.292-5.691-3.963-7.98-6.655-2.21 11.795-4.038 24.103-8.999 35.111l76.36 72.552-.004-.004Zm-56.739 43.235-76.361-72.552c-7.96 20.127-17.879 39.356-29.001 58.003l29.207 7.252 54.641 51.916 21.514-44.619Zm-21.389-113.011-52.746 38.117 75.636 72.791 53.47-38.356-76.36-72.552ZM189.732 597.862l76.36 72.552 36.818-14.027c-2.987-2.268-4.948-5.451-7.511-8.064-18.472-18.798-40.179-39.575-59.954-56.964-1.43-1.261-8.354-6.948-9.107-6.852l-36.606 13.355Zm116.772 56.574 31.589-54.253-75.752-73.248-31.588 54.253 75.751 73.248Zm83.674-87.151L334.623 514.5l-11.551-23.986-1.424-.836c-18.112 13.102-37.126 24.589-56.62 35.345l76.36 72.552c16.098-10.258 33.586-18.427 48.79-30.29Zm52.017-192.101c-6.496 7.927-13.399 15.476-20.216 23.117-.822.921-1.26 2.225-2.185 3.244-10.358 11.451-21.887 21.699-32.314 33.057l76.361 72.552c19.118-19.124 37.409-38.705 54.714-59.418l-76.36-72.552Zm117.318 64.24c-2.987-2.267-4.949-5.45-7.512-8.064-18.265-18.593-40.284-39.986-59.94-56.969-2.485-2.146-5.477-3.786-7.758-6.257-12.579.749-25.125 3.864-37.6 5.968 24.378 24.677 49.763 48.662 75.57 71.818l37.244-6.5-.004.004Zm-98.307 106.215c-.127-11.761 1.55-23.901.175-35.457-23.962-24.228-48.864-47.924-74.289-70.593-.244-.027-.608 2.426-.651 2.956-.557 6.2-.609 15.347-.6 21.702.007 1.869-.274 7.778.086 9.029.36 1.251 5.459 6.827 6.892 8.322 17.961 18.759 40.452 39.655 59.959 56.951 2.737 2.43 6.024 4.226 8.437 7.089l-.009.001Zm102.353-107.726 32.41-45.256-.322-1.794c-24.21-24.91-50.257-48.17-75.234-72.364l-33.214 46.862 76.36 72.552Zm-179.571 38.824c-14.049 13.825-29.526 26.204-45.066 38.275 23.098 20.769 44.667 44.026 67.911 64.559 2.896 2.556 6.222 4.815 9.198 7.305l44.775-37.153-76.818-72.986Z"/><path fill="#F1F3F4" d="M288.947 323.374c19.71-23.098 46.119-47.56 73.848-60.107 37.788-17.098 59.375-1.195 44.641 39.394-15.561 42.859-70.228 100.808-113.397 116.162-22.384 7.965-43.861 4.93-41.859-23.604 1.639-23.326 21.678-54.16 36.772-71.841l-.005-.004Zm120.059-41.779c.819-34.889-38.602-19.422-56.469-9.18-35.943 20.616-94.397 80.581-97.151 123.587-2.668 41.652 47.424 16.877 65.486 4.771 31.473-21.093 87.2-79.443 88.134-119.178Z"/></svg>