<svg xmlns="http://www.w3.org/2000/svg" width="509" height="472" fill="none"><g clip-path="url(#a)"><path fill="#F1F3F4" d="M329.457 140.256c53.173 52.068 93.406 107.326 105.276 144.54l.293.883.293.917.332 1.165.002.212c.293.847.588 1.942.848 3.001l.28 1.254c.148.636.279 1.254.41 1.873.112.53.189 1.06.301 1.59l.227 1.343c.096.618.173 1.219.251 1.821l.06.618c.438 4.386.321 8.087-.422 11.316l-.1.532c-.033.212-.102.425-.135.638-3.062 11.111-5.163 22.637-7.198 33.773-4.103 22.45-8.34 45.644-20.446 66.349.001.071-.085.302-.153.515l-.137.391c-.309.923-.566 1.651-.86 2.309-.967 2.169-2.097 3.968-3.46 5.539l-.279.357-.666.679-.472.483c-.158.16-.315.321-.49.465-.421.358-.667.537-.913.717l-.421.322c-.14.143-.316.251-.474.377l-.369.233c-.334.234-.703.432-1.055.648-.387.216-.791.45-1.196.649-.37.198-.757.344-1.145.525a30.06 30.06 0 0 1-1.322.526s-.493.217-.634.254c0 0-1.341.402-1.641.494-.582.165-1.165.295-1.765.442l-.759.167c-.724.131-1.449.262-2.191.34l-.478.058c-20.171 2.268-53.041-10.278-92.53-35.362-1.872-1.203-3.619-2.319-5.367-3.47l-.731-.471c-1.551-1.029-3.138-2.058-4.69-3.122l-1.195-.821a274.73 274.73 0 0 1-4.353-2.966l-1.498-1.047c-1.374-.96-2.766-1.938-4.139-2.898l-1.713-1.222c-1.267-.891-2.516-1.799-3.766-2.707l-2.088-1.52a2350.29 2350.29 0 0 1-5.604-4.122l-.5-.385c-27.258-20.389-54.622-43.964-81.289-70.077s-49.754-51.801-70.169-77.603a754.004 754.004 0 0 1-2.424-3.109s-3.628-4.638-4.239-5.446c-29.263-38.248-48.815-72.308-56.49-98.554l-.35-1.182c-.294-1.024-.553-2.013-.812-3.001l-.167-.689c-4.322-17.64-2.479-30.12 5.497-37.084a21.558 21.558 0 0 1 1.79-1.398l.229-.162c.614-.413 1.23-.79 1.846-1.133l.598-.325c.633-.325 1.18-.56 1.743-.778.511-.2.9-.345 1.252-.49.44-.164.846-.292 1.27-.402l99.436-29.297a25.696 25.696 0 0 1 2.153-.516 25.3 25.3 0 0 1 2.227-.34 48.826 48.826 0 0 1 2.37-.201l.265-.02a32.021 32.021 0 0 1 2.248-.005c1.027.026 1.841.053 2.674.133 8.15.664 17.97 3.417 29.157 8.176 1.263.536 2.472 1.055 3.682 1.61 1.388.623 2.58 1.196 3.79 1.75l.338.156c1.193.573 2.403 1.163 3.649 1.788l.285.139c1.282.66 2.599 1.32 3.917 2.014a273.734 273.734 0 0 1 12.576 7.064l.73.435c1.123.68 2.281 1.358 3.44 2.073l4.224 2.631 4.315 2.755 1.694 1.098c.892.593 1.783 1.186 2.693 1.797l1.766 1.204c.891.593 4.495 3.071 4.495 3.071.927.628 4.532 3.177 4.532 3.177 1.016.716 4.586 3.3 4.586 3.3a326.432 326.432 0 0 1 4.462 3.285l1.374 1.03c21.332 16.023 42.71 34.506 63.542 54.905l-.123.019Zm9.373 11.945a752.179 752.179 0 0 0-10.687-10.675c-16.304-15.966-33.074-30.847-49.828-44.242l-.804-.647a434.402 434.402 0 0 0-6.5-5.105c-.679-.524-3.16-2.394-3.16-2.394s-3.035-2.306-3.803-2.883l-6.894 3.962a388.116 388.116 0 0 1 11.564 8.347c18.528 13.838 37.117 29.87 55.247 47.623a630.28 630.28 0 0 1 10.652 10.711l4.178-4.661.035-.036Zm59.86 70.624a634.674 634.674 0 0 0-4.603-6.363c-1.725-2.319-3.361-4.516-5.067-6.712-14.281-18.64-30.724-37.543-48.9-56.216l-4.179 4.661c24.482 25.373 45.863 52.086 60.284 75.31l4.011-8.5-1.331-1.899-.001-.071-.035.036-.179-.246ZM262.477 85.067l-3.641-2.69-4.497-3.249-4.442-3.125-4.371-2.984-4.28-2.86-2.14-1.396-4.297-2.772-4.224-2.632-4.171-2.508-1.086-.644a329.386 329.386 0 0 0-9.816-5.515l-4.469-2.346c-.872-.433-3.684-1.822-3.684-1.822-.855-.416-1.673-.798-2.51-1.197l-1.085-.502c-.819-.382-1.637-.763-2.473-1.127l-1.05-.467c-.818-.346-1.636-.728-2.437-1.056l-2.4-.986-48.297 16.706.101 1.078c.078.637.156 1.273.269 1.945l.172 1.078c.094.548.207 1.113.302 1.696.112.53.447 1.978.447 1.978l.242 1.042c.259 1.06.537 2.137.85 3.214 2.597 9.055 7.122 19.507 13.465 31.11l5.296 3.47 5.868 3.996.037.106.035-.036 6.351 4.469c-5.471-9.664-9.45-18.776-11.788-26.878-4.126-14.368-2.629-24.49 4.344-29.32 12.929-8.906 43.705 1.625 82.343 28.187l6.965-3.998.071.035Zm68.947 71.26c-1.092-1.104-2.148-2.209-3.258-3.296l-2.38-2.331c-1.021-1.034-2.042-2.068-3.097-3.102l-3.222-3.155a205.606 205.606 0 0 1-2.827-2.698l-2.612-2.453a278.931 278.931 0 0 0-3.273-3.065l-3.058-2.785c-.966-.875-1.914-1.769-2.915-2.644l-2.915-2.609c-1.037-.91-2.056-1.838-3.093-2.748l-3.396-2.941-2.681-2.31c-.626-.543-5.147-4.339-6.111-5.144 0 0-5.27-4.285-6.146-5.002-.732-.577-5.411-4.284-6.179-4.861-.571-.454-3.374-2.569-4.677-3.565.038.283.076.495.096.725.059.513.083 1.026.089 1.557.024.619.046.991.033 1.362-.012.514-.042 1.045-.071 1.577l-.031.389c-.031.39-.045.762-.094 1.134-.047.514-.147 1.046-.212 1.577l-.101.533c-.066.39-.115.797-.199 1.205a30.513 30.513 0 0 1-.405 1.739l-.118.514c-.119.479-.203.852-.305 1.207l-.086.266c15.638 11.707 31.331 25.253 46.633 40.237a511.036 511.036 0 0 1 7.608 7.626c3.84-3.277 6.841-5.625 8.932-7.009l.071.07Zm1.29 1.333c-2.004 1.294-5.092 3.696-8.95 6.991l2.06 2.122 7.552-8.429-.662-.649v-.035Zm25.968 28.509a397.482 397.482 0 0 0-3.659-4.283l-1.309-1.492c-1.273-1.456-2.528-2.896-3.837-4.352l-1.38-1.526a405.65 405.65 0 0 0-3.871-4.281l-1.559-1.667a413.277 413.277 0 0 0-3.834-4.104s-3.421-3.595-4.621-4.84l-7.57 8.446c15.368 16.099 29.291 32.814 40.263 48.389 5.671-.993 10.911-.939 15.243.187l-1.385-1.951c-.953-1.318-1.906-2.636-2.876-3.937l-1.51-2.003c-.934-1.23-1.833-2.46-2.802-3.69l-1.616-2.072c-.952-1.213-1.904-2.46-2.874-3.689l-1.256-1.546a324.476 324.476 0 0 0-3.429-4.232l-1.238-1.493a399.849 399.849 0 0 0-3.588-4.319l-1.094-1.281-.233-.228.035-.036Zm74.855 100.923a132.389 132.389 0 0 0-1.303-4.112l-.329-.917a128.642 128.642 0 0 0-1.588-4.321l-.437-1.058a95.432 95.432 0 0 0-1.364-3.261l-.473-1.129-1.814-3.947a35.339 35.339 0 0 0-.798-1.691l-1.267-2.537c-.544-1.092-1.087-2.184-1.666-3.276l-.831-1.549a219.544 219.544 0 0 0-2.404-4.42l-1.282-2.235c-.74-1.285-1.462-2.553-2.238-3.873l-1.01-1.689c-1.01-1.689-1.876-3.097-2.777-4.575l-.973-1.513a311.584 311.584 0 0 0-3.117-4.872l-.756-1.126c-1.17-1.776-2.341-3.552-3.6-5.345l-2.069-2.972-4.081 8.643c8.422 13.848 14.206 26.129 17.208 36.525 4.125 14.368 2.628 24.49-4.345 29.32-7.887 5.441-22.332 3.795-41.758-4.794l-2.802 5.904c.9 1.301 3.023 4.36 3.023 4.36l1.224 1.829 4.005 1.996 3.702 1.805 3.613 1.681c.711.312 3.522 1.559 3.522 1.559.783.346 1.565.657 2.347.968l1.067.45c1.138.449 2.24.863 3.342 1.277l.108.105.017-.053.284.103c.96.345 1.92.69 2.844.999l3.144 1.014s2.433.702 3.055.89l1.171.307c.586.154 1.19.289 1.775.443l1.154.254c.585.118 1.153.254 1.721.355l1.064.202c.568.101 2.678.416 2.678.416a29.61 29.61 0 0 0 1.772.195l.762.081.337.015c.655.046 1.31.093 1.93.105.301.015 2.036-.002 2.284-.005.424-.004.849-.044 1.256-.065l.919-.08c.46-.04.919-.115 1.361-.173l.69-.095c.441-.057.865-.168 1.306-.261l.106-.036 10.545-35.258-.107-.105-.183-.458h.036ZM266.699 114.338c.085-.337.135-.568.186-.798l.27-1.136c.102-.426.204-.816.288-1.224.084-.408.115-.798.181-1.188l.165-1.099c.049-.372.099-.638.132-.886.031-.39.044-.762.075-1.151l.042-1.01c.032-.283.047-.549.026-.814-.004-.39-.043-.743-.065-1.115l-.046-.884c-.02-.266-.023-.514-.043-.743-.039-.319-.114-.637-.17-.937l-.187-.883a22.6 22.6 0 0 0-.113-.6c-1.069-.663-2.176-1.466-3.265-2.252l-1.285-.944c-1.213-.873-2.391-1.746-3.586-2.566-1.374-.96-2.676-1.886-3.979-2.776l-12.259 7.041c7.575 4.617 15.53 9.991 23.651 16.018l-.018-.053Zm-13.086-24.193c-15.109-10.313-28.968-18.142-41.222-23.35 3.211 5.42 5.249 11.897 5.91 18.776 6.953 2.817 14.679 6.741 22.947 11.652l12.382-7.096-.017.018ZM393.528 232.93l-1.225-1.9c-.793-1.231-1.513-2.357-2.252-3.5l-1.512-2.251c-.72-1.091-1.458-2.163-2.196-3.271l-2.159-3.094c-4.052-1.483-9.526-1.801-15.71-.82 8.455 12.131 14.935 23.307 19.312 33.195l7.401-15.65a275.93 275.93 0 0 1-1.659-2.709Zm18.073 36.392a64.86 64.86 0 0 0-.642-1.958l-.894-2.416a44.226 44.226 0 0 0-.784-2.064l-1.237-2.926c-.236-.582-.49-1.146-.744-1.71l-1.143-2.484c-.363-.775-.708-1.533-1.089-2.326l-1.158-2.29a128.66 128.66 0 0 0-1.357-2.659 277.772 277.772 0 0 0-1.374-2.536c-.524-.968-.94-1.761-1.392-2.553l-1.552-2.675c-.487-.827-.957-1.672-1.48-2.534l-.451-.757-7.643 16.147a74.235 74.235 0 0 1 3.249 8.748c.213.033.532.066.691.082.514.083 1.011.185 1.508.286l1.206.236c.656.117 1.206.236 1.757.354.514.119.994.274 1.491.411l1.225.359c.551.154 1.101.308 1.652.497.516.19 1.031.38 1.547.605l1.067.414c.533.207 1.066.414 1.6.657.516.225.997.486 1.478.747l.979.503c.605.313 1.104.556 1.567.835.499.278.962.592 1.426.906l.588.366-.11-.353.019.088ZM321.09 164.518a499.317 499.317 0 0 0-7.5-7.485c-15.07-14.756-30.531-28.111-45.901-39.66l-.068.213c-.12.408-.257.834-.393 1.261-.155.444-.326.941-.498 1.403l-.413 1.101c-.154.409-.292.8-.446 1.208-.241.605-.5 1.227-.776 1.831 0 0-.673 1.582-.846 1.973-.276.605-.57 1.192-.865 1.779 0 0-.813 1.689-1.003 2.063-.33.623-.659 1.246-.989 1.833 0 0-.919 1.691-1.127 2.047-.296.516-.609 1.014-.904 1.531l-.139.249c13.71 10.274 27.419 22.123 40.789 35.214a576.519 576.519 0 0 1 6.587 6.591c5.273-4.955 10.285-9.5 14.562-13.188l-.07.036Zm1.272 1.315c-4.261 3.67-9.272 8.216-14.562 13.188l3.653 3.788L324.6 168.13l-2.203-2.297h-.035Zm43.018 51.017c-10.827-15.258-24.481-31.639-39.509-47.405l-13.147 14.679c12.523 13.312 24.007 27.183 33.161 40.139 6.51-3.533 13.226-6.095 19.495-7.448v.035ZM193.022 44.292c-.658-.259-2.24-.827-2.24-.827-5.03-1.81-9.753-3.144-14.011-3.987-.993-.203-1.756-.32-2.483-.436l-.39-.067a32.5 32.5 0 0 0-2.092-.263l-.478-.048c-.673-.065-1.311-.13-1.949-.158l-.319-.032c-.797-.046-1.417-.057-2.001-.07l-.319.004c-.743.007-1.345.013-1.911.054l-.442.022a24.23 24.23 0 0 0-1.662.158l-.125-.052.001.07-.283.039c-.53.076-1.06.152-1.59.263l-.036-.035.001.036-.3.056c-.53.111-1.042.24-1.536.387-.723.237-1.358.455-1.957.709l-.387.18c-.599.29-.986.47-1.373.687a5.688 5.688 0 0 0-.616.378c-.386.251-.72.45-1.001.664-.211.144-.421.323-.614.484-.264.198-.509.448-.754.663l-.613.625c-.122.125-.245.25-.349.393-3.162 3.801-4.537 9.001-4.16 15.848l46.024-15.78-.035.035Zm73.114 71.91c-8.604-6.394-16.987-12.082-24.917-16.837l-21.317 12.21c11.138 5.131 24.168 13.163 37.786 23.243l1.026-1.692c.556-.961 1.075-1.957 1.596-2.918l.485-.926a66.15 66.15 0 0 0 1.54-3.183l.311-.64a75.684 75.684 0 0 0 2.927-7.393l.563-1.864Zm120.734 137.06c-4.486-10.098-11.326-21.908-20.339-34.795-6.235 1.247-13.004 3.756-19.584 7.326 10.326 14.803 17.468 28.203 20.666 38.757l.035-.036c.688-.201 1.358-.42 2.047-.622a42.89 42.89 0 0 1 1.13-.259 54.528 54.528 0 0 1 3.442-.795c.389-.074.76-.131 1.149-.17l1.308-.19c.707-.113 1.413-.226 2.156-.304.424-.04.831-.062 1.238-.083l1.451-.085c.407-.022.813-.079 1.238-.083l4.098-8.661h-.035ZM216.398 84.828c-.824-7.285-3.236-13.952-6.96-19.35-14.223-5.56-25.498-7.042-32.457-4.124 0 0-.546.235-.687.307 5.375 5.754 9.365 12.777 11.61 20.367 6.126-2.963 15.979-1.998 28.494 2.8Zm23.021 13.44c-7.537-4.44-14.588-8.053-21.007-10.698.417 7.235-.648 14.84-3.082 22.015.818.346 1.672.691 2.508 1.055l21.581-12.372Zm185.98 224.057c.459-.146.882-.327 1.322-.526l.669-.29a16.109 16.109 0 0 0 1.953-1.099c.299-.197.579-.412.843-.61l.526-.394c.263-.233.526-.466.789-.734l.245-.25.245-.25a6.03 6.03 0 0 0 .436-.518l.193-.196c.244-.357.331-.446.418-.571.105-.143.418-.641.418-.641.261-.41.383-.57.469-.766.087-.16.346-.711.346-.711s.312-.605.381-.783c.086-.196.31-.817.31-.817l.103-.285c.086-.23.172-.426.223-.621l.221-.834c.136-.462.204-.71.254-.976.069-.213.084-.444.134-.674l.101-.462c.05-.266.101-.532.133-.815.033-.213.113-.939.113-.939.047-.514.097-.816.112-1.117.015-.23.067-1.859.081-2.195l-.032-1.328-.029-.973a5.396 5.396 0 0 0-.062-.76c-.062-.796-.084-1.239-.142-1.681l-.291-2.209-.227-1.379-.227-1.237c-.075-.388-.337-1.696-.337-1.696s-.372-1.589-.427-1.783l-9.282 31.103.018.017Zm-10.812-39.26c-.059-.549-.083-1.097-.142-1.645-.041-.495-.136-1.008-.212-1.503-.152-.954-.305-1.944-.529-2.968l-.187-.884a69.434 69.434 0 0 0-.963-3.814c-.159.02-.622-.259-1.068-.555l-1.231-.82a24.353 24.353 0 0 0-1.123-.75 23.58 23.58 0 0 0-1.638-.869l-1.247-.661c-.321-.174-.659-.365-.997-.521-.641-.312-1.316-.554-1.974-.813l-1.244-.483c-.303-.121-.57-.242-.854-.346-1.013-.362-2.043-.635-3.09-.925l-.515-.155c-.267-.085-.445-.155-.622-.188-1.207-.307-2.502-.56-3.974-.811l-.072-.07-.017.018s-.373-.05-.39-.067c2.477 9.428 1.992 16.725-1.427 21.184.195.051.355.103.55.154l1.049.362c.959.309 1.901.671 2.861 1.051.498.208.854.346 1.174.484 1.067.45 2.135.971 3.168 1.527l.569.278c1.176.625 2.334 1.34 3.564 2.124.232.157.982.681.982.681a62.146 62.146 0 0 1 2.534 1.851c.357.28.696.542 1.053.822.912.752 1.823 1.54 2.7 2.363.314-.392.593-.785.854-1.159.209-.32.331-.481.417-.677.296-.48.52-.996.745-1.511l.035-.036-.018-.018.103-.284c.138-.32.223-.586.326-.87l.222-.764c.119-.443.205-.674.255-.905.034-.177.267-1.49.267-1.49l.05-.301c.049-.301.064-.532.079-.797l.079-.833c.015-.301.029-.637.025-.991l.013-.372.035-.036-.018-.018.011-.655c.012-.442-.01-.885-.033-1.362l.086-.16h-.07l-.082-.955-.069.143ZM213.659 108.893c2.45-7.228 3.444-14.867 2.903-22.084-12.659-4.974-22.406-6.01-28.195-2.963 1.869 7.257 2.078 14.884.637 22.12 5.515-2.196 14.005-1.199 24.655 2.927Zm176.32 153.296a77.502 77.502 0 0 0-2.285-6.403l-2.905 6.117c.372.014 1.434.039 1.434.039.62.012 1.24.023 1.877.053l1.436.145.461.066-.018-.017Zm-84.782-83.231a567.102 567.102 0 0 0-6.534-6.538c-13.28-13.004-26.9-24.765-40.449-34.952l-.33.552a70.492 70.492 0 0 1-1.376 2.084l-1.183 1.782c-.802 1.141-1.586 2.264-2.441 3.387l-.313.428a153.53 153.53 0 0 1-2.932 3.746l-.979 1.142c-.838 1-1.467 1.749-2.132 2.464-.262.268-1.276 1.376-1.276 1.376s-.875.964-1.4 1.5c.822.629 3.268 2.499 3.767 2.884.625.472 4.912 3.864 4.912 3.864l3.876 3.165c1.304 1.067 2.591 2.152 3.86 3.22l3.217 2.765a360.59 360.59 0 0 1 8.85 7.896l.698.684c3.13 2.854 6.225 5.78 9.214 8.707 1.772 1.735 3.543 3.47 5.263 5.258l.948.929a730.97 730.97 0 0 1 16.704-16.378l.036.035Zm5.032 5.208c-1.236-1.315-2.49-2.613-3.743-3.91a671.144 671.144 0 0 0-16.739 16.378c1.218 1.262 2.417 2.507 3.617 3.752l1.201 1.281 15.664-17.501Zm34.073 40.998c-9.01-12.745-20.351-26.441-32.784-39.665l-15.681 17.518 3.153 3.403 1.237 1.351c1.308 1.456 2.617 2.913 3.89 4.369l1.022 1.176a543.663 543.663 0 0 1 4.484 5.267l1.041 1.264c1.166 1.422 2.333 2.845 3.481 4.249l1.113 1.37a256.355 256.355 0 0 1 4.059 5.2l.754.984c1.096 1.458 2.157 2.881 3.217 4.305l1.061 1.459c.449.615.881 1.212 1.313 1.845 5.427-5.363 11.851-10.241 18.64-14.095Zm44.817 59.814c3.601-4.036 4.069-11.244 1.412-20.883-2.428-.277-4.607-.415-6.695-.359l-9.232 19.703a45.98 45.98 0 0 1 3.841-.02l1.063.06c.992.061 2.002.14 3.012.254l1.223.147c1.135.166 2.234.368 3.37.604l.621.118c.461.102.87.222 1.313.341l.089.017-.017.018ZM244.173 152.952c.35-.357.7-.715 1.015-1.072.437-.482.838-.964 1.258-1.464 0 0 1.537-1.785 1.817-2.142.401-.481.768-.963 1.152-1.462 0 0 1.5-1.927 1.745-2.248.435-.588.871-1.177 1.289-1.782l1.43-1.997c.453-.642.852-1.3 1.288-1.96l1.218-1.888.347-.57c-14.065-10.447-27.468-18.635-38.765-23.711l-5.171 2.954c-2.434 5.6-5.88 10.802-10.166 15.358a98.871 98.871 0 0 1 4.02 1.766l.285.139c2.865 1.335 5.892 2.898 9.009 4.62l.391.208c1.497.835 2.993 1.706 4.544 2.629l.641.383c1.497.906 3.03 1.846 4.581 2.84l.749.489c1.551.993 3.121 2.04 4.708 3.104l.695.471a330.54 330.54 0 0 1 4.96 3.456l.517.367.036.035 1.071.768c1.196.856 2.374 1.73 3.57 2.621.595-.608 1.784-1.894 1.784-1.894l-.018-.018Zm121.694 112.164c-3.179-10.466-10.249-23.761-20.521-38.44-6.807 3.872-13.249 8.732-18.623 14.113l1.349 1.916a304.4 304.4 0 0 1 3.223 4.836l.883 1.39c.937 1.478 1.838 2.92 2.704 4.363l.343.581a194.288 194.288 0 0 1 2.725 4.735l1.5 2.729c.326.634.634 1.25.941 1.867l.652 1.268.145.282c.453.933.815 1.709 1.178 2.484l.745 1.674 1.163 2.75c.146.353.291.705.401 1.058l.821 2.17.202.653.934 1.159 1.051-.967c.367-.375.771-.715 1.157-1.038.473-.411.965-.77 1.456-1.129l1.158-.896c.439-.341.808-.61 1.177-.879.544-.377 1.124-.719 1.687-1.079l1.178-.737c.439-.27.79-.521 1.142-.702.633-.36 1.285-.703 1.936-1.01l1.197-.614 1.056-.541c.828-.38 1.691-.725 2.537-1.051l1.004-.417c.265-.127.529-.218.811-.327l.635-.219.053.018Zm16.005-1.308c-.938.027-1.84.089-2.742.186-.336.021-.671.078-1.007.134l-1.219.171c-.813.115-1.538.21-2.262.341-.424.075-.813.185-1.219.278l-1.483.333a48.65 48.65 0 0 0-1.73.406c-.441.128-.882.257-1.323.42l-.811.256c2.069 7.733 1.89 13.93-.542 17.989.6-.112 1.165-.223 1.731-.3.406-.057.83-.132 1.237-.189.672-.077 1.343-.155 1.998-.214l9.355-19.793.017-.018ZM186.268 82.946c-2.138-7.555-6.164-14.578-11.628-20.348-.105.072-.228.162-.351.252-.158.125-.298.233-.439.34a19.76 19.76 0 0 1-.473.377c.215.21 1.666 1.806 1.666 1.806.376.368.735.79 1.076 1.193.394.457.754.949 1.113 1.441l.917 1.212c.323.422.61.773.862 1.16a29.2 29.2 0 0 1 1.117 1.76l.739 1.178c.235.37.469.739.668 1.109.361.633.669 1.285.995 1.955l.598 1.215c.181.352.362.705.525 1.075.345.757.619 1.551.911 2.327l.42 1.111c.128.336.273.653.365.988.037.141.091.265.128.406.211-.18.422-.323.65-.484l.087-.09.054.017Zm247.151 236.345a18.388 18.388 0 0 1-1.698 1.627s-.983.789-1.141.879c-.229.161-.457.287-.703.431l-19.952 69.424.092.265.096.689c.191 1.202.326 2.245.444 3.271.178 1.679.302 3.307.355 4.864l22.472-81.45h.035ZM145.182 60.675c-.532-7.943 1.135-14.013 4.931-18.104L72.114 65.657c9.44.491 20.836 3.353 33.923 8.57l39.162-13.57-.017.018Zm38.733 23.958c-.075-.317-.167-.617-.258-.917a27.609 27.609 0 0 0-.475-1.27l-.547-1.411c-.219-.6-.401-1.093-.601-1.57-.182-.422-.399-.81-.598-1.215l-.67-1.356a29.617 29.617 0 0 0-.761-1.515c-.234-.405-.487-.792-.739-1.179l-.757-1.232a20.73 20.73 0 0 0-.955-1.495c-.27-.404-.575-.773-.845-1.142l-.916-1.212a29.3 29.3 0 0 0-1.041-1.335c-.341-.404-.718-.808-1.076-1.194 0 0-1.344-1.456-1.541-1.684-.297.375-.558.75-.819 1.123-.175.25-.314.464-.418.677-.277.498-.52.996-.744 1.512-.172.426-.309.817-.447 1.208l-.187.621c-.103.355-.187.693-.29 1.048l-.07.071.036.035-.032.284c-.084.372-.151.762-.2 1.135l-.032.318a32.7 32.7 0 0 0-.159 1.595l-.014.301c-.029.567-.025.92-.039 1.293l-.006 1.044c.005.46.01.85.05 1.239l.082 1.026c.04.424.062.83.12 1.273l.213 1.573c.152.954.304 1.909.528 2.898l.223.989c.279 1.183.576 2.42.926 3.673.766.435 1.606 1.117 2.625 2.045l1.306 1.209c.322.315.644.63.931.982l.681.736c.197.193.394.386.538.597.879 1 1.651 1.966 2.334 2.95l.216.317c.432.633.864 1.266 1.243 1.917-.927-6.894.165-12.162 3.241-15.626l-.074-.318.018-.018Zm224.925 214.79a9.207 9.207 0 0 0 1.105-.878 34.577 34.577 0 0 0-2.645-2.31l-.697-.542a52.495 52.495 0 0 0-2.962-2.166l-.732-.506a42.578 42.578 0 0 0-3.563-2.089l-.783-.382a43.677 43.677 0 0 0-3.061-1.422l-.96-.415a47.316 47.316 0 0 0-3.821-1.361l-.072-.07-.017.053s-.764-.222-.977-.256a2.76 2.76 0 0 1-.473.412c7.107 2.338 13.755 6.397 19.231 11.76l.287.28s.088-.054.123-.09l.017-.018ZM215.903 111.756c-.391-.173-.765-.329-1.156-.502-.171.497-.378.995-.568 1.475l1.742-.991-.018.018Zm157.908 184.665c13.318 5.304 24.063 6.969 31.049 4.847.829-.274 1.393-.492 1.921-.745l.265-.126c-5.674-5.556-12.623-9.594-20.063-11.734-3.41 2.158-8.715 2.67-15.544 1.445l-1.037 2.205a37.036 37.036 0 0 1 3.409 4.073v.035Zm-162.076-182.27c.342-1.03.86-2.274 1.323-3.571-11.272-4.385-19.812-5.151-24.771-2.235-.264 1.773-.947 3.974-1.842 6.214.325.634.67 1.427 1.016 2.22l.308.687 1.269 2.678.725 1.48 1.755 3.364.482.367 19.735-11.204Zm-24.202-9.905c1.027-6.24.793-12.912-.784-19.393a90.66 90.66 0 0 0-.701.61l.387 1.358c.074.283.165.547.222.848.279 1.183.452 2.403.642 3.605 0 0 .169.865.189 1.06a49.18 49.18 0 0 1 .372 4.775c.05 1.345.013 2.78-.059 4.214-.015.23-.144 1.364-.144 1.364-.047.514-.077 1.01-.125 1.524l.001.035ZM427.66 323.418s-.23.091-.353.145l-1.251.491-.423.145-.018-.017-.653.201-17.324 57.397c.346.899.679 2.135.975 3.336 0 0 .464 1.925.577 2.49l18.452-64.205.018.017ZM184.963 108.696c.063-.637.199-1.17.282-1.684l.249-1.436c.149-.94.245-1.897.34-2.853l.049-.408c.014-.301.064-.602.078-.903.107-1.506.127-2.887.077-4.196a44.879 44.879 0 0 0-.37-4.599c-.04-.389-.132-.76-.19-1.131l-.282-1.537c-.114-.672-.209-1.255-.34-1.838a25.015 25.015 0 0 0-.259-.989c-2.908 4.224-3.096 11.183-.57 20.203l.366 1.094.203.688c.122-.125.227-.268.349-.393l.018-.018Zm202.052 178.108s.157-.161.263-.197a.894.894 0 0 1 .211-.144c-.231-.051-.479-.119-.71-.17l-1.047-.22a48.807 48.807 0 0 0-3.599-.548l-.072-.071-.035.036-.283-.032a43.535 43.535 0 0 0-2.853-.203c2.712.275 5.426.797 8.142 1.531l-.017.018Zm-37.618-6.587c2.047 1.024 5.945 2.915 9.253 4.299 1.102.449 2.4.914 3.483 1.275.581-.306 1.551-.617 2.875-.966 3.114-3.287 3.611-9.523 1.339-17.979-.212.072-.353.109-.512.164-.44.164-.863.345-1.304.544l-1.409.58c-.617.236-1.075.418-1.533.635-.405.198-.827.415-1.232.613l-1.408.722c-.493.253-.986.506-1.461.776-.387.216-.721.449-1.09.683l-1.371.863c-.492.288-.967.594-1.441.935-.351.251-.72.52-1.07.807l-1.229.932c-.492.359-.966.7-1.422 1.094l-.876.787-1.279 1.199 1.599 2.055.088-.018Zm73.305 44.719a20.93 20.93 0 0 1-1.837.301l-.318.039c-8.327.949-19.202-1.193-32.341-6.356l-4.424 11.177.812 1.355a345.248 345.248 0 0 1 3.411 5.896l1.156 2.042a560.655 560.655 0 0 1 2.946 5.406l.614 1.126.127.265a217.847 217.847 0 0 1 3.294 6.481l.29.564.49 1.04a190.854 190.854 0 0 1 2.321 4.968l.526 1.146.327.74c.908 2.044 1.78 4.089 2.581 6.064l.128.3c.782 1.921 1.476 3.826 2.152 5.678l.274.759.33.988c.403 1.199.787 2.381 1.155 3.546l16.004-53.543-.018.018Zm-221.85-194.694c3.709-3.86 6.828-8.263 9.341-13.12l-16.533 9.473c.892.664 2.713 2.062 2.713 2.062.373.085.977.292 1.581.498l.462.173c.8.293 1.6.586 2.436.914Zm171.383 158.229c4.895.802 8.965.656 12.139-.437-3.355-.764-6.74-1.173-10.015-1.159-.354.004-.69.025-1.044.028l-.336.021-.744 1.547Zm-91.195-97.983-.985-.964c-1.056-1.034-2.111-2.068-3.184-3.048l-1.003-.982c-1.091-.998-2.146-1.997-3.219-2.977l-4.275-3.906-1.269-1.138a198.579 198.579 0 0 0-3.039-2.696l-1.645-1.435-2.699-2.328-1.287-1.085c-1.072-.91-2.073-1.75-3.091-2.607l-1.536-1.259c-1.072-.875-1.966-1.61-2.876-2.326l-2.054-1.626c-.786-.63-1.572-1.259-2.358-1.854l-3.927-2.97c-1.068 1.09-2.119 2.056-3.135 2.987l-.578.519-1.49 1.306 1.233 1.068 8.975 7.984 8.888 8.108 8.748 8.216 1.844 1.805a597.233 597.233 0 0 1 6.782 6.536c2.541 2.489 4.886 4.784 7.213 7.134a649.072 649.072 0 0 1 6.107-6.344l-2.077-2.104s-3.276-3.278-4.082-4.067l.019.053Zm8.11 8.152-.68-.666c-2.223 2.27-4.253 4.343-6.072 6.308.823.806 3.831 3.892 5.174 5.242l5.787-6.483-4.192-4.419-.017.018Zm35.199 41.924c-8.22-11.619-18.485-24.122-29.736-36.19l-5.769 6.465 2.506 2.559c2.382 2.473 4.746 4.928 7.093 7.401l1.398 1.508a883.035 883.035 0 0 1 5.805 6.245l2.275 2.473c1.828 2 3.674 4.018 5.467 6.018l1.559 1.737c1.847 2.089 3.693 4.142 5.504 6.23a79.559 79.559 0 0 1 3.951-4.428l-.053-.018Zm-86.863-80.961c.455-.394 2.102-1.933 2.102-1.933a58.5 58.5 0 0 0 1.523-1.484 262.796 262.796 0 0 0-4.568-3.318l-1.535-1.083a208.127 208.127 0 0 0-3.746-2.583l-1.676-1.116c-1.142-.768-2.247-1.5-3.371-2.215-1.176-.767-2.353-1.499-3.529-2.231l-1.373-.854c-7.147-4.338-13.823-7.759-19.851-10.231l1.178.909 5.465 4.301c1.054.821 2.089 1.625 3.125 2.465l6.288 5.107c.983.787 1.93 1.574 2.912 2.361 0 0 8.362 6.998 9.131 7.646l6.399 5.53 1.49-1.307.036.036Zm-90.538-88.201-.241-1.007c-.65-2.737-1.105-5.353-1.362-7.81l-36.942 12.664c3.698 1.521 7.613 3.288 11.67 5.231 1.441.676 2.848 1.388 4.29 2.1l23.177-8.883c-.184-.67-.592-2.26-.592-2.26v-.035Zm265.044 332.461c9.085-18.586 12.77-38.855 16.356-58.485.15-.798.3-1.631.45-2.464l-16.806 60.949Zm-78.207-148.876c-2.417-4.048-5.227-8.375-8.357-12.875a70.359 70.359 0 0 0-3.793 4.303l1.757 2.036c1.686 1.966 3.354 3.914 5.022 5.863l1.938 2.282c2.135 2.545 4.27 5.091 6.334 7.637l.197.193c1.741 2.16 3.375 4.215 5.008 6.235-.164-.406-.346-.829-.527-1.252l-.381-.828a78.394 78.394 0 0 0-1.197-2.572l-.363-.74a99.716 99.716 0 0 0-1.412-2.783l-.216-.388c-.651-1.197-1.176-2.201-1.753-3.222l.016-.124-.053.054-.162-.264c-.614-1.091-1.246-2.2-1.913-3.309l-.162-.264.017.018Zm37.089 32.046c-1.097.082-2.175.181-3.218.351l.498.136.001.106c.763.188 1.49.34 2.218.492l.501-1.085ZM182.61 108.843l-.31-.793-.182-.494c-.183-.494-.329-.917-.511-1.34a12.522 12.522 0 0 0-.58-1.198l-.489-1.004c-.181-.388-.38-.793-.579-1.163a20.943 20.943 0 0 0-.721-1.161l-.559-.897c-.252-.387-.487-.792-.757-1.161-.252-.387-.557-.756-.862-1.125l-.574-.737c-.306-.405-.611-.809-.952-1.177-.287-.351-.591-.65-.913-.965l-.663-.648a10.892 10.892 0 0 0-.877-.93l-.287-.28c-.286-.28-.625-.543-.947-.823l-.107-.105c.091.3.696 2.082.696 2.082.31.864.566 1.57.839 2.293.165.44.347.9.529 1.358.291.74.601 1.463.892 2.204l.582 1.375c.345.793.708 1.603 1.071 2.414l.508 1.128c.563 1.251 1.124 2.361 1.686 3.506l.001.106.035-.036.326.634a122.91 122.91 0 0 0 1.755 3.435l1.103 2.06.406-1.703.116-.656c.05-.337.181-1.294.181-1.294.049-.372.08-.727.111-1.117l.014-.301c.014-.371.01-.725.006-1.079l-.004-.39.017-.018Zm186.985 180.929c-.923-.204-1.881-.442-2.875-.68a29.757 29.757 0 0 1 2.287 1.925l.57-1.227.018-.018Zm-89.746-85.465c-2.309-2.296-4.636-4.61-6.981-6.906-12.009-11.759-24.422-23.25-36.881-34.084l-1.14.914a90.102 90.102 0 0 1-3.335 2.51l-.282.18a71.868 71.868 0 0 1-3.321 2.139l-.422.252c-.229.126-.422.252-.633.36 13.549 10.187 27.098 21.914 40.288 34.83a567.369 567.369 0 0 1 6.534 6.539c1.993-2.25 4.144-4.555 6.173-6.734Zm39.379 42.131a869.762 869.762 0 0 0-38.108-40.852 384.873 384.873 0 0 0-6.19 6.752c14.111 14.518 26.954 29.686 37.115 43.906l.678.489c1.626-3.379 3.8-6.852 6.505-10.295ZM159.239 101.992l-2.009-3.963-2.012-4.14-1.85-4.053-.964-2.31a41.58 41.58 0 0 1-.692-1.656l-1.494-3.845-1.299-3.757s-.624-2.012-.899-2.841l-21.628 8.16c2.065 1.041 4.131 2.154 6.232 3.266l.445.226a300.186 300.186 0 0 1 7.463 4.158l.108.175.07-.071.25.14c1.532.87 3.064 1.775 4.632 2.715l1.105.662c1.355.8 2.727 1.62 4.081 2.456l1.319.8c1.391.872 2.816 1.743 4.225 2.632l.98.61c.82.523 1.623 1.029 2.407 1.552l-.506-.951.036.035Zm208.938 190.767a31.332 31.332 0 0 0-5.036-3.915l-.157.161s-.778.078-1.008.133c-.265.056-.512.094-.724.132l-.018-.018s-1.888.496-1.959.497a193.302 193.302 0 0 0 8.4 4.06l.502-1.05Zm1.378 1.385-.19.409c.32.139.623.26.925.416l-.735-.825Zm-134.98-132.07c-11.601-10.064-23.249-19.615-34.658-28.407-.736.68-1.472 1.36-2.262 1.987l1.424 2.234c1.135 1.777 2.342 3.659 3.386 5.207l.468.703c1.08 1.583 3.24 4.783 5.055 7.261l1.079 1.476c2.085 2.847 3.559 4.815 4.709 6.362l.001.071.035-.036.179.246c.611.808 1.33 1.757 2.066 2.688a276.713 276.713 0 0 1 9.172 6.566c.299-.163.528-.289.774-.433l.036.035.035-.036.246-.144a49.311 49.311 0 0 0 1.987-1.205s1.581-1.042 2.038-1.365c0 0 1.65-1.185 2.072-1.507l2.175-1.721-.017.018Zm109.45 114.177a800.238 800.238 0 0 0-23.56-28.391c-2.617 3.353-4.686 6.719-6.243 9.991 0 0 4.105 2.969 5.64 4.087a300.005 300.005 0 0 0 6.35 4.398c2.997 2.024 6.1 4.047 8.738 5.685l.214.14c2.549 1.586 5.827 3.5 9.265 5.432-.129-.442-.293-.883-.422-1.324l.018-.018Zm13.595 11.178a29.27 29.27 0 0 1 1.551-.653 29.148 29.148 0 0 0-6.253-1.921c.647.843 1.276 1.705 1.923 2.548l1.3.713a86.002 86.002 0 0 1 1.479-.687ZM187.841 122.298a146.65 146.65 0 0 1-1.634-3.63c.026.76.018 1.557-.008 2.442l1.642 1.188Zm178.97 173.36a208.805 208.805 0 0 1-9.149-4.477c1.438 1.968 2.876 3.901 4.261 5.853l2.536 3.568 2.334-4.926.018-.018ZM196.7 134.088c.596-.501 1.174-1.02 1.753-1.539l-2.893-2.202-.284-.068c-.319-.103-.675-.206-1.03-.309a147.09 147.09 0 0 0 2.454 4.118Zm-12.33-15.084c-.104.178-.191.338-.295.516l.018.018.25.245c.015-.265.012-.513.01-.761l.017-.018Zm202.129 199.224a192.75 192.75 0 0 1-14.465-6.637c.522.791 1.044 1.547 1.566 2.339l1.315 2.022a348.16 348.16 0 0 1 3.531 5.488l.882 1.355.235.405c1.082 1.759 2.091 3.378 3.047 4.944l3.907-9.898-.018-.018ZM189.526 125.733c-.928-.628-2.016-1.414-3.105-2.2.433.739 1.929 3.114 1.929 3.114a22.51 22.51 0 0 1 1.791.319l-.633-1.25.018.017Zm158.971 156.298a17.495 17.495 0 0 1-1.049-.432l.169.865s.849-.008 1.186.007l-.324-.422.018-.018Zm1.796 2.354-.035.036a12.36 12.36 0 0 0-.904-.115l1.55.888c-.215-.282-.449-.58-.611-.809ZM194.84 135.558a191.078 191.078 0 0 1-3.595-6.461 29.433 29.433 0 0 1-1.561-.268s.649 1.056.938 1.513l.432.704a292.118 292.118 0 0 0 3.26 4.942c.175-.143.403-.305.544-.412l-.018-.018Zm-15.26-14.312.294-.622.587-1.387a339.216 339.216 0 0 0-6.477-4.556l-1.57-1.082a591.528 591.528 0 0 0-6.849-4.642l-.749-.488c3.305 5.827 7.091 11.985 11.233 18.281l.122-.125c.279-.392.575-.802.907-1.248.226-.338.435-.659.644-.944l.678-1.087.313-.534.017-.018.815-1.512.035-.036Zm166.104 160.901c-.112-.53-.242-1.007-.353-1.501l-.77.786 1.122.68.001.035ZM184.19 123.449c-.143-.14-.269-.334-.413-.545.077.566.19 1.167.303 1.767.032-.283.11-1.222.11-1.222Zm159.484 156.24c-5.395-2.797-11.043-6.087-16.909-9.836l3.586 2.461c1.195.82 2.372 1.588 3.566 2.372 1.249.838 2.497 1.64 3.71 2.442 1.283.837 2.585 1.656 3.85 2.441l1.48.923s.49-.536.717-.803Zm22.763 26.877a579.668 579.668 0 0 0-11.059-15.416l-.686.308s-.828.38-.969.452l-.334.163a37.832 37.832 0 0 0-3.253 1.961l-.878.61c-.475.341-.878.682-1.281 1.022l4.528 2.823c.926.557 4.116 2.491 4.116 2.491 1.337.783 2.655 1.549 3.974 2.315 0 0 3.135 1.775 3.972 2.245l1.906 1.025-.036.001Zm-18.163-19.187c1.188.254 2.341.437 3.458.585a152.604 152.604 0 0 1-3.563-2.053c.04.46.08.884.103 1.291l.001.141.001.036Zm-.587 6.077a29.18 29.18 0 0 1 1.667-1.273c.158-.126.861-.593.861-.593a59.424 59.424 0 0 1 2.601-1.689c.017-.018.052-.054.087-.054-1.381-.093-2.906-.326-4.592-.681.005.39-.026.779-.04 1.151-.062.78-.178 1.507-.312 2.181-.034.141-.186.762-.237.922l-.035.036ZM185.725 126.213l-.034.142s.071-.001.125.016l-.091-.158Zm-3.167.084a35.19 35.19 0 0 1-.603-3.216c-.835 1.248-1.778 2.46-2.791 3.674.583-.13 1.184-.242 1.802-.336l.265-.021c.442-.057.884-.079 1.327-.101Zm10.14 10.84a319.165 319.165 0 0 1-5.638-8.742c-.585-.083-1.152-.113-1.702-.161l-.271 1.065c.918 2.929 2.267 6.456 3.865 10.052a47.911 47.911 0 0 0 3.728-2.196l.018-.018Zm6.794 6.058a162.75 162.75 0 0 1-3.714-6.053c-.123.125-.298.233-.456.358l1.08 1.618c.558.827 1.151 1.653 1.745 2.479l1.007 1.442.374.155-.036.001Zm72.96 69.203a382.615 382.615 0 0 0-6.588-6.591c-13.405-13.127-27.132-24.958-40.77-35.197-.352.181-1.056.506-1.479.723 1.31 1.598 2.62 3.196 3.751 4.547l3.659 4.284 3.658 4.212a373.228 373.228 0 0 0 5.091 5.72l3.924 4.263 1.362 1.474c2.257 2.42 4.514 4.77 6.61 6.962l1.432 1.473.198.299.985.964a432.533 432.533 0 0 1 4.421 4.4l.698.683c2.47 2.419 5.279 5.099 8.052 7.745 1.204-1.587 2.863-3.604 4.943-5.943l.053-.018Zm34.576 40.019c-9.453-12.652-20.913-25.975-33.269-38.704-1.992 2.285-3.652 4.266-4.872 5.906a812.284 812.284 0 0 0 7.191 6.762c3.255 2.978 7.438 6.654 11.746 10.346l4.182 3.57 2.019 1.698a547.023 547.023 0 0 0 8.931 7.24c1.286 1.014 2.643 2.063 4.09 3.199l-.018-.017Zm39.322 33.919-.117-.99-.095-.584-.963-.592c-.724.131-1.856.248-3.216.456l-.208.392-.314.428c1.706.585 3.375 1.099 4.955 1.491-.02-.194-.022-.407-.042-.601Zm-19.873-7.417c3.775 1.946 7.387 3.627 10.712 4.958.951-.399 2.381-.75 4.042-1.014l.189-.515.28-.286c-7.183-4.443-14.674-9.503-22.331-15.074a200.036 200.036 0 0 1 7.108 11.896v.035ZM172.466 124.502l-2.902-4.592c-.414-.686-3.281-5.384-3.281-5.384l-2.094-3.59-2.474-4.384-.002-.177-.678-.453c-1.373-.889-2.728-1.797-4.101-2.65l-1.533-.977a540.258 540.258 0 0 0-6.827-4.234l-1.907-1.167a408.735 408.735 0 0 0-7.056-4.144l-.677-.383a353.443 353.443 0 0 0-6.395-3.566l-1.692-.921a308.309 308.309 0 0 0-6.231-3.231l-.605-.313-76.252 28.892.972 3.053c.22.741.422 1.359.642 1.994l.42 1.252 1.151 3.122c.256.706.511 1.411.803 2.116l.4 1.023c.219.529 1.546 3.684 1.546 3.684.364.846.71 1.71 1.091 2.574l1.887 4.123c.38.793.726 1.586 1.107 2.379l.797 1.656 1.412 2.819c.67 1.356 1.268 2.572 1.901 3.787.235.44 1.41 2.606 1.41 2.606.742 1.391 1.483 2.782 2.26 4.173l1.498 2.658a265.309 265.309 0 0 0 2.726 4.699l1.425 2.411a363.12 363.12 0 0 0 3.787 6.194l.919 1.46c1.225 1.935 2.45 3.87 3.73 5.822l1.35 2.058a620.377 620.377 0 0 0 4.446 6.63l.45.686c.81 1.178 1.656 2.391 2.501 3.604l.612.879 23.231-13.628c-3.839-7.644-6.678-14.626-8.429-20.786-4.126-14.368-2.628-24.49 4.345-29.32 9.433-6.518 28.486-2.74 53.647 10.59.352-.181.81-.397 1.286-.597l.423-.181.739-.361c.299-.162.616-.307.968-.488a62.576 62.576 0 0 0 2.743-1.655c.334-.233.668-.431 1.036-.701l.632-.466a29.41 29.41 0 0 0 1.632-1.344l.473-.411c.561-.501 1.104-.985 1.629-1.521.473-.482.892-.947 1.277-1.411l.245-.25-2.432-3.711.019.053Zm209.282 205.739a441.108 441.108 0 0 0-13.169-20.528c-6.587-3.369-13.91-7.634-21.701-12.567l-.339-.227-.175.179c-.526.43-.946.823-1.349 1.234-.315.322-.542.554-.752.84l-.454.535c-.716.839-1.468 1.714-2.061 2.463l-.296.41a58.94 58.94 0 0 0-2.451 4.007l-.07.071-.139.285c-.277.534-.605 1.263-1.002 2.205-.19.444-.344.888-.516 1.315 5.722 9.909 9.845 19.268 12.239 27.599 4.126 14.368 2.629 24.49-4.345 29.32-11.435 7.883-36.864.627-69.753-19.92l-12.855 20.217 6.087 4.489 5.014 3.615 5.817 4.085s4.744 3.246 5.797 3.961l2.711 1.815c1.123.75 2.104 1.395 3.085 2.04l6.294 4.063 1.194.749c1.408.889 2.799 1.761 4.171 2.615l1.212.731c1.426.871 2.834 1.725 4.242 2.578l1.087.645c1.443.853 2.869 1.689 4.294 2.489l.89.487c1.461.835 2.94 1.652 4.365 2.453l.694.365c1.514.817 2.992 1.634 4.47 2.416l.766.4c1.442.747 2.849 1.494 4.255 2.206l.872.434c1.371.677 2.706 1.354 4.041 1.996l.694.33c1.388.659 2.758 1.3 4.092 1.907l.836.363c1.299.572 2.58 1.161 3.861 1.715 0 0 2.596 1.072 3.539 1.47l34.756-87.766.052-.089ZM183.26 128.981s-.146-.388-.238-.724l-.036-.106s-.319.003-.478.023l-.301.02c-.601.042-1.008.099-1.414.156a19.35 19.35 0 0 0-.831.132c-.618.13-1.076.276-1.552.44a7.148 7.148 0 0 0-.547.165c-.071.036-.124.054-.176.072a361.539 361.539 0 0 0 3.725 5.469c.241-.569.569-1.369.569-1.369.378-1.03.72-2.06 1.009-3.107l.271-1.136-.018-.017.017-.018Zm21.973 25.822a403.188 403.188 0 0 1-11.527-16.154c-1.195.791-2.496 1.547-3.974 2.34a133.795 133.795 0 0 0 3.512 6.975c3.828 1.998 7.872 4.313 11.989 6.839Zm-3.651-8.372s-.054-.052-.107-.07l.737 1.002a14.23 14.23 0 0 1-.613-.95l-.017.018Zm144.02 147.435c.138-.355.189-.515.223-.657.137-.462.237-.958.338-1.455 0 0 .101-.461.118-.55.098-.709.16-1.453.169-2.25l-.001-.141c-1.811-.443-3.889-1.077-6.039-1.817l-.731 1.14s-.659 1.174-.867 1.566l3.263 2.181 3.442 2.249s.051-.16.086-.231l-.001-.035Zm-122.15-124.479a189.943 189.943 0 0 0-3.444-2.497l2.423 3.003s.704-.326 1.021-.47v-.036Zm-36.101-29.224a101.916 101.916 0 0 1-3.097-7.829 22.996 22.996 0 0 1-.652 1.847c-.104.249-.707 1.724-.931 2.24 1.043 1.476 2.104 2.971 3.165 4.465.494-.217.986-.47 1.479-.723h.036Zm150.152 148.083c.434-.766.695-1.175.921-1.585l.191-.303c-.622-.224-1.227-.465-1.867-.707-.616.272-1.497.599-2.467.98l2.979 2.042.226-.41.017-.017ZM218.359 171.402a479.225 479.225 0 0 1-9.389-11.715c-.167 2.463-.723 5.035-1.666 7.717a774.823 774.823 0 0 1 6.357 4.929c.122-.125.423-.146.741-.184l.672-.078c.583-.094.936-.133 1.325-.207l.494-.111c.495-.111.83-.203 1.201-.295l.264-.091.001.035Zm105.162 105.953c-2.419-4.26-5.232-8.799-8.382-13.494l-.16-.087-2.392-1.818c-.891 2.7-1.358 5.253-1.402 7.625l3.053 2.36c3.155 1.934 6.291 3.779 9.319 5.414h-.036ZM205.804 166.25c.942-2.859 1.425-5.572 1.414-8.068a215.957 215.957 0 0 0-12.384-7.33 179.738 179.738 0 0 0 5.591 9.22c1.4 1.757 2.836 3.548 4.308 5.339l1.071.804v.035Zm103.631 101.968c.186-2.374.725-4.857 1.634-7.433a412.404 412.404 0 0 1-6.357-4.929c-.211.144-.511.164-.812.185l-.672.077c-.53.076-.866.133-1.201.189-.23.055-.477.093-.707.149-.318.073-.671.148-.988.257l-.283.074a514.373 514.373 0 0 1 8.743 10.871l.678.524-.035.036Zm23.062 17.156c.599-.254 1.216-.49 1.886-.709a127.547 127.547 0 0 1-6.476-2.981c.126.229.253.493.379.722l2.427 1.711 1.784 1.257Zm62.987 139.715c.493-.182.969-.381 1.427-.562.3-.127.617-.272.898-.416.458-.217.863-.451 1.232-.685l9.093-32.092c-.073-.177-.166-.583-.241-1.007l-.112-.53c-.15-.742-.318-1.501-.486-2.261l-.372-1.589a69.656 69.656 0 0 0-1.09-4.079c-4.088-14.191-11.781-30.896-22.93-49.656l-34.204 86.486a294.84 294.84 0 0 0 3.751 1.432l.729.259c1.19.43 2.381.861 3.554 1.239l.746.241c1.137.378 2.291.738 3.411 1.099l.852.24c1.066.308 2.131.616 3.161.889l.816.204c1.065.273 2.077.529 3.053.749l.905.186c.994.203 1.916.406 2.803.575l.905.15c.94.15 1.809.301 2.642.417l1.453.162c.656.082 1.312.164 1.932.211.284.033 1.328.076 1.328.076l.39.032c.461.03.904.044 1.346.057.266.015 1.151.007 1.151.007s1.398.004 1.752 0c.39-.004.761-.025 1.15-.064l.071-.001.301-.021s.937-.062 1.255-.1c.513-.059.99-.116 1.485-.192l1.113-.17c.495-.076.989-.187 1.448-.298l.636-.148.125.052-.036-.035.317-.109c.459-.111.882-.256 1.323-.385l.724-.237.229-.091-.036-.035ZM190.431 146.54a113.13 113.13 0 0 1-2.318-4.721c-.388.181-.775.397-1.145.56.953 1.319 1.87 2.566 2.805 3.832.213.104.445.225.676.347l-.018-.018Zm-14.256-16.41c-.806.716-1.489 1.342-2.208 1.969-.227.303-.297.41-.366.552a4.65 4.65 0 0 0-.312.569 10.89 10.89 0 0 0-.483 1.138c-.103.284-.172.462-.241.64a10.12 10.12 0 0 0-.337 1.49l-.118.55a21.587 21.587 0 0 0-.17 2.214l.002.177c1.083.255 2.202.58 3.339.923l5.15-3.254s.067-.32.153-.515l-4.409-6.453Zm56.71 58.122a552.516 552.516 0 0 1-13.27-15.34c-.812.256-1.606.494-2.383.643-.582.129-1.13.223-1.643.281a569.957 569.957 0 0 1 17.296 14.381v.035Zm65.873 67.06a20.732 20.732 0 0 1 2.33-.624l.23-.056a20.17 20.17 0 0 1 1.431-.244 577.433 577.433 0 0 1-17.189-14.275 601.846 601.846 0 0 1 13.181 15.217l.017-.018Zm37.372 44.718c.637-.041 1.062-.081 1.486-.156.406-.057.583-.094.777-.114.654-.13 1.13-.294 1.588-.44l.565-.183a10.336 10.336 0 0 0 1.531-.776c.7-.715 1.523-1.484 2.365-2.2.122-.161.209-.286.261-.375l-2.656-1.726a227.486 227.486 0 0 1-3.727-2.459l-.339-.227c-.208.427-.398.836-.588 1.245l-.397.942c-.258.622-.517 1.244-.74 1.866l-.222.728a48.986 48.986 0 0 0-.565 1.722l-.356 1.402.018.018c.072.07.146.352.22.705l.019.124.496-.005.265-.02-.001-.071ZM181.843 138.376l-.316.18c-.189.551-.519 1.138-.865 1.779-.226.409-.487.819-.73 1.211l-.192.302c.622.224 1.227.466 1.867.708l.228-.162c.652-.236 1.411-.509 2.274-.854l-2.284-3.181.018.017Zm152.277 157.55c.187-.622.411-1.244.634-1.865.137-.356.293-.729.43-1.084.31-.782.604-1.405.898-2.027.104-.213.208-.427.329-.658-.838-.576-4.121-2.845-4.121-2.845-.44.199-.863.416-1.285.632 1.217 2.732 2.273 5.377 3.097 7.864l.018-.017ZM185.224 143.122a26.33 26.33 0 0 1-1.252.455c.765.329 1.53.658 2.313 1.004l-1.079-1.476.018.017ZM330.578 286.26l-.589-.401.272.581s.211-.108.334-.162l-.017-.018ZM196.4 157.917c-.772-.966-3.7-4.779-3.7-4.779l-4.258-5.64c-2.598-1.178-5.071-2.269-7.258-3.15-.916.398-2.328.731-3.883.994-.086.195-.261.409-.488.677l-.14.143c7.148 4.408 14.639 9.468 22.295 15.04l-2.586-3.267.018-.018ZM328.641 287.2a114.83 114.83 0 0 0-1.812-3.7l-1.551-1.029-1.928-1.397c-1.213-.873-2.427-1.782-3.623-2.673l-.25-.174-1.304 2.048a382.16 382.16 0 0 1 6.476 9.283c1.195-.791 2.496-1.547 3.974-2.34l.018-.018ZM121.893 83.348a255.679 255.679 0 0 0-3.186-1.545l-2.669-1.248a116.644 116.644 0 0 0-3.433-1.542l-1.157-.502-1.654-.71a76.36 76.36 0 0 0-2.863-1.192l-2.223-.881c-1.031-.415-2.062-.794-3.093-1.174l-1.315-.482-1.226-.43c-1.28-.448-2.328-.81-3.359-1.154-.604-.206-2.114-.67-2.114-.67-.799-.257-1.598-.48-2.38-.72a92.014 92.014 0 0 1-2.077-.599c-.924-.239-1.829-.46-2.734-.681l-.994-.238-1.845-.407c-.817-.169-1.544-.321-2.236-.474a91.849 91.849 0 0 0-1.95-.334c-.657-.118-1.295-.182-1.934-.282-.55-.084-1.045-.15-1.524-.198l-.603-.065a58.783 58.783 0 0 0-2.356-.207l-1.01-.043-1.168-.024a59.995 59.995 0 0 0-1.77-.018c-.567.006-1.098.01-1.628.051-.584.024-1.115.065-1.68.106l-11.486 3.387-.58.377c-.44.27-.721.45-1.002.665-.263.197-.526.394-.772.61-.333.268-.649.554-.964.84-.28.287-.56.537-.788.805-.157.16-.332.34-.454.535l-.436.518a9.841 9.841 0 0 0-.611.767c-.105.108-.174.285-.261.41l-.366.588c-.173.285-.348.534-.504.801-.07.142-.156.302-.225.445l-.294.622a14.21 14.21 0 0 0-.432.907c-.07.178-.447 1.208-.447 1.208-.12.302-.241.605-.344.924-.051.16-.375 1.314-.375 1.314-.101.39-.204.674-.272.993l-.266 1.455c-.067.39-.134.709-.184 1.01-.033.213-.16 1.56-.16 1.56-.048.372-.08.726-.111 1.08-.015.266-.053 1.63-.053 1.63-.03.39-.027.779-.022 1.168.003.283.054 1.663.054 1.663.005.425.027.867.05 1.31.02.265.243 2.723.243 2.723l.078.637.328 2.457c.076.459.606 3.534.606 3.534.132.725.317 1.466.485 2.226 0 0 .262 1.236.355 1.607.259 1.024.536 2.066.814 3.143l74.631-28.168-.054-.088Zm143.182 140.486-5.479-5.54c-2.505-2.453-5.565-5.379-8.732-8.41a98.565 98.565 0 0 1-2.846 3.515 651.75 651.75 0 0 0 7.071 7.028c12.474 12.216 25.35 23.913 38.287 34.797-.718-.878-1.435-1.721-2.081-2.494a746.736 746.736 0 0 0-4.843-5.652l-2.923-3.387c-1.793-2.071-4.356-4.896-7.546-8.37-1.63-1.772-3.618-3.858-5.553-5.893l-2.382-2.508c-.932-.982-1.863-1.928-2.758-2.84l-.036-.035-.161-.158-.018-.053Zm-18.346-11.768a101.093 101.093 0 0 0 2.793-3.461c-2.451-2.331-4.938-4.66-7.245-6.815l-.215-.21c-.822-.736-4.042-3.678-8.618-7.669l-2.716-2.31c-2.181-1.855-4.432-3.78-6.309-5.372l-1.233-1.032a841.357 841.357 0 0 0-5.484-4.425 679.07 679.07 0 0 0 29.044 31.276l-.017.018Zm-68.696-70.909c.174-.249.348-.534.505-.801l.035-.036-1.179.702c.267.086.551.189.836.292h.071l-.25-.175-.018.018Zm139.981 135.987c-.821-.63-3.678-2.797-4.874-3.723a451.318 451.318 0 0 1 3.9 5.254l.991-1.549-.017.018Zm15.254 21.764c-.918-2.93-2.249-6.439-3.865-10.052-1.39.739-2.604 1.442-3.728 2.196a337.66 337.66 0 0 1 5.638 8.742c.567.065 1.134.131 1.701.161l.272-1.065-.018.018ZM170.079 139.005c-.004-.39.027-.779.058-1.169.079-.833.178-1.506.33-2.163 0 0 .203-.781.255-.941-.544.448-1.106.879-1.668 1.274a26.43 26.43 0 0 1-.861.592 58.51 58.51 0 0 1-2.6 1.69l-.053.053c1.435.11 2.96.343 4.557.681l-.018-.017Zm166.339 166.138c.836-1.247 1.778-2.46 2.808-3.692a21.55 21.55 0 0 1-1.731.336l-.282.038c-.513.058-.955.08-1.398.102.261 1.131.468 2.208.603 3.216ZM176.414 143.527l.226-.303.314-.463c-.604-.207-1.191-.396-1.777-.585l-2.496 1.547.534.313c.725-.131 1.856-.248 3.164-.438l.017-.088.018.017Zm44.727 43.973-5.218-5.949-1.686-1.966c7.904 10.26 17.068 20.914 26.813 31.191l.963-.912-2.543-2.63-5.069-5.314-4.21-4.508-4.534-4.929-2.868-3.194-.017-.017-1.614-1.79-.017.018Zm18.595 24.511c-12.664-13.347-24.254-27.217-33.497-40.154l-.572-.419c-2.577 5.353-6.586 10.951-11.625 16.169l.557.791c.54.773 1.133 1.564 1.708 2.337l1.205 1.67c8.034 10.878 17.452 22.026 27.932 33.163l14.31-13.575-.018.018Zm74.642 70.85c-1.35-1.987-2.86-4.096-4.029-5.766l-4.602-6.257-1.366-1.827c-.646-.843-1.365-1.792-2.119-2.776-2.872-1.937-5.959-4.154-9.119-6.513-.264.126-.527.288-.791.45l-.018-.017-.246.144c-.651.378-1.319.774-1.987 1.205l-.685.449c-.457.288-.896.593-1.353.916l-.755.557c-.474.34-.896.628-1.299.968 0 0-1.684 1.326-2.106 1.649l-.859.699-1.28 1.092-.824.734c-.456.394-.911.823-1.367 1.253l-.753.697c-.49.501-.998.984-1.523 1.484 1.552 1.136 3.052 2.254 4.568 3.319l1.41.995c1.392.978 2.622 1.833 3.871 2.67l1.498 1.012c1.231.82 2.425 1.605 3.638 2.372 1.034.662 2.068 1.325 3.084 1.934l1.836 1.133a169.965 169.965 0 0 0 11.488 6.384l5.741-9.013-.053.053Zm-21.028-25.283-1.484-1.242a471.518 471.518 0 0 1-4.682-3.99l-1.573-1.33-1.537-1.365c-1.573-1.366-3.146-2.766-4.737-4.149l-1.806-1.593-1.127-1.034c-1.663-1.488-3.308-2.994-4.953-4.5l-2.629-2.399a777.42 777.42 0 0 1-5.564-5.203l-1.592-1.489-.054-.159-.053.054-.215-.21a713.969 713.969 0 0 1-7.408-7.15l-.716-.701a449.878 449.878 0 0 1-4.17-4.119l-2.203-2.226-.908 1.036c2.148 2.209 4.35 4.4 6.587 6.591 13.405 13.126 27.132 24.957 40.771 35.196l.035-.035.018.017Zm-100.405-71.465c4.899-5.111 8.768-10.565 11.206-15.74-1.821-1.327-3.551-2.567-5.354-3.877l-1.695-1.205c-1.463-1.012-2.872-2.007-4.121-2.845l-2.372-1.587a284.942 284.942 0 0 0-7.364-4.76c-3.048-1.9-6.646-3.953-9.318-5.449.202.653.367 1.164.55 1.693l.346.935c.275.794.53 1.5.839 2.222l.401.952c.327.776.636 1.534.981 2.327l.472 1.022c.399.846.726 1.586 1.107 2.379l.669 1.321c.417.828.743 1.497 1.104 2.166l.561 1.039c.488.898.922 1.708 1.373 2.536l.921 1.601c.397.705.794 1.373 1.209 2.095 0 0 1.93 3.185 2.308 3.765l2.451 3.835 2.61 3.886c.252.387.827 1.196 1.151 1.653l-.035.036Zm-18.263-37.595c5.394 2.797 11.042 6.087 16.926 9.853-1.195-.82-2.355-1.641-3.532-2.444a714.915 714.915 0 0 0-3.692-2.459 603.86 603.86 0 0 0-3.602-2.372c-1.319-.837-2.603-1.674-3.904-2.458l-1.462-.906c-.245.25-.489.536-.717.804l-.017-.018Zm141.119 131.745.018.017-.018-.017ZM172.904 141.526a22.185 22.185 0 0 0-.888-.239c.02.194.061.725.061.725l.845-.504-.018.018Zm148.869 147.246c-.612-.879-1.224-1.759-1.853-2.655l-.756-1.09s-.177-.034-.284-.068a189.756 189.756 0 0 1 3.751 6.123l.456-.359-1.296-1.934-.018-.017Zm-78.488-77.593-.964.912c.788.807 1.541 1.614 2.329 2.42l.908-1.035-2.255-2.279-.018-.018Zm32.495 59.759c1.068-1.091 2.102-2.039 3.135-2.987l.579-.519a78.526 78.526 0 0 1 3.349-2.848l.701-.573a61.66 61.66 0 0 1 3.318-2.493l.316-.215a59.925 59.925 0 0 1 3.269-2.121l.439-.27c.212-.108.422-.252.634-.36-13.496-10.17-27.027-21.879-40.253-34.83a378.464 378.464 0 0 1-6.552-6.556c-4.808 5.375-10.442 11.236-13.54 14.4a513.264 513.264 0 0 0 6.212 6.222c6.98 6.835 14.134 13.385 21.3 19.457a333.606 333.606 0 0 0 4.36 3.675l.518.402a307.065 307.065 0 0 0 3.894 3.148l.929.734c1.161.927 2.322 1.854 3.482 2.745 0 0 2.785 2.132 3.892 2.971l.018.018ZM170.222 142.296c-.04-.425-.079-.778-.083-1.132l-.021-.301a45.054 45.054 0 0 0-3.477-.603c1.176.661 2.37 1.34 3.581 2.036Zm157.781 155.938-1.207-1.883a188.278 188.278 0 0 0-2.719-4.133c-.175.144-.404.305-.544.413 1.281 2.2 2.474 4.348 3.541 6.373.55.118 1.082.255 1.614.356-.252-.387-.54-.88-.703-1.144l.018.018Zm-8.709-7.898c-.81-1.249-1.675-2.621-2.486-3.87l-1.296-1.97-5.201 8.176a113.25 113.25 0 0 0 6.849 3.066c1.067-1.09 2.26-2.129 3.575-3.221l-1.406-2.217-.035.036Zm13.37 11.516-.106.001.107.105-.001-.106Zm1.933 3.468a72.885 72.885 0 0 0-.303-1.767c-.049.408-.08.797-.129 1.205.144.14.27.334.432.562ZM173.812 146.757l-1.123-.68c.112.495.242 1.007.354 1.501.262-.268.525-.536.769-.821Zm67.178 66.587-14.31 13.575 3.206 3.349c5.32-5.433 9.886-10.275 13.54-14.399-.824-.842-1.63-1.666-2.436-2.525Zm91.165 95.257c-.008-.743.019-1.452.047-2.16l.056-1.31-.27-.369a209.9 209.9 0 0 0-1.46-2.376l-.505-.809c-.585-.083-1.17-.201-1.791-.319a154.635 154.635 0 0 1 3.934 8.334c-.001-.106-.028-.973-.028-.973l.017-.018ZM159.202 141.448c3.078 1.333 6.326 2.168 9.604 2.437l.07-.072c-2.245-1.287-4.454-2.54-6.644-3.705l-1.462.67c-.51.235-1.039.452-1.568.67Zm11.63 4.701-.058-.372a24.072 24.072 0 0 1-1.611-.037l-.035.036c.605.277 1.193.572 1.815.867l-.111-.494Zm153.132 151.806a461.423 461.423 0 0 0-2.291-3.854 61.566 61.566 0 0 0-2.682 2.38 74.467 74.467 0 0 0 5.118 1.755l-.145-.281Zm10.009 10.186c-.013.372-.009.725.012 1.097.105-.178.191-.374.295-.552l-.307-.545ZM152.502 161.179c.476-.164.917-.363 1.392-.562l1.463-.599c.564-.217.987-.399 1.409-.58.388-.181.775-.397 1.162-.578l1.479-.758c.492-.252.968-.487 1.443-.757.387-.216.773-.468 1.16-.72l1.283-.809c.51-.306.984-.611 1.476-.935.369-.269.72-.52 1.071-.807l.597-.466.561-.43c.492-.359.984-.718 1.457-1.129l.876-.788s1.735-1.592 2.033-1.861l-1.231-.82c-.57-.313-1.211-.625-1.869-.955-.427-.208-.783-.382-1.121-.538l-16.127 9.452a51.276 51.276 0 0 0 1.01 4.84c.159-.055.336-.092.494-.147l-.018-.053Zm179.391 152.487c-.162-.264-.326-.634-.508-1.092l-.817-1.886c-1.325-2.908-3.388-6.959-5.159-10.163-.266-.015-.567-.101-.923-.204l-.603-.171a62.69 62.69 0 0 1-3.393-1.082l-.622-.224a63.544 63.544 0 0 1-2.365-.879c-5.231 5.45-9.457 12.235-12.206 19.661 11.272 4.386 19.812 5.152 24.772 2.236.245-1.755.929-3.957 1.824-6.196ZM174.88 158.376c-.454-1.076-.873-2.116-1.292-3.156l-.566-1.535a56.565 56.565 0 0 1-.861-2.593c-.402.375-1.016.895-1.016.895l-.473.482c-.403.341-.771.68-1.174 1.021-.456.394-.948.752-1.439 1.111l-1.177.879c-.403.305-.772.61-1.176.879-.562.395-1.159.755-1.757 1.115l-1.143.701c-.369.234-.738.468-1.09.684-.686.378-1.39.739-2.094 1.1l-1.109.56c-.316.18-.651.342-.985.505-1.092.506-2.238.96-3.366 1.396 0 0-.792.344-.987.399a6.898 6.898 0 0 1-.652.201c3.179 10.465 10.249 23.76 20.521 38.44 6.807-3.873 13.249-8.733 18.623-14.113l-1.259-1.793a195.702 195.702 0 0 1-3.187-4.766l-1.117-1.759c-.703-1.109-1.406-2.217-2.055-3.308l-1.01-1.654c-.866-1.478-1.714-2.904-2.509-4.347l-.795-1.48a107.012 107.012 0 0 1-1.664-3.169l-.815-1.639a99.247 99.247 0 0 1-1.777-3.77l.035-.036-.053-.017-.546-1.305-.035.072Zm-17.212-19.551c.583-.129 1.024-.257 1.43-.35a181.92 181.92 0 0 0-11.015-5.22 31.139 31.139 0 0 0 1.809 1.912 31.838 31.838 0 0 0 5.34 4.213l.264-.161.724-.096a4.18 4.18 0 0 0 .707-.149l.741-.184v.035Zm188.894 196.522c-.201-.617-.403-1.235-.622-1.87-.183-.494-.876-2.328-.876-2.328-.237-.617-.475-1.27-.73-1.904l-1.127-2.68a388.759 388.759 0 0 1-1.126-2.573l-.78-1.674c-.399-.846-.744-1.603-1.106-2.343l-.218-.458-1.158-2.29c-.417-.828-.833-1.656-1.285-2.519-.163-.299-.669-1.215-.994-1.849-.035.071-.204.781-.237.959-.1.567-.268 1.418-.382 2.287a31.633 31.633 0 0 0-.194 1.665c-.016.16-.013.372-.029.567l.007.602.004.389.201.582c.274.759.44 1.271.64 1.747l.363.846c.073.176.616 1.268.616 1.268.218.458.417.899.652 1.339l.362.669c.162.264.306.51.469.774l.36.599c.289.457.559.897.865 1.336l.144.211c.216.317.449.616.683.914l.557.72c.287.387.592.756.897 1.124l.359.422c.269.298.538.596.824.877l.215.21c.484.509.788.842 1.128 1.175l.466.456c.268.262.589.507.893.77l.018.017.141-.037ZM165.113 146.081l-.195-.087c-1.477-.676-2.901-1.334-4.11-1.854a121.89 121.89 0 0 0-4.569-1.743c-.563.325-1.568.635-2.874.967-2.152 2.304-3.083 6.084-2.619 11.159l14.367-8.442Zm138.513 170.854c2.732-7.373 6.904-14.176 12.081-19.714-1.405-.605-2.668-1.142-3.967-1.749l-.284-.138c-.766-.365-1.478-.712-2.19-1.059l-12.472 19.576a110.08 110.08 0 0 0 6.814 3.066l.018.018ZM148.489 136.349a34.188 34.188 0 0 1-4.017-4.705c-14.562-5.716-25.977-7.126-32.916-3.978l-.211.108c5.815 5.59 12.711 9.611 20.063 11.734 4.289-2.662 11.191-2.8 20.316-.376a35.17 35.17 0 0 1-3.253-2.801l.018.018ZM307.611 293.46l-.605-.313a167.712 167.712 0 0 1-4.559-2.434l-.108-.175-.07.071-.232-.122a120.835 120.835 0 0 1-4.489-2.611l-.464-.278a205.5 205.5 0 0 1-4.759-2.945l-.749-.488a278.51 278.51 0 0 1-4.708-3.105l-.713-.489a291.773 291.773 0 0 1-4.942-3.438l-1.57-1.118a204.94 204.94 0 0 1-3.641-2.655c-.543.554-1.784 1.894-1.784 1.894-.35.358-.7.715-.997 1.09-.403.411-.751.874-1.136 1.303 0 0-1.642 1.928-1.957 2.285a47.787 47.787 0 0 0-1.239 1.552s-1.432 1.82-1.676 2.141a66.426 66.426 0 0 0-1.394 1.925s-1.116 1.569-1.325 1.854a57.398 57.398 0 0 0-1.236 1.871s-1.114 1.674-1.288 1.959l-.365.588c12.049 8.962 23.333 16.091 33.551 21.231l12.473-19.576-.018-.017Zm26.554 27.052-.145-.282c-.074-.283-.278-1.113-.278-1.113-.122.126-.227.268-.35.393l.072.07c-.152.657-.305 1.243-.404 1.845l-.134.71a41.93 41.93 0 0 0-.452 3.898l-.046.656c-.087 1.664-.125 3.028-.093 4.32a45.17 45.17 0 0 0 .37 4.598c.04.389.115.778.19 1.167l.265 1.484c.113.671.191 1.272.339 1.873.075.318.167.653.259.989 2.944-4.26 3.113-11.342.479-20.503l-.072-.07v-.035ZM134.017 140.173c3.372.781 6.74 1.173 9.997 1.176 2.301.013 4.653-.17 7.003-.564l-.515-.119c-6.887-1.738-12.43-1.914-16.485-.493Zm267.764 281.35c.316-.251.613-.555.893-.841l.298-.304c.157-.161.315-.286.437-.447.123-.125.228-.232.297-.374l.244-.321a19.093 19.093 0 0 0 2.886-4.737c.31-.746.568-1.439.808-2.15.256-.799.46-1.544.629-2.289.876-3.974 1.039-8.401.521-13.529l-.079-.743-7.478 26.147c.263-.197.404-.305.561-.43l-.017.018ZM149.023 155.531c-.55-4.844.043-8.744 1.781-11.629-.618.13-1.184.206-1.749.318-.388.075-.777.114-1.166.189a55.04 55.04 0 0 1-3.377.334l-.601.041a43.74 43.74 0 0 1-4.018.022l-1.01-.044a44.687 44.687 0 0 1-3.065-.27c-.497-.066-.851-.098-1.188-.148a57.034 57.034 0 0 1-3.405-.604l-.586-.118a36.057 36.057 0 0 1-1.153-.29l-.267-.086c-3.601 4.036-4.069 11.245-1.43 20.866l.514.048c1.47.145 2.958.237 4.446.293 0 0 .921.026 1.15.006l15.07-8.945.054.017Zm194.062 179.107c-.179-.175-1.792-1.929-1.792-1.929l-1.023-1.283c-.449-.544-.718-.913-.988-1.282l-.288-.387a21.388 21.388 0 0 1-.558-.826c-.287-.422-.575-.844-.846-1.284.927 6.894-.165 12.162-3.241 15.626l.092.336c.092.335.166.618.258.918.129.405.292.811.456 1.217l.256.67.237.652c.219.565.42 1.147.656 1.693.181.388.363.775.58 1.163l.634 1.286c.271.546.525 1.11.814 1.638.217.387.434.739.668 1.108l.793 1.267c.343.581.649 1.056.955 1.531.27.404.575.773.863 1.16l.88 1.141c.395.528.719.985 1.06 1.388.323.387.663.755 1.022 1.141 0 0 1.38 1.526 1.594 1.737.297-.375.558-.749.837-1.141.174-.25.296-.446.418-.642.278-.498.52-.996.762-1.529.172-.427.309-.782.447-1.173l.221-.763c.085-.337.188-.622.255-.941l.053-.054-.036-.035.032-.283c.067-.355.151-.727.218-1.117l.064-.568c.048-.478.096-.921.144-1.364 0 0 .04-1.186.054-1.523l-.014-1.239c-.004-.354-.008-.743-.03-1.115l-.021-.265c-.081-.919-.105-1.468-.182-2.034l-.193-1.485a53.838 53.838 0 0 0-.547-2.986l-.187-.848a59.738 59.738 0 0 0-.981-3.831c-.605-.313-1.427-.977-2.034-1.502l-1.896-1.752-.501-.491h.035Zm-13.078 9.74c-1.869-7.257-2.079-14.884-.637-22.12-5.516 2.196-13.989 1.182-24.655-2.927-2.451 7.229-3.445 14.867-2.904 22.084 12.677 4.991 22.406 6.011 28.196 2.963Zm1.967-2.905c-.092-.335-.184-.635-.24-.935-.242-1.007-.395-2.032-.566-3.075l-.15-.813a10.453 10.453 0 0 1-.133-.795c-.195-1.591-.337-3.2-.372-4.775-.034-1.469-.034-2.974.09-4.604.015-.265.047-.513.062-.744 0 0 .161-1.417.193-1.772-1.028 6.241-.811 12.93.783 19.393.246-.179.474-.376.702-.609l-.351-1.288-.018.017ZM224.113 226.856a548.029 548.029 0 0 1-4.498-4.859l-.627-.685-1.111-1.228a286.103 286.103 0 0 1-3.101-3.492l-1.704-1.948a512.054 512.054 0 0 1-4.161-4.845l-1.453-1.738a246.184 246.184 0 0 1-2.907-3.547l-1.634-2.019a350.603 350.603 0 0 1-3.322-4.234l-1.401-1.827c-.988-1.318-1.959-2.618-2.929-3.919l-1.402-1.933-1.151-1.617c-5.428 5.363-11.852 10.241-18.641 14.096 9.1 12.832 20.513 26.633 33.052 39.927l16.972-16.115.018-.017Zm36.376 63.313c.47-.73.957-1.478 1.444-2.227l1.097-1.657a99.328 99.328 0 0 1 2.318-3.226l.436-.589a155.48 155.48 0 0 1 2.932-3.746 258.88 258.88 0 0 1 1.153-1.356c.734-.857 1.328-1.571 1.957-2.285.228-.232 1.977-2.126 2.676-2.876a339.12 339.12 0 0 1-8.91-6.94l-1.054-.857a444.238 444.238 0 0 1-8.666-7.226l-1.216-1.05a430.615 430.615 0 0 1-8.493-7.581l-.858-.77a429.817 429.817 0 0 1-8.981-8.515l-.913-.894a248.648 248.648 0 0 1-4.35-4.365l-1.181-1.156a666.94 666.94 0 0 1-16.704 16.342 554.697 554.697 0 0 0 6.552 6.556c13.279 13.004 26.881 24.748 40.431 34.935l.33-.552v.035ZM136.364 142.716l.301.015c.957.097 1.879.159 2.835.185-2.712-.275-5.426-.797-8.142-1.531-.088.089-.158.16-.264.197a.897.897 0 0 1-.21.144c.248.068.479.119.71.17l1.082.219c1.153.219 2.341.402 3.511.532l.143.14.034-.106v.035Zm89.003 85.473-16.972 16.114 3.51 3.648c5.605-5.295 11.365-10.962 16.739-16.378a331.81 331.81 0 0 1-3.242-3.385l-.035.001Zm-75.105-66.297a51.715 51.715 0 0 1-.952-4.399l-11.642 6.841.266-.02c.477-.023.884-.044 1.291-.102a21.11 21.11 0 0 0 1.59-.228l1.538-.209c.442-.058.919-.116 1.361-.208.477-.094.971-.205 1.447-.333l1.589-.37c.477-.093.936-.204 1.413-.332.512-.129 1.005-.311 1.499-.457l.618-.201-.018.018Zm-21.088-21.105c-7.107-2.338-13.755-6.397-19.231-11.76l-.287-.28s-.105.071-.141.072a8.596 8.596 0 0 0-1.105.878 33.9 33.9 0 0 0 2.646 2.31l.678.525a50.973 50.973 0 0 0 2.981 2.183l.749.524a42.435 42.435 0 0 0 3.564 2.089l.801.399c.997.522 2.011.99 3.025 1.422l.996.415c1.351.553 2.613.984 3.821 1.361l.107.105.017-.053s.746.205.941.256c.14-.143.28-.286.474-.411l-.036-.035Zm42.252 61.645c-10.308-14.786-17.45-28.186-20.649-38.775-.705.254-1.375.473-2.081.657l-.583.13c-1.306.331-2.63.645-3.972.906-.301.056-.583.094-.866.133l-.849.114c-.954.151-1.925.32-2.898.418l-1.008.063-1.362.102c-.796.061-1.539.103-2.264.128l-.762-.01-4.694 2.86c4.022 11.36 11.755 25.375 22.404 40.599 6.235-1.247 13.004-3.756 19.567-7.308l.017-.017Zm-45.534-38.531c-2.477-9.393-1.992-16.726 1.427-21.185-.195-.051-.373-.12-.568-.171l-1.031-.344a40.53 40.53 0 0 1-2.897-1.087l-1.139-.484a48.803 48.803 0 0 1-3.221-1.544l-.516-.26a44.16 44.16 0 0 1-3.582-2.143c-.214-.139-.963-.663-.963-.663a62.222 62.222 0 0 1-2.552-1.869 21.9 21.9 0 0 1-1.019-.822 56.034 56.034 0 0 1-2.699-2.363c-.314.393-.593.785-.872 1.177-.191.303-.296.445-.4.623a21.109 21.109 0 0 0-.779 1.548c-.155.373-.292.764-.43 1.155l-.273.888c-.085.337-.171.568-.203.816l-.068.284a11.31 11.31 0 0 0-.199 1.17l-.066.425c-.064.603-.112 1.046-.16 1.524l-.048 2.089.029.974a9.6 9.6 0 0 0 .044.778l.061.69c.041.53.1 1.079.16 1.627l.174 1.326c.172 1.148.342 2.12.566 3.145l.224.989c.26 1.13.538 2.278.87 3.478.34.263.696.472 1.035.698l.66.436.606.419c.446.297.803.541 1.159.75.446.261.909.504 1.389.73l1.318.695c.392.209.801.435 1.21.625.499.243 1.014.433 1.548.64l1.315.518c.392.173.801.329 1.209.484.498.172.995.309 1.51.463l.746.205.728.223c.515.154.888.275 1.261.36.479.119.976.22 1.49.304l1.615.32c.426.102.834.187 1.259.253.018.018.071-.001.089.017l-.017.089Zm217.42 198.897a15.7 15.7 0 0 1-1.04-1.158c-.395-.456-.754-.948-1.114-1.441l-.97-1.265c-.287-.386-.574-.737-.826-1.089a24.726 24.726 0 0 1-1.081-1.724l-.793-1.267c-.217-.352-.451-.686-.65-1.055a23.092 23.092 0 0 1-.995-1.991l-.598-1.215a20.211 20.211 0 0 1-.508-1.057c-.326-.705-.564-1.429-.838-2.152l-.474-1.234c-.146-.388-.291-.705-.401-1.023a1.603 1.603 0 0 1-.11-.388c-.211.179-.422.323-.65.484l-.087.09c2.12 7.537 6.11 14.561 11.591 20.313.123-.09.264-.162.387-.252 0 0 .737-.574.877-.717-.215-.21-1.685-1.859-1.685-1.859h-.035Zm-43.368-22.161c-.418-7.236.648-14.84 3.081-22.015a117.318 117.318 0 0 1-7.205-3.239l-11.29 17.723c5.45 2.991 10.612 5.525 15.413 7.496l.001.035Zm42.153 25.908c-5.375-5.753-9.366-12.777-11.61-20.366-6.127 2.963-15.98 1.997-28.495-2.801.824 7.214 3.182 13.829 6.871 19.191 14.366 5.701 25.605 7.184 32.564 4.266.247-.109.494-.218.687-.308l-.017.018Zm-47.915-51.96c-10.236-5.157-21.502-12.269-33.515-21.196l-1.026 1.692c-.468.836-.919 1.655-1.37 2.509l-.728 1.352c-.503.979-.97 1.957-1.419 2.952l-.432.872a94.452 94.452 0 0 0-1.346 3.164l-.259.587c-.482 1.208-.946 2.434-1.322 3.641-.102.355-.222.693-.324 1.048l-.239.816c10.799 8.019 21.106 14.822 30.708 20.232l11.237-17.669h.035Zm-88.373-70.362c-12.665-13.417-24.167-27.341-33.322-40.297-6.492 3.515-13.208 6.077-19.476 7.43 10.575 14.907 23.906 30.937 38.559 46.406l14.257-13.522-.018-.017Zm-75.005-77.999c-.177.002-.337-.014-.532-.03-.425-.031-.868-.08-1.311-.128l-.567-.066c.147.459.276.9.44 1.377l1.97-1.153Zm126.264 129.838s.867-1.602 1.093-2.011c.329-.588.677-1.157 1.025-1.727l.035-.036c-13.656-10.257-27.366-22.106-40.735-35.197a390.376 390.376 0 0 1-6.624-6.626c-5.325 5.008-10.354 9.571-14.562 13.188a494.72 494.72 0 0 0 7.501 7.485c15.087 14.774 30.53 28.111 45.918 39.678l.102-.355c.12-.373.222-.764.342-1.137.171-.497.378-1.03.566-1.545 0 0 .67-1.83.808-2.185.241-.604.517-1.209.776-1.831 0 0 .673-1.582.863-1.991.294-.622.588-1.245.899-1.885 0 0 .814-1.654.969-1.992.33-.623.676-1.264 1.023-1.904l.001.071ZM127.234 168.33a49.816 49.816 0 0 1-.789-2.523c-.213-.033-.567-.065-.709-.099a14.957 14.957 0 0 1-1.331-.253l-1.242-.235c-.62-.118-1.277-.236-1.898-.389a52.321 52.321 0 0 1-1.35-.376l-1.118-.325a39.383 39.383 0 0 1-1.883-.584c-.48-.154-.96-.344-1.422-.552l-1.085-.432c-.605-.242-1.173-.449-1.707-.691a28.376 28.376 0 0 1-1.46-.73l-.926-.486a24.47 24.47 0 0 1-1.638-.869c-.427-.244-.855-.523-1.283-.802l-.731-.471.11.353c.183.565.367 1.165.568 1.747l-.034.107.035-.036.127.3c.165.476.693 1.834.693 1.834l.146.388c.256.67.511 1.375.784 2.063.183.459 1.037 2.486 1.037 2.486.291.67.564 1.357.873 2.044l.998 2.168c.435.952.798 1.727 1.178 2.484l-.016.16.053-.054.796 1.55 13.224-7.777Zm83.322 80.855-3.511-3.647-14.257 13.522a283.385 283.385 0 0 0 3.188 3.296c4.26-3.67 9.272-8.215 14.562-13.188l.018.017Zm-60.657-39.09c-10.543-15.155-17.951-28.606-22.061-40.018l-13.031 7.651.071.07c.273.617.563 1.216.888 1.814l1.301 2.395c.47.845.868 1.584 1.265 2.324l1.535 2.693a104.436 104.436 0 0 0 1.642 2.798l1.749 2.868c.451.757 1.407 2.288 1.407 2.288s2.648 4.169 3.206 4.995l2.287 3.43c.576.879 1.188 1.758 1.8 2.637l2.14 3.077c4.231 1.622 9.687 1.958 15.836.977l-.035.001ZM306 361.412c-3.212-5.456-5.249-11.897-5.91-18.776-5.103-2.057-10.674-4.746-16.516-7.981l-7.063 11.079c10.624 6.623 20.543 11.889 29.471 15.66l.018.018Zm-24.047-27.644c-9.512-5.358-19.694-12.038-30.279-19.882-.101.426-.506 2.2-.506 2.2-.102.426-.17.71-.22.976-.066.39-.115.762-.181 1.152 0 0-.263 1.808-.296 2.056-.031.39-.062.78-.076 1.152l-.041 1.044c-.014.301-.03.532-.027.78.005.389.026.725.048 1.097l.046.92c.002.247.023.513.061.725.039.318.113.6.169.901.019.088.206 1.007.263 1.342 1.321.979 2.642 1.957 3.945 2.918l.464.349c6.71 4.855 13.292 9.34 19.62 13.331l6.993-11.007.017-.054Zm-91.714-74.754c-14.939-15.749-28.487-32.096-39.189-47.267-5.688 1.012-10.929.922-15.261-.204l1.349 1.881a1730.36 1730.36 0 0 1 3.038 4.165l1.043 1.406c.916 1.212 1.832 2.425 2.766 3.655 0 0 3.144 4.058 4.023 5.164l1.831 2.283a263.18 263.18 0 0 0 2.944 3.653l1.544 1.897a2994.5 2994.5 0 0 0 3.301 3.968l1.525 1.808a520.62 520.62 0 0 0 3.372 3.932l1.166 1.352c1.416 1.632 2.868 3.264 4.32 4.896l1.219 1.369c1.13 1.245 2.259 2.526 3.424 3.772l1.774 1.947c1.093 1.175 3.888 4.193 3.888 4.193l.931.982c.914.964 1.827 1.929 2.758 2.876l.054.052 8.215-7.78h-.035Zm58.418 66.832a15.04 15.04 0 0 1-.088-1.557c-.025-.619-.047-.99-.033-1.362.012-.514.041-1.045.071-1.576l.031-.39c.013-.372.044-.762.093-1.134.065-.567.165-1.134.247-1.719l.083-.479c.049-.372.115-.762.199-1.135.118-.585.253-1.188.387-1.791l.101-.462c.084-.407.204-.816.305-1.242l.068-.248c-15.601-11.671-31.277-25.2-46.579-40.185a385.97 385.97 0 0 1-7.644-7.66c-3.77 3.205-6.84 5.625-8.931 7.009l3.742 3.804a424.02 424.02 0 0 1 4.027 4.014l.949.929a504.464 504.464 0 0 0 6.263 6.063l1.664 1.559c1.556 1.454 3.095 2.926 4.669 4.362l2.217 2.031c1.395 1.261 2.79 2.557 4.203 3.8l2.503 2.241c1.341 1.173 2.664 2.364 4.04 3.536l2.663 2.293c1.34 1.138 2.663 2.257 4.003 3.395l2.68 2.239a398.221 398.221 0 0 0 4.199 3.446l2.483 2.011a525.34 525.34 0 0 0 4.589 3.62l2.126 1.66a436.606 436.606 0 0 0 4.785 3.671c-.039-.283-.077-.495-.097-.725l-.018-.018Zm-68.017-57.71c-30.089-31.425-54.058-63.158-67.539-89.383l-23.002 13.502.972 1.406 1.42 1.986a326.06 326.06 0 0 0 4.279 5.87l1.384 1.881a489.075 489.075 0 0 0 5.696 7.538l.916 1.177a806.98 806.98 0 0 0 5.1 6.534l1.67 2.126a771.962 771.962 0 0 0 5.349 6.638l.898 1.124c2.1 2.582 4.253 5.145 6.424 7.761l1.56 1.844a808.491 808.491 0 0 0 5.292 6.196l1.703 1.984c2.26 2.597 4.555 5.194 6.867 7.809l.395.457a634.079 634.079 0 0 0 6.631 7.333l1.846 2.018c2.007 2.175 4.032 4.368 6.074 6.543l1.236 1.315a510.647 510.647 0 0 0 7.433 7.769l2.561 2.612L180.64 268.1v.036Zm10.87-7.807-8.215 7.781 2.346 2.437c1.986-1.276 5.075-3.678 8.95-6.991-1.039-1.087-2.095-2.157-3.116-3.227h.035Zm82.389 86.104c-7.808-4.951-15.978-10.57-24.279-16.773-18.493-13.802-37.064-29.816-55.194-47.57a705.433 705.433 0 0 1-12.549-12.639l-14.818 14.058.053.053a401.383 401.383 0 0 0 3.814 3.874l1.862 1.894a750.545 750.545 0 0 0 7.644 7.589l1.217 1.192a545.803 545.803 0 0 0 8.034 7.727c.734.719 3.524 3.311 3.524 3.311 1.932 1.822 3.882 3.662 5.832 5.466 1.144 1.051 4.059 3.695 4.059 3.695 1.807 1.664 3.631 3.31 5.455 4.956a428.816 428.816 0 0 0 4.273 3.799 631.197 631.197 0 0 0 5.363 4.691c1.465 1.26 2.895 2.521 4.361 3.781 1.787 1.54 3.61 3.08 5.415 4.602l4.342 3.657a631.827 631.827 0 0 0 5.628 4.6s3.162 2.571 4.18 3.393a789.048 789.048 0 0 0 6.322 5.001l3.554 2.779c3.035 2.342 6.088 4.667 9.105 6.956l12.786-20.074.017-.018Z"/></g><defs><clipPath id="a"><path fill="#fff" d="M355.817 471.182-.003 122.762 152.52-32.998l355.82 348.42z"/></clipPath></defs></svg>